**ABCDEFGHIJKLMNOPQRSTUVWXYZabcdefghijklmnopqrstuvwxyz**************************
**PARASOLID !"#$%&'()*+,-./:;<=>?@[\]^_`{|}~0123456789**************************
**PART1;
MC=AMD64;
MC_MODEL=Intel64 Family 6 Model 37 Stepping 1, GenuineIntel;
MC_ID=unknown;
OS=Windows_NT;
OS_RELEASE=unknown;
FRU=Parasolid Version 28.0, build 174,  7- 3-2015;
APPL=SOLIDWORKS 2016-2015258;
SITE=;
USER=unknown;
FORMAT=text;
GUISE=transmit;
KEY=335E6290-EEA6-49D5-BD2D-31150EFD884E;
FILE=335E6290-EEA6-49D5-BD2D-31150EFD884E.x_t;
DATE=Thu Dec 24 06:08:48 2015;
**PART2;
SCH=SCH_2800174_28002;
USFLD_SIZE=0;
**PART3;
**END_OF_HEADER*****************************************************************
T51 : TRANSMIT FILE created by modeller version 280017417 SCH_1201000_121030 12
 1 414 2 3 0 0 0 0 1e3 1e-8 0 4 0 1 0 1 1 5 6 7 8 9 10 11 81 2 2 343 12 1 0 0 0
 0 13 0 70 3 0 1 0 0 4 3 20 8 14 14 1 T13 5 41 0 1 0 15 0 0 16 0 52 6 335 0 17 1
8 0 0 +2097063026428385e-33 0 .0183 -146075593296902e-30 0 -1 .001195 .707106781
186548 .707106781186547 -1 0 146075593296902e-30 31 7 319 0 10 19 0 0 -205250997
047283e-32 0 .017995 146075593296902e-30 0 1 1 0 -146075593296902e-30 .0015 29 8
 132 0 11 20 0 .000577350269189617 .001 -.0017 19 9 45 0 1 16 0 21 V16 10 316 0
 ?22 0 23 7 0 0 1 18 11 130 0 24 0 25 8 ?1 17 24 0 26 27 28 11 29 30 0 31 +18 25
 201 0 32 11 33 34 ?1 17 32 0 35 36 37 25 28 38 0 39 -18 33 203 0 40 25 41 42 ?1
 29 34 277 0 25 42 43 -.000577350269189618 .001 -5e-4 29 42 278 0 33 44 34 -.001
154700538379252 -1139825372164452e-32 -5e-4 29 43 275 0 45 34 46 .00115470053837
925 -693889390390723e-32 -.0017 18 45 212 0 47 48 0 43 ?1 29 46 274 0 48 43 49 .
000577350269189633 -.001 -.0017 18 48 210 0 50 51 45 46 ?1 29 49 273 0 51 46 52
 -.000577350269189634 -.001 -.0017 18 51 208 0 53 54 48 49 ?1 29 52 272 0 54 49
 20 -.001154700538379252 -1139825372164452e-32 -.0017 18 54 206 0 55 56 51 52 ?1
 29 20 271 0 56 52 8 -.000577350269189618 .001 -.0017 18 56 204 0 28 57 54 20 ?1
 17 28 0 26 24 39 56 32 38 0 37 +18 57 211 0 27 58 56 59 ?1 17 27 0 26 39 24 57
 31 60 0 61 -18 58 209 0 62 63 57 64 ?1 29 59 282 0 57 0 64 .000577350269189617
 .001 -5e-4 29 64 281 0 58 59 65 .00115470053837925 -693889390390723e-32 -5e-4 2
9 65 280 0 63 64 44 .000577350269189633 -.001 -5e-4 18 63 207 0 66 41 58 65 ?1 2
9 44 279 0 41 65 42 -.000577350269189634 -.001 -5e-4 18 41 205 0 67 33 63 44 ?1
 17 67 0 68 69 70 41 53 71 0 72 -15 68 228 0 70 73 0 17 69 0 68 50 67 63 74 75 0
 76 -17 70 0 68 67 50 51 77 78 0 79 +17 53 0 80 81 72 51 67 71 0 70 +16 71 174 0
 ?53 82 83 84 0 0 1 17 72 0 80 53 40 41 85 86 0 74 -15 80 224 0 81 87 0 17 40 0
 80 72 81 33 55 82 0 85 -17 85 0 88 89 74 33 72 86 0 36 +16 86 167 0 ?85 90 75 9
1 0 0 1 17 74 0 88 85 76 41 69 75 0 0 +15 88 239 0 92 93 0 17 76 0 88 74 94 63 9
5 96 0 0 +16 75 171 0 ?74 86 96 97 0 0 1 16 96 175 0 ?76 75 98 99 0 0 1 30 97 26
7 0 75 99 91 0 +.000577350269189633 -.001 -5e-4 -1 0 0 30 99 268 0 96 100 97 0 +
.00115470053837925 -693889390390723e-32 -5e-4 -.5 -.866025403784439 0 30 91 266
 0 86 97 101 0 +-.000577350269189634 -.001 -5e-4 -.5 .866025403784438 0 30 101 2
65 0 90 91 102 0 +-.001154700538379252 -1139825372164452e-32 -5e-4 .5 .866025403
784439 0 16 90 163 0 ?89 60 86 101 0 0 1 30 102 264 0 30 101 103 0 +-.0005773502
69189618 .001 -.0017 1 0 0 16 30 183 0 ?24 104 0 102 0 0 1 30 103 263 0 104 102
 105 0 +.000577350269189617 .001 -.0017 .5 -.866025403784438 0 16 104 186 0 ?106
 107 30 103 0 0 1 30 105 262 0 107 103 108 0 +.00115470053837925 -69388939039072
3e-32 -.0017 -.5 -.866025403784439 0 16 107 189 0 ?109 78 104 105 0 0 1 30 108 2
61 0 78 105 110 0 +.000577350269189633 -.001 -.0017 -1 0 0 16 78 192 0 ?70 111 1
07 108 0 0 1 30 110 260 0 111 108 112 0 +-.000577350269189634 -.001 -.0017 -.5 .
866025403784438 0 16 111 195 0 ?81 113 78 110 0 0 1 30 112 259 0 113 110 114 0 +
-.001154700538379252 -1139825372164452e-32 -.0017 .5 .866025403784439 0 16 113 1
98 0 ?37 115 111 112 0 0 1 30 114 258 0 38 112 116 0 +-.000577350269189618 .001
 -5e-4 0 0 -1 16 38 166 0 ?28 117 82 114 0 0 1 30 116 257 0 82 114 84 0 +-.00115
4700538379252 -1139825372164452e-32 -5e-4 0 0 -1 16 82 170 0 ?55 38 71 116 0 0 1
 30 84 256 0 71 116 118 0 +-.000577350269189634 -.001 -5e-4 0 0 -1 30 118 255 0
 83 84 119 0 +.000577350269189633 -.001 -5e-4 0 0 -1 16 83 178 0 ?50 71 120 118
 0 0 1 30 119 254 0 120 118 121 0 +.00115470053837925 -693889390390723e-32 -5e-4
 0 0 -1 16 120 182 0 ?47 83 60 119 0 0 1 30 121 253 0 60 119 122 0 +.00057735026
9189617 .001 -5e-4 0 0 -1 16 60 162 0 ?31 120 90 121 0 0 1 31 122 83 0 117 121 1
23 0 +-795233720850275e-33 0 -.0015 146075593296902e-30 0 1 1 0 -146075593296902
e-30 .003 16 117 47 0 ?124 125 38 122 0 0 1 31 123 84 0 125 122 126 0 +-57612033
0904922e-33 0 216840434497101e-33 146075593296902e-30 0 1 1 0 -146075593296902e-
30 .0015 16 125 49 0 ?127 128 117 123 0 0 1 31 126 86 0 128 123 19 0 +-824448839
509655e-33 0 -.0017 146075593296902e-30 0 1 1 0 -146075593296902e-30 .003 16 128
 69 0 ?129 23 125 126 0 0 1 31 19 313 0 23 126 7 0 +2097063026428385e-33 0 .0183
 146075593296902e-30 0 1 1 0 -146075593296902e-30 .001195 16 23 310 0 ?130 10 12
8 19 0 0 1 17 130 0 131 130 130 0 132 23 0 0 +15 131 311 0 130 133 0 17 132 0 13
4 132 132 0 130 23 0 0 -15 134 330 0 132 17 0 14 17 328 135 ?0 93 136 5 6 +0 0 0
 93 21 81 1 135 402 137 17 138 0 0 139 140 14 93 237 139 ?17 141 88 5 142 +0 0 1
7 141 21 15 136 329 0 143 17 134 13 21 44 0 0 0 0 0 0 9 15 14 15 75 144 ?145 0 1
46 5 18 +0 0 145 0 21 81 1 144 404 137 15 147 0 139 148 149 14 145 72 148 ?133 1
5 150 5 151 +0 0 133 15 21 15 146 111 0 129 15 152 51 18 82 0 15 151 6 0 +-82444
8839509655e-33 0 -.0017 146075593296902e-30 0 1 .003 1 0 -146075593296902e-30 50
 151 81 0 145 153 18 0 +.003 0 -.0017 -146075593296902e-30 0 -1 -1 0 14607559329
6902e-30 50 153 80 0 133 154 151 0 +2097063026428385e-33 0 .0183 146075593296902
e-30 0 1 1 0 -146075593296902e-30 14 133 62 155 ?156 145 131 5 153 +0 0 156 145
 21 51 154 79 0 156 157 153 0 +-824448839509655e-33 0 -.0017 146075593296902e-30
 0 1 .0015 1 0 -146075593296902e-30 14 156 57 158 ?159 133 160 5 154 +0 0 159 13
3 21 52 157 78 0 159 161 154 0 +-576120330904922e-33 0 216840434497101e-33 -1460
75593296902e-30 0 -1 .0015 .707106781186547 .707106781186548 -1 0 14607559329690
2e-30 14 159 52 162 ?163 156 164 5 157 +0 0 163 156 21 50 161 245 0 163 165 157
 0 +-.000577350269189618 .001 -5e-4 0 1 0 0 0 1 14 163 213 166 ?167 159 26 5 161
 -0 0 167 159 21 50 165 246 0 141 168 161 0 +.000577350269189617 .001 -5e-4 .866
025403784438 .5 0 -.5 .866025403784438 0 14 141 233 169 ?93 170 171 5 165 -0 0 9
3 170 21 50 168 247 0 170 172 165 0 +.00115470053837925 -693889390390723e-32 -5e
-4 .866025403784439 -.5 0 .5 .866025403784439 0 14 170 229 173 ?141 73 174 5 168
 -0 0 141 73 21 50 172 248 0 73 175 168 0 +.000577350269189633 -.001 -5e-4 0 -1
 0 0 0 -1 14 73 225 176 ?170 87 68 5 172 -0 0 170 87 21 50 175 249 0 87 177 172
 0 +-.000577350269189634 -.001 -5e-4 -.866025403784438 -.5 0 .5 -.86602540378443
8 0 14 87 221 178 ?73 167 80 5 175 -0 0 73 167 21 50 177 250 0 167 142 175 0 +-.
001154700538379252 -1139825372164452e-32 -5e-4 -.866025403784439 .5 0 -.5 -.8660
25403784439 0 14 167 217 179 ?87 163 35 5 177 -0 0 87 163 21 50 142 252 0 93 0 1
77 0 +.000577350269189617 .001 -5e-4 0 0 -1 -1 0 0 81 1 179 414 137 167 180 0 17
8 0 181 15 35 220 0 37 167 0 17 37 0 35 32 55 56 182 113 0 29 +17 55 0 35 37 36
 54 40 82 0 81 +17 182 0 150 79 29 54 37 113 0 0 -17 29 0 150 182 183 56 24 30 0
 0 -15 150 154 0 29 145 184 17 183 0 150 29 185 11 106 104 0 0 -17 185 0 150 183
 77 45 109 107 0 0 -17 106 0 171 62 31 45 183 104 0 185 +15 171 236 0 106 141 0
 17 62 0 171 61 106 58 47 120 0 95 -17 31 0 171 106 61 11 27 60 0 183 +17 61 0 1
71 31 62 57 94 98 0 92 -17 94 0 88 76 92 58 61 98 0 0 +16 98 179 0 ?94 96 115 10
0 0 0 1 17 92 0 88 94 89 57 39 115 0 0 +17 89 0 88 92 85 25 36 90 0 0 +17 39 0 2
6 28 27 25 92 115 0 89 -16 115 159 0 ?92 98 113 186 0 0 1 30 186 270 0 115 0 100
 0 +-.000577350269189618 .001 -5e-4 1 0 0 30 100 269 0 98 186 99 0 +.00057735026
9189617 .001 -5e-4 .5 -.866025403784438 0 15 26 216 0 24 163 0 17 36 0 35 55 32
 33 89 90 0 0 -17 47 0 174 109 95 45 62 120 0 106 +17 95 0 174 47 66 58 76 96 0
 94 -15 174 232 0 109 170 0 17 66 0 174 95 109 63 50 83 0 69 -17 109 0 174 66 47
 48 185 107 0 77 +17 50 0 68 70 69 48 66 83 0 109 +17 77 0 150 185 79 48 70 78 0
 0 -17 79 0 150 77 182 51 81 111 0 0 -17 81 0 80 40 53 54 79 111 0 182 +15 184 7
1 0 187 145 0 17 187 0 184 187 187 0 129 128 0 0 -17 129 0 146 129 129 0 187 128
 0 0 +80 1 137 188 189 9000 1 1 1 1 1 1 1 1 0 FFFFTFTFFFFFFF1 81 1 180 367 190 1
67 0 179 191 192 193 81 1 178 413 137 87 192 0 176 179 194 82 1 181 979828847 81
 1 192 368 190 87 0 178 180 195 196 81 1 176 412 137 73 195 0 173 178 197 82 1 1
94 979959919 81 1 195 369 190 73 0 176 192 198 199 81 1 173 411 137 170 198 0 16
9 176 200 82 1 197 980090991 81 1 198 370 190 170 0 173 195 201 202 81 1 169 410
 137 141 201 0 166 173 203 82 1 200 980222063 81 1 201 371 190 141 0 169 198 204
 205 81 1 166 409 137 163 191 0 162 169 206 82 1 203 980353135 81 1 191 366 190
 163 0 166 207 180 208 81 1 162 408 137 159 207 0 158 166 209 82 1 206 980484207
 81 1 207 365 190 159 0 162 210 191 211 81 1 158 407 137 156 210 0 155 162 212 8
2 1 209 945553516 81 1 210 364 190 156 0 158 213 207 214 81 1 155 406 137 133 21
3 0 148 158 215 82 1 212 946143344 81 1 213 363 190 133 0 155 216 210 217 81 1 1
48 405 137 145 216 0 144 155 218 82 1 215 946733168 81 1 216 362 190 145 0 148 1
47 213 219 82 1 218 947912815 80 1 190 0 220 8001 0 0 0 0 3 5 0 0 0 FFFFTFTFFFFF
FF2 81 1 147 361 190 15 0 144 0 216 221 83 3 219 .647058823529412 .6196078431372
55 .588235294117647 83 3 221 .647058823529412 .619607843137255 .588235294117647
 79 15 220 SDL/TYSA_COLOUR83 3 217 .647058823529412 .619607843137255 .5882352941
17647 83 3 214 .647058823529412 .619607843137255 .588235294117647 83 3 211 .6470
58823529412 .619607843137255 .588235294117647 83 3 208 .647058823529412 .6196078
43137255 .588235294117647 81 1 204 372 190 93 0 139 201 138 222 83 3 205 .647058
823529412 .619607843137255 .588235294117647 81 1 139 403 137 93 204 0 135 144 22
3 81 1 138 373 190 17 0 135 204 0 224 83 3 222 .647058823529412 .619607843137255
 .588235294117647 83 3 224 .647058823529412 .619607843137255 .588235294117647 82
 1 223 970522735 83 3 202 .647058823529412 .619607843137255 .588235294117647 83
 3 199 .647058823529412 .619607843137255 .588235294117647 83 3 196 .647058823529
412 .619607843137255 .588235294117647 83 3 193 .647058823529412 .619607843137255
 .588235294117647 79 14 189 SWEntUnchanged15 164 107 0 124 159 225 17 124 0 164
 124 124 0 226 117 0 0 +15 225 51 0 227 159 0 17 227 0 225 227 227 0 127 125 0 0
 -17 127 0 228 127 127 0 227 125 0 0 +15 228 108 0 127 156 0 17 226 0 152 226 22
6 0 124 117 0 0 -15 152 74 0 226 15 0 15 160 317 0 22 156 228 17 22 0 160 22 22
 0 143 10 0 0 +17 143 0 136 143 143 0 22 10 0 0 -82 1 149 948240492 82 1 140 990
707824 19 16 40 0 1 0 9 5 S74 20 14 3 0 179 2 138 0 0 0 0 0 0 0 0 0 0 0 0 0 0 0
 0 0 80 2 12 229 230 8004 0 0 0 0 3 5 0 0 0 FFTFFFFFFFFFFF2 3 83 1 13 7850 79 16
 230 SDL/TYSA_DENSITY1 0 
