**ABCDEFGHIJKLMNOPQRSTUVWXYZabcdefghijklmnopqrstuvwxyz**************************
**PARASOLID !"#$%&'()*+,-./:;<=>?@[\]^_`{|}~0123456789**************************
**PART1;
MC=AMD64;
MC_MODEL=Intel64 Family 6 Model 37 Stepping 1, GenuineIntel;
MC_ID=unknown;
OS=Windows_NT;
OS_RELEASE=unknown;
FRU=Parasolid Version 28.0, build 174,  7- 3-2015;
APPL=SOLIDWORKS 2016-2015258;
SITE=;
USER=unknown;
FORMAT=text;
GUISE=transmit;
KEY=46DB9A82-4D03-46DA-9EA6-CEBE77D4DE11;
FILE=46DB9A82-4D03-46DA-9EA6-CEBE77D4DE11.x_t;
DATE=Sun Dec 20 12:00:40 2015;
**PART2;
SCH=SCH_2800174_28002;
USFLD_SIZE=0;
**PART3;
**END_OF_HEADER*****************************************************************
T51 : TRANSMIT FILE created by modeller version 280017417 SCH_1201000_121030 12
 1 1090 0 2 0 0 0 0 1e3 1e-8 0 3 0 1 0 1 1 4 5 6 7 8 9 10 70 2 0 1 0 0 4 2 20 8
 11 11 1 T13 4 94 0 1 0 12 0 0 13 0 51 5 396 0 14 15 0 0 +-6e-4 51e-5 45e-5 0 -1
 0 5e-5 0 0 -1 31 6 688 0 16 17 0 0 -45e-5 5e-5 -45e-5 -1 0 216840434497101e-30
 216840434497101e-30 0 1 5e-5 29 7 656 0 10 18 0 45e-5 51e-5 45e-5 19 8 28 0 1 1
3 0 19 V16 9 672 0 ?20 0 21 22 0 0 1 18 10 654 0 23 0 24 7 ?1 17 23 0 25 26 27 1
0 28 21 0 29 -18 24 651 0 20 10 30 18 ?1 17 20 0 31 32 33 24 34 9 0 35 +18 30 63
6 0 36 24 37 38 ?1 29 18 653 0 24 38 7 -45e-5 51e-5 45e-5 29 38 638 0 30 39 18 -
45e-5 46e-5 5e-4 29 39 635 0 37 40 38 45e-5 46e-5 5e-4 18 37 633 0 41 30 42 39 ?
1 29 40 622 0 42 43 39 45e-5 5e-5 5e-4 18 42 620 0 44 37 45 40 ?1 29 43 619 0 45
 46 40 -45e-5 5e-5 5e-4 18 45 617 0 47 42 48 43 ?1 29 46 606 0 48 49 43 -45e-5 0
 45e-5 18 48 604 0 50 45 51 46 ?1 29 49 603 0 51 52 46 45e-5 0 45e-5 18 51 601 0
 53 48 54 49 ?1 29 52 590 0 54 55 49 -45e-5 51e-5 -45e-5 18 54 588 0 34 51 56 52
 ?1 29 55 587 0 56 57 52 45e-5 51e-5 -45e-5 18 56 585 0 28 54 58 55 ?1 29 57 574
 0 58 59 55 45e-5 0 -45e-5 18 58 572 0 60 56 61 57 ?1 29 59 571 0 61 62 57 -45e-
5 0 -45e-5 18 61 569 0 63 58 64 59 ?1 29 62 556 0 64 65 59 -45e-5 5e-5 -5e-4 18
 64 554 0 66 61 67 62 ?1 29 65 553 0 67 68 62 45e-5 5e-5 -5e-4 18 67 551 0 69 64
 70 65 ?1 29 68 550 0 70 71 65 45e-5 46e-5 -5e-4 18 70 548 0 72 67 73 68 ?1 29 7
1 547 0 73 74 68 -45e-5 46e-5 -5e-4 18 73 545 0 75 70 76 71 ?1 29 74 256 0 76 77
 71 -6e-4 0 -45e-5 18 76 254 0 78 73 79 74 ?1 29 77 252 0 79 80 74 -6e-4 0 45e-5
 18 79 250 0 81 76 82 77 ?1 29 80 248 0 82 83 77 6e-4 0 45e-5 18 82 246 0 84 79
 85 80 ?1 29 83 245 0 85 86 80 6e-4 0 -45e-5 18 85 243 0 87 82 88 83 ?1 29 86 23
6 0 88 89 83 -6e-4 51e-5 45e-5 18 88 234 0 90 85 91 86 ?1 29 89 232 0 91 92 86 -
6e-4 51e-5 -45e-5 18 91 230 0 93 88 94 89 ?1 29 92 228 0 94 95 89 6e-4 51e-5 -45
e-5 18 94 226 0 96 91 97 92 ?1 29 95 225 0 97 98 92 6e-4 51e-5 45e-5 18 97 223 0
 26 94 99 95 ?1 29 98 216 0 99 100 95 -6e-4 46e-5 5e-4 18 99 214 0 101 97 102 98
 ?1 29 100 212 0 102 103 98 6e-4 46e-5 5e-4 18 102 210 0 104 99 105 100 ?1 29 10
3 208 0 105 106 100 6e-4 5e-5 5e-4 18 105 206 0 107 102 108 103 ?1 29 106 205 0
 108 109 103 -6e-4 5e-5 5e-4 18 108 203 0 110 105 111 106 ?1 29 109 196 0 111 11
2 106 -65e-5 46e-5 -45e-5 18 111 194 0 113 108 114 109 ?1 29 112 192 0 114 115 1
09 -65e-5 46e-5 45e-5 18 114 190 0 116 111 117 112 ?1 29 115 188 0 117 118 112 -
65e-5 5e-5 45e-5 18 117 186 0 119 114 120 115 ?1 29 118 185 0 120 121 115 -65e-5
 5e-5 -45e-5 18 120 183 0 122 117 123 118 ?1 29 121 176 0 123 124 118 65e-5 46e-
5 -45e-5 18 123 174 0 125 120 126 121 ?1 29 124 172 0 126 127 121 65e-5 46e-5 45
e-5 18 126 170 0 128 123 129 124 ?1 29 127 168 0 129 130 124 65e-5 5e-5 -45e-5 1
8 129 166 0 131 126 132 127 ?1 29 130 165 0 132 133 127 65e-5 5e-5 45e-5 18 132
 163 0 134 129 135 130 ?1 29 133 156 0 135 136 130 6e-4 46e-5 -5e-4 18 135 154 0
 137 132 138 133 ?1 29 136 152 0 138 139 133 -6e-4 46e-5 -5e-4 18 138 150 0 140
 135 141 136 ?1 29 139 148 0 141 142 136 -6e-4 5e-5 -5e-4 18 141 146 0 143 138 1
44 139 ?1 29 142 145 0 144 0 139 6e-4 5e-5 -5e-4 18 144 143 0 145 141 0 142 ?1 1
7 145 0 146 147 148 144 149 150 0 151 +15 146 321 0 125 152 0 17 147 0 146 125 1
45 135 153 154 0 0 -17 148 0 146 145 125 129 155 156 0 149 -17 149 0 157 158 151
 129 145 150 0 0 -16 150 371 0 ?145 159 0 160 0 0 1 17 151 0 157 149 158 144 161
 162 0 163 +15 157 319 0 158 164 0 17 158 0 157 151 149 85 165 166 0 161 +17 161
 0 167 168 163 85 151 162 0 169 -16 162 366 0 ?151 170 166 171 0 0 1 17 163 0 16
7 161 69 144 172 173 0 153 -15 167 313 0 168 174 0 17 69 0 167 163 168 67 175 16
 0 176 +17 172 0 177 178 153 67 163 173 0 0 +16 173 147 0 ?172 179 180 181 182 1
80 1 17 153 0 177 172 137 144 147 154 0 0 +15 177 558 0 178 183 0 17 137 0 177 1
53 178 135 184 185 0 186 +16 154 155 0 ?153 185 179 187 0 0 1 16 185 549 0 ?137
 188 154 189 188 190 1 16 179 151 0 ?140 154 173 191 0 0 1 30 187 157 0 154 191
 189 0 +6e-4 51e-5 -5e-4 0 -1 0 30 191 153 0 179 181 187 0 --6e-4 51e-5 -5e-4 0
 -1 0 30 189 160 0 190 187 192 0 --65e-5 46e-5 -5e-4 -1 0 0 16 190 158 0 ?193 19
4 188 189 185 188 1 30 192 169 0 194 189 195 0 +65e-5 5e-5 -5e-4 0 0 -1 16 194 1
67 0 ?131 196 190 192 0 0 1 30 195 173 0 196 192 197 0 +65e-5 51e-5 45e-5 0 -1 0
 16 196 171 0 ?134 156 194 195 0 0 1 30 197 177 0 156 195 198 0 -65e-5 51e-5 -45
e-5 0 -1 0 16 156 175 0 ?155 199 196 197 0 0 1 30 198 180 0 199 197 200 0 -65e-5
 46e-5 5e-4 0 0 -1 16 199 178 0 ?128 201 156 198 0 0 1 30 200 189 0 201 198 202
 0 +-65e-5 5e-5 5e-4 0 0 1 16 201 187 0 ?119 203 199 200 0 0 1 30 202 193 0 203
 200 204 0 --65e-5 51e-5 45e-5 0 -1 0 16 203 191 0 ?116 205 201 202 0 0 1 30 204
 197 0 205 202 206 0 +-65e-5 51e-5 -45e-5 0 -1 0 16 205 195 0 ?207 208 203 204 0
 0 1 30 206 200 0 208 204 209 0 --65e-5 46e-5 5e-4 0 0 1 16 208 198 0 ?113 210 2
05 206 0 0 1 30 209 209 0 211 206 212 0 +65e-5 5e-5 5e-4 1 0 0 16 211 207 0 ?213
 214 215 209 210 215 1 30 212 213 0 214 209 216 0 -6e-4 51e-5 5e-4 0 -1 0 16 214
 211 0 ?104 217 211 212 0 0 1 30 216 217 0 217 212 218 0 +-6e-4 51e-5 5e-4 0 -1
 0 16 217 215 0 ?219 220 214 216 0 0 1 30 218 220 0 221 216 222 0 --65e-5 46e-5
 5e-4 1 0 0 16 221 218 0 ?223 224 225 218 220 225 1 30 222 229 0 224 218 226 0 +
6e-4 51e-5 -5e-4 0 0 -1 16 224 227 0 ?96 227 221 222 0 0 1 30 226 233 0 228 222
 229 0 +65e-5 51e-5 -45e-5 -1 0 0 16 228 231 0 ?27 230 231 226 227 231 1 30 229
 237 0 230 226 232 0 +-6e-4 51e-5 -5e-4 0 0 1 16 230 235 0 ?90 233 228 229 0 0 1
 30 232 240 0 234 229 235 0 +65e-5 51e-5 45e-5 1 0 0 16 234 238 0 ?236 237 238 2
32 233 238 1 30 235 249 0 237 232 239 0 -6e-4 0 5e-4 0 0 -1 16 237 247 0 ?84 240
 234 235 0 0 1 30 239 253 0 241 235 242 0 --65e-5 0 45e-5 1 0 0 16 241 251 0 ?24
3 244 245 239 240 245 1 30 242 257 0 244 239 246 0 --6e-4 0 -5e-4 0 0 1 16 244 2
55 0 ?78 247 241 242 0 0 1 30 246 260 0 248 242 160 0 -65e-5 0 -45e-5 -1 0 0 16
 248 258 0 ?249 250 251 246 247 251 1 31 160 439 0 150 246 252 0 -6e-4 5e-5 -45e
-5 0 -1 0 0 0 -1 5e-5 31 252 438 0 159 160 253 0 -6e-4 46e-5 -45e-5 0 1 0 0 0 1
 5e-5 16 159 369 0 ?125 166 150 252 0 0 1 31 253 437 0 166 252 171 0 +6e-4 5e-5
 -45e-5 0 0 -1 -1 0 0 5e-5 16 166 367 0 ?158 162 159 253 0 0 1 31 171 436 0 162
 253 254 0 +6e-4 5e-5 -45e-5 1 0 -216840434497101e-29 -216840434497101e-29 0 -1
 5e-5 31 254 435 0 170 171 255 0 +6e-4 46e-5 -45e-5 1 -216840434497101e-29 0 216
840434497101e-29 1 0 5e-5 16 170 365 0 ?256 257 162 254 0 0 1 31 255 434 0 257 2
54 258 0 +6e-4 46e-5 -45e-5 0 0 -1 -1 0 0 5e-5 16 257 364 0 ?259 260 170 255 0 0
 1 31 258 433 0 260 255 261 0 -6e-4 5e-5 45e-5 0 0 1 1 0 0 5e-5 16 260 362 0 ?26
2 263 257 258 0 0 1 31 261 432 0 263 258 264 0 --6e-4 5e-5 -45e-5 -1 0 0 0 0 1 5
e-5 16 263 359 0 ?265 266 260 261 0 0 1 31 264 431 0 266 261 267 0 --6e-4 46e-5
 -45e-5 -1 0 216840434497101e-29 216840434497101e-29 0 1 5e-5 16 266 356 0 ?268
 269 263 264 0 0 1 31 267 430 0 269 264 270 0 -6e-4 46e-5 45e-5 0 0 1 1 0 0 5e-5
 16 269 353 0 ?271 272 266 267 0 0 1 31 270 429 0 272 267 273 0 +6e-4 5e-5 45e-5
 0 -1 0 0 0 -1 5e-5 16 272 351 0 ?274 275 269 270 0 0 1 31 273 428 0 275 270 276
 0 +6e-4 5e-5 45e-5 1 0 0 0 0 -1 5e-5 16 275 350 0 ?277 278 272 273 0 0 1 31 276
 427 0 278 273 279 0 +-6e-4 5e-5 -45e-5 0 0 -1 -1 0 0 5e-5 16 278 349 0 ?122 280
 275 276 0 0 1 31 279 426 0 280 276 281 0 +-6e-4 5e-5 -45e-5 0 -1 0 0 0 -1 5e-5
 16 280 348 0 ?282 283 278 279 0 0 1 31 281 425 0 283 279 284 0 +-6e-4 46e-5 -45
e-5 0 1 0 0 0 1 5e-5 16 283 347 0 ?285 286 280 281 0 0 1 31 284 424 0 286 281 28
7 0 +-6e-4 46e-5 -45e-5 0 0 -1 -1 0 0 5e-5 16 286 346 0 ?288 289 283 284 0 0 1 3
1 287 423 0 289 284 290 0 +6e-4 46e-5 45e-5 1 0 0 0 0 -1 5e-5 16 289 345 0 ?291
 292 286 287 0 0 1 31 290 422 0 292 287 293 0 +6e-4 46e-5 45e-5 0 1 0 0 0 1 5e-5
 16 292 344 0 ?294 295 289 290 0 0 1 31 293 421 0 295 290 296 0 --6e-4 5e-5 45e-
5 -1 0 0 0 0 1 5e-5 16 295 340 0 ?297 298 292 293 0 0 1 31 296 420 0 298 293 299
 0 --6e-4 5e-5 45e-5 0 0 1 1 0 0 5e-5 16 298 337 0 ?300 301 295 296 0 0 1 31 299
 419 0 301 296 302 0 --6e-4 46e-5 45e-5 0 0 1 1 0 0 5e-5 16 301 332 0 ?303 304 2
98 299 0 0 1 31 302 418 0 304 299 305 0 --6e-4 46e-5 45e-5 -1 216840434497101e-2
9 0 -216840434497101e-29 -1 0 5e-5 16 304 329 0 ?306 307 301 302 0 0 1 31 305 41
7 0 307 302 308 0 +-6e-4 5e-5 45e-5 0 -1 0 0 0 -1 5e-5 16 307 327 0 ?309 310 304
 305 0 0 1 31 308 416 0 310 305 311 0 +-6e-4 46e-5 45e-5 0 1 0 0 0 1 5e-5 16 310
 326 0 ?312 182 307 308 0 0 1 30 311 559 0 250 308 313 0 +45e-5 51e-5 -5e-4 0 -1
 0 16 250 557 0 ?176 314 248 311 0 0 1 30 313 565 0 314 311 315 0 +-45e-5 51e-5
 -5e-4 0 1 0 16 314 563 0 ?316 16 250 313 0 0 1 30 315 641 0 317 313 318 0 +45e-
5 51e-5 5e-4 0 1 0 16 317 639 0 ?319 320 321 315 0 0 1 30 318 647 0 320 315 322
 0 +-45e-5 51e-5 5e-4 0 -1 0 16 320 645 0 ?47 323 317 318 0 0 1 31 322 677 0 324
 318 22 0 --45e-5 46e-5 45e-5 1 0 0 0 0 -1 5e-5 16 324 662 0 ?35 21 323 322 0 0
 1 30 22 678 0 9 322 325 0 +-45e-5 51e-5 -5e-4 0 0 1 31 325 679 0 326 22 327 0 -
-45e-5 46e-5 -45e-5 1 0 0 0 0 -1 5e-5 16 326 596 0 ?75 328 329 325 0 0 1 31 327
 680 0 321 325 330 0 --45e-5 5e-5 45e-5 1 0 0 0 0 -1 5e-5 16 321 628 0 ?331 317
 332 327 0 0 1 30 330 681 0 333 327 334 0 +-45e-5 0 -5e-4 0 0 1 16 333 612 0 ?33
5 332 328 330 0 0 1 31 334 682 0 336 330 337 0 --45e-5 5e-5 -45e-5 1 0 0 0 0 -1
 5e-5 16 336 580 0 ?338 329 16 334 0 0 1 31 337 683 0 323 334 339 0 -45e-5 46e-5
 45e-5 -1 0 216840434497101e-30 216840434497101e-30 0 1 5e-5 16 323 657 0 ?41 32
4 320 337 0 0 1 30 339 684 0 21 337 340 0 +45e-5 51e-5 -5e-4 -216840434497101e-3
0 0 -1 16 21 667 0 ?28 9 324 339 0 0 1 31 340 685 0 329 339 341 0 -45e-5 46e-5 -
45e-5 -1 0 216840434497101e-30 216840434497101e-30 0 1 5e-5 16 329 591 0 ?342 32
6 336 340 0 0 1 31 341 686 0 332 340 17 0 -45e-5 5e-5 45e-5 -1 0 216840434497101
e-30 216840434497101e-30 0 1 5e-5 16 332 623 0 ?53 321 333 341 0 0 1 30 17 687 0
 328 341 6 0 +45e-5 0 -5e-4 -216840434497101e-30 0 -1 16 328 607 0 ?60 333 326 1
7 0 0 1 17 60 0 343 87 243 58 344 328 0 175 +15 343 244 0 243 345 0 17 87 0 343
 84 60 85 168 247 0 158 +17 243 0 343 60 84 51 346 241 0 0 +17 344 0 347 348 349
 51 60 328 0 350 -17 175 0 351 352 353 58 69 16 0 168 -15 351 581 0 66 354 0 17
 352 0 351 66 175 61 349 251 0 249 -17 353 0 351 175 66 67 355 180 0 172 -16 16
 575 0 ?69 336 314 6 0 0 1 17 168 0 167 69 161 58 87 247 0 349 -16 247 573 0 ?87
 251 244 246 251 248 1 17 349 0 347 344 63 58 352 251 0 0 +15 347 613 0 63 356 0
 17 63 0 347 349 348 61 335 333 0 338 -16 251 570 0 ?349 248 247 246 248 247 1 1
7 348 0 347 63 344 48 350 245 0 0 +17 335 0 357 81 249 48 63 333 0 358 +17 338 0
 359 360 361 61 66 336 0 352 +15 359 576 0 361 362 0 17 360 0 359 265 338 76 249
 248 0 0 -17 361 0 359 338 265 64 143 182 0 355 -17 66 0 351 353 352 64 338 336
 0 363 -17 363 0 364 143 193 64 316 314 0 361 -15 364 564 0 363 365 0 17 143 0 3
64 140 363 141 361 182 0 366 +17 193 0 364 363 140 73 367 190 0 0 +17 316 0 368
 369 355 73 363 314 0 370 +15 368 144 0 355 371 0 17 369 0 368 176 316 70 370 18
8 0 0 +17 355 0 368 316 176 64 353 180 0 0 +17 370 0 372 373 72 73 369 188 0 193
 -15 372 597 0 373 374 0 17 373 0 372 375 370 54 75 326 0 376 -17 72 0 372 370 3
75 70 342 329 0 178 -16 188 546 0 ?369 190 185 189 190 185 1 17 375 0 372 72 373
 56 33 231 0 27 -17 342 0 377 378 184 56 72 329 0 375 +17 178 0 177 137 172 70 1
76 250 0 184 -17 176 0 368 355 369 67 178 250 0 353 +17 184 0 377 342 186 70 137
 185 0 369 -15 377 311 0 184 379 0 17 186 0 377 184 378 135 256 170 0 380 -17 37
8 0 377 186 342 94 27 228 0 381 -17 256 0 382 259 380 94 186 170 0 0 +17 380 0 3
82 256 259 135 125 159 0 147 -15 382 317 0 256 383 0 17 259 0 382 380 256 123 38
1 257 0 384 +17 125 0 146 148 147 123 380 159 0 259 +17 381 0 385 386 384 94 259
 257 0 256 -17 384 0 385 381 271 123 128 199 0 155 -15 385 309 0 271 387 0 17 27
1 0 385 384 386 126 388 269 0 0 +17 128 0 389 134 155 126 384 199 0 390 +17 155
 0 389 128 131 123 148 156 0 0 +15 389 164 0 155 391 0 17 131 0 389 155 134 129
 392 194 0 165 +17 134 0 389 131 128 132 390 196 0 393 +17 392 0 394 262 165 132
 131 194 0 0 -17 165 0 394 392 169 129 158 166 0 148 -15 394 315 0 262 395 0 17
 169 0 394 165 262 85 84 237 0 0 -17 262 0 394 169 392 82 396 260 0 0 +17 84 0 3
43 243 87 82 169 237 0 346 +17 346 0 397 398 53 82 243 241 0 277 -15 397 295 0 3
99 400 0 17 398 0 397 399 346 105 277 275 0 274 -17 53 0 397 346 399 51 401 332
 0 344 +17 277 0 402 396 274 82 398 275 0 262 +15 402 307 0 274 403 0 17 396 0 4
02 274 277 132 262 260 0 392 -17 274 0 402 277 396 105 393 272 0 0 +17 393 0 404
 390 405 132 274 272 0 396 -15 404 299 0 406 407 0 17 390 0 404 406 393 126 134
 196 0 294 -17 405 0 404 393 406 105 104 214 0 398 -17 406 0 404 405 390 102 294
 292 0 291 -17 104 0 408 223 107 102 405 214 0 409 +15 408 640 0 44 410 0 17 223
 0 408 44 104 37 409 221 0 0 +17 107 0 408 104 44 105 399 210 0 405 +17 409 0 41
1 412 41 102 223 221 0 406 -15 411 285 0 413 414 0 17 412 0 411 413 409 97 291 2
89 0 0 -17 41 0 411 409 413 37 29 323 0 319 +17 413 0 411 41 412 10 26 233 0 32
 -17 29 0 415 416 417 10 41 323 0 413 -17 319 0 418 419 420 37 44 317 0 417 +15
 418 204 0 419 421 0 17 419 0 418 47 319 30 417 225 0 0 +17 420 0 418 319 47 42
 422 215 0 0 +17 44 0 408 107 223 42 319 317 0 401 -17 417 0 415 29 36 37 419 22
5 0 223 -15 415 663 0 36 423 0 17 36 0 415 417 416 30 35 324 0 424 -16 225 634 0
 ?419 221 220 218 221 220 1 16 220 637 0 ?101 225 217 218 225 221 1 17 101 0 425
 219 424 99 426 220 0 427 +15 425 646 0 424 428 0 17 219 0 425 213 101 108 427 2
17 0 0 +17 424 0 425 101 213 30 47 320 0 426 -17 426 0 429 35 306 30 101 220 0 4
19 -17 427 0 430 431 432 99 219 217 0 312 -15 430 277 0 431 14 0 17 431 0 430 43
3 427 114 312 310 0 434 -17 432 0 430 427 433 108 309 307 0 219 -17 312 0 435 43
6 434 99 431 310 0 306 +15 435 281 0 434 437 0 17 436 0 435 434 312 88 306 304 0
 438 -17 434 0 435 312 436 114 303 301 0 439 -17 306 0 429 426 438 99 436 304 0
 0 +15 429 658 0 426 440 0 17 438 0 429 306 35 88 236 234 0 0 -17 35 0 429 438 4
26 24 36 324 0 416 +17 236 0 441 34 90 24 438 234 0 0 +15 441 673 0 34 12 0 17 3
4 0 441 93 236 54 20 9 0 373 -17 90 0 441 236 93 88 442 230 0 303 +17 93 0 441 9
0 34 91 376 227 0 442 +17 442 0 443 444 303 91 90 230 0 288 -17 303 0 443 442 43
9 88 434 301 0 436 +15 443 289 0 303 445 0 17 439 0 443 303 444 114 113 208 0 0
 -17 444 0 443 439 442 111 288 286 0 285 -17 113 0 446 207 116 111 439 208 0 447
 +15 446 184 0 116 448 0 17 207 0 446 119 113 120 447 205 0 0 +17 116 0 446 113
 119 114 433 203 0 431 +17 447 0 449 450 451 111 207 205 0 444 -15 449 291 0 451
 452 0 17 450 0 449 366 447 138 285 283 0 453 -17 451 0 449 447 366 120 282 280
 0 454 -17 366 0 449 451 450 141 140 179 0 282 -17 282 0 455 456 122 141 451 280
 0 265 +17 454 0 457 458 300 120 119 201 0 207 -15 457 293 0 300 459 0 17 458 0
 457 460 454 76 122 278 0 456 -17 300 0 457 454 460 117 461 298 0 0 +17 119 0 44
6 116 207 117 454 201 0 433 +17 433 0 430 432 431 117 116 203 0 309 -17 309 0 46
2 461 463 117 432 307 0 300 +15 462 283 0 463 464 0 17 461 0 462 463 309 79 300
 298 0 460 -17 463 0 462 309 461 108 297 295 0 432 -17 297 0 465 358 110 79 463
 295 0 461 +15 465 624 0 358 466 0 17 358 0 465 331 297 48 81 240 0 348 -17 110
 0 465 297 331 108 213 211 0 463 -17 331 0 465 110 358 45 50 321 0 422 +17 213 0
 425 424 219 45 110 211 0 0 +17 50 0 467 350 422 48 331 321 0 335 -17 422 0 467
 50 401 45 420 215 0 213 -15 467 629 0 50 468 0 17 401 0 467 422 350 42 53 332 0
 399 -16 215 618 0 ?420 211 210 209 211 210 1 16 210 621 0 ?107 215 208 209 215
 211 1 17 350 0 467 401 50 51 348 245 0 243 -17 399 0 397 53 398 42 107 210 0 42
0 -16 245 602 0 ?348 241 240 239 241 240 1 16 240 605 0 ?81 245 237 239 245 241
 1 17 81 0 357 78 335 79 358 240 0 297 +15 357 608 0 249 469 0 17 78 0 357 249 8
1 76 460 244 0 458 +17 249 0 357 335 78 61 360 248 0 0 +17 460 0 457 300 458 79
 78 244 0 0 -14 469 614 470 ?345 400 357 4 471 +345 356 345 400 19 81 1 470 1049
 472 469 473 0 0 474 475 14 345 609 474 ?476 469 343 4 471 +356 469 476 469 19 1
4 400 625 477 ?469 466 397 4 478 +468 466 469 466 19 50 471 65 0 356 479 480 0 +
65e-5 0 -5e-4 0 -1 0 0 0 -1 14 356 43 481 ?14 482 347 4 471 +469 345 14 482 19 1
3 19 29 0 0 0 0 0 0 8 12 14 12 674 483 ?484 0 441 4 479 -484 482 484 0 19 81 1 4
83 1053 472 12 485 0 481 486 487 14 484 669 486 ?440 12 25 4 479 -482 12 440 12
 19 50 479 2 0 482 0 471 0 +65e-5 51e-5 -5e-4 0 -1 0 0 0 -1 14 482 1 488 ?356 42
1 31 4 479 -12 484 356 421 19 81 1 488 1055 472 482 489 0 486 490 491 14 421 79
 490 ?482 448 418 4 480 -428 410 482 448 19 15 31 224 0 33 482 0 17 33 0 31 20 2
8 54 375 231 0 0 +17 28 0 31 33 32 56 23 21 0 342 +16 231 586 0 ?33 228 227 226
 228 227 1 16 227 589 0 ?93 231 224 226 231 228 1 17 32 0 31 28 20 10 416 238 0
 0 +17 416 0 415 36 29 24 32 238 0 236 -16 238 652 0 ?32 234 233 232 234 233 1 1
6 233 655 0 ?26 238 230 232 238 234 1 17 26 0 25 96 23 97 413 233 0 386 +15 25 6
68 0 23 484 0 17 96 0 25 27 26 94 386 224 0 378 +17 386 0 385 271 381 97 96 224
 0 388 -17 388 0 492 291 294 97 271 269 0 412 -15 492 301 0 291 493 0 17 291 0 4
92 294 388 102 412 289 0 0 +17 294 0 492 388 291 126 406 292 0 271 +14 493 300 4
94 ?495 407 492 4 496 +0 0 495 407 19 81 1 494 1057 472 493 497 0 490 498 499 14
 495 302 498 ?500 493 501 4 502 +0 0 500 493 19 14 407 298 503 ?493 468 404 4 50
4 +0 0 493 468 19 53 496 405 0 493 502 504 0 +6e-4 46e-5 45e-5 5e-5 0 0 1 1 0 0
 53 502 406 0 495 505 496 0 +-6e-4 46e-5 -45e-5 5e-5 0 0 1 1 0 0 51 504 404 0 40
7 496 478 0 +6e-4 51e-5 45e-5 0 -1 0 5e-5 0 0 -1 51 478 403 0 468 504 506 0 +-65
e-5 5e-5 45e-5 -1 0 0 5e-5 0 0 1 14 468 294 507 ?407 459 467 4 478 +466 400 407
 459 19 51 506 402 0 459 478 508 0 +-6e-4 5e-5 5e-4 0 0 -1 5e-5 -1 0 0 14 459 29
2 509 ?468 452 457 4 506 +0 0 468 452 19 51 508 401 0 452 506 510 0 +-6e-4 51e-5
 -45e-5 0 -1 0 5e-5 0 0 -1 14 452 290 511 ?459 445 449 4 508 +0 0 459 445 19 51
 510 400 0 445 508 512 0 +-6e-4 46e-5 -5e-4 0 0 1 5e-5 1 0 0 14 445 288 513 ?452
 423 443 4 510 +0 0 452 423 19 51 512 399 0 423 510 514 0 +65e-5 46e-5 45e-5 1 0
 0 5e-5 0 0 -1 14 423 284 515 ?445 464 415 4 512 +440 414 445 464 19 53 514 398
 0 464 512 15 0 +-6e-4 5e-5 45e-5 5e-5 0 0 1 1 0 0 14 464 282 516 ?423 437 462 4
 514 +0 0 423 437 19 53 15 397 0 437 514 5 0 +-6e-4 46e-5 45e-5 5e-5 0 0 1 1 0 0
 14 437 280 517 ?464 14 435 4 15 +0 0 464 14 19 81 1 517 1066 472 437 518 0 516
 519 520 14 14 276 519 ?437 356 430 4 5 +0 0 437 356 19 81 1 519 1067 472 14 521
 0 517 522 523 80 1 472 524 525 9000 1 1 1 1 1 1 1 1 0 FFFFTFTFFFFFFF1 81 1 521
 919 526 14 0 519 527 518 528 81 1 522 1068 472 374 529 0 519 530 531 82 1 523 1
368785029 14 374 310 522 ?354 387 372 4 532 +476 379 354 387 19 81 1 529 933 526
 374 0 522 533 534 535 81 1 530 1069 472 354 534 0 522 536 537 82 1 531 13560710
47 14 354 312 530 ?395 374 351 4 538 +362 174 395 374 19 81 1 534 934 526 354 0
 530 529 539 540 81 1 536 1070 472 371 541 0 530 542 543 82 1 537 1354956935 14
 371 83 536 ?448 391 368 4 544 -365 183 448 391 19 81 1 541 914 526 371 0 536 54
5 546 547 81 1 542 1071 472 448 546 0 536 548 549 82 1 543 1338900615 14 448 81
 542 ?421 371 446 4 550 -0 0 421 371 19 81 1 546 915 526 448 0 542 541 551 552 8
1 1 548 1072 472 391 545 0 542 553 554 82 1 549 1338638469 14 391 85 548 ?371 18
3 389 4 555 -0 0 371 183 19 81 1 545 913 526 391 0 548 556 541 557 81 1 553 1073
 472 183 556 0 548 558 559 82 1 554 1339162757 14 183 560 553 ?391 365 177 4 544
 -371 365 391 365 19 81 1 556 912 526 183 0 553 560 545 561 81 1 558 1074 472 15
2 562 0 553 563 564 82 1 559 1407975559 14 152 320 558 ?0 164 146 4 565 +0 0 0 1
64 19 81 1 562 938 526 152 0 558 566 0 567 81 1 563 1075 472 164 566 0 558 568 5
69 82 1 564 1350500485 14 164 318 563 ?152 383 157 4 570 +0 0 152 383 19 81 1 56
6 937 526 164 0 563 571 562 572 81 1 568 1076 472 383 571 0 563 573 574 82 1 569
 1352073349 14 383 316 568 ?164 395 382 4 575 +0 0 164 395 19 81 1 571 936 526 3
83 0 568 539 566 576 81 1 573 1077 472 395 539 0 568 577 578 82 1 574 1352925317
 14 395 314 573 ?383 354 394 4 579 +0 0 383 354 19 81 1 539 935 526 395 0 573 53
4 571 580 81 1 577 1078 472 387 533 0 573 581 582 82 1 578 1353777285 14 387 308
 577 ?374 403 385 4 583 +0 0 374 403 19 81 1 533 932 526 387 0 577 584 529 585 8
1 1 581 1079 472 403 584 0 577 586 587 82 1 582 1357185157 14 403 306 581 ?387 5
00 402 4 588 +0 0 387 500 19 81 1 584 931 526 403 0 581 589 533 590 81 1 586 108
0 472 500 589 0 581 591 592 82 1 587 1358299269 14 500 304 586 ?403 495 455 4 50
5 +0 0 403 495 19 81 1 589 930 526 500 0 586 593 584 594 81 1 591 1081 472 440 5
95 0 586 596 597 82 1 592 1359085701 14 440 664 591 ?414 484 429 4 512 +414 423
 414 484 19 81 1 595 899 526 440 0 591 598 599 600 81 1 596 1082 472 414 599 0 5
91 601 602 82 1 597 1427505287 14 414 659 596 ?428 440 411 4 512 +423 440 428 44
0 19 81 1 599 900 526 414 0 596 595 603 604 81 1 601 1083 472 428 603 0 596 605
 606 82 1 602 1427046535 14 428 648 601 ?410 414 425 4 480 -410 421 410 414 19 8
1 1 603 901 526 428 0 601 599 607 608 81 1 605 1084 472 410 607 0 601 609 610 82
 1 606 1425932423 14 410 642 605 ?466 428 408 4 480 -421 428 466 428 19 81 1 607
 902 526 410 0 605 603 611 612 81 1 609 1085 472 466 611 0 605 613 614 82 1 610
 1425408135 14 466 630 609 ?400 410 465 4 478 +400 468 400 410 19 81 1 611 903 5
26 466 0 609 607 615 616 81 1 613 1086 472 476 617 0 609 618 619 82 1 614 142331
0983 14 476 598 613 ?379 345 620 4 532 +379 374 379 345 19 81 1 617 907 526 476
 0 613 621 622 623 81 1 618 1087 472 379 622 0 613 624 625 82 1 619 1420165255 1
4 379 593 618 ?362 476 377 4 532 +374 476 362 476 19 81 1 622 908 526 379 0 618
 617 626 627 81 1 624 1088 472 362 626 0 618 628 629 82 1 625 1419706503 14 362
 582 624 ?174 379 359 4 538 +174 354 174 379 19 81 1 626 909 526 362 0 624 622 6
30 631 81 1 628 1089 472 174 630 0 624 632 633 82 1 629 1417674887 14 174 577 62
8 ?365 362 167 4 538 +354 362 365 362 19 81 1 630 910 526 174 0 628 626 560 634
 81 1 632 1090 472 365 560 0 628 0 635 82 1 633 1417216135 14 365 566 632 ?183 1
74 364 4 544 -183 371 183 174 19 81 1 560 911 526 365 0 632 630 556 636 82 1 635
 1408499847 80 1 526 0 637 8001 0 0 0 0 3 5 0 0 0 FFFFTFTFFFFFFF2 83 3 636 .7960
78431372549 .823529411764706 .937254901960784 79 15 637 SDL/TYSA_COLOUR50 544 88
 0 371 550 555 0 +-65e-5 51e-5 -5e-4 0 0 1 1 0 0 50 550 87 0 448 480 544 0 +-65e
-5 51e-5 5e-4 1 0 0 0 0 -1 50 555 89 0 391 544 565 0 +65e-5 51e-5 5e-4 -1 0 0 0
 0 1 51 565 415 0 152 555 570 0 +6e-4 51e-5 -45e-5 0 -1 0 5e-5 0 0 -1 53 570 414
 0 164 565 575 0 +6e-4 5e-5 -45e-5 5e-5 0 0 1 1 0 0 53 575 413 0 383 570 579 0 +
6e-4 46e-5 -45e-5 5e-5 0 0 1 1 0 0 51 579 412 0 395 575 538 0 +6e-4 5e-5 5e-4 0
 0 1 5e-5 1 0 0 51 538 411 0 354 579 532 0 +-65e-5 5e-5 -45e-5 1 0 0 5e-5 0 0 -1
 51 532 410 0 374 538 583 0 +65e-5 46e-5 -45e-5 -1 0 0 5e-5 0 0 1 51 583 409 0 3
87 532 588 0 +6e-4 46e-5 -5e-4 0 0 -1 5e-5 -1 0 0 53 588 408 0 403 583 505 0 +6e
-4 5e-5 45e-5 5e-5 0 0 1 1 0 0 53 505 407 0 500 588 502 0 +-6e-4 5e-5 -45e-5 5e-
5 0 0 1 1 0 0 50 480 86 0 421 471 550 0 +-65e-5 51e-5 5e-4 0 0 -1 -1 0 0 83 3 63
4 .796078431372549 .823529411764706 .937254901960784 83 3 631 .796078431372549 .
823529411764706 .937254901960784 83 3 627 .796078431372549 .823529411764706 .937
254901960784 81 1 621 906 526 345 0 474 473 617 638 83 3 623 .796078431372549 .8
23529411764706 .937254901960784 81 1 474 1050 472 345 621 0 470 477 639 81 1 473
 905 526 469 0 470 615 621 640 83 3 638 .796078431372549 .823529411764706 .93725
4901960784 81 1 615 904 526 400 0 477 611 473 641 83 3 640 .796078431372549 .823
529411764706 .937254901960784 81 1 477 1051 472 400 615 0 474 481 642 83 3 641 .
796078431372549 .823529411764706 .937254901960784 81 1 481 1052 472 356 527 0 47
7 483 643 82 1 642 1422852231 81 1 527 918 526 356 0 481 489 521 644 82 1 643 13
37458823 81 1 489 917 526 482 0 488 551 527 645 83 3 644 .250980392156863 .25098
0392156863 .250980392156863 81 1 551 916 526 421 0 490 546 489 646 83 3 645 .250
980392156863 .250980392156863 .250980392156863 81 1 490 1056 472 421 551 0 488 4
94 647 83 3 646 .250980392156863 .250980392156863 .250980392156863 82 1 647 1338
376327 82 1 639 1421279367 15 620 592 0 376 476 0 17 376 0 620 75 268 54 93 227
 0 33 -17 75 0 620 367 376 73 373 326 0 316 +17 268 0 620 376 367 91 453 266 0 0
 +17 367 0 620 268 75 138 193 190 0 0 -17 453 0 501 285 288 138 268 266 0 367 -1
5 501 303 0 285 495 0 17 285 0 501 288 453 111 450 283 0 0 +17 288 0 501 453 285
 91 444 286 0 268 +83 3 616 .796078431372549 .823529411764706 .937254901960784 8
3 3 612 .796078431372549 .823529411764706 .937254901960784 83 3 608 .79607843137
2549 .823529411764706 .937254901960784 83 3 604 .796078431372549 .82352941176470
6 .937254901960784 81 1 598 898 526 484 0 486 485 595 648 83 3 600 .796078431372
549 .823529411764706 .937254901960784 81 1 486 1054 472 484 598 0 483 488 649 81
 1 485 897 526 12 0 483 0 598 650 83 3 648 .796078431372549 .823529411764706 .93
7254901960784 83 3 650 .796078431372549 .823529411764706 .937254901960784 82 1 6
49 1427964039 81 1 593 929 526 495 0 498 497 589 651 83 3 594 .796078431372549 .
823529411764706 .937254901960784 81 1 498 1058 472 495 593 0 494 503 652 81 1 49
7 928 526 493 0 494 653 593 654 83 3 651 .796078431372549 .823529411764706 .9372
54901960784 81 1 653 927 526 407 0 503 655 497 656 83 3 654 .796078431372549 .82
3529411764706 .937254901960784 81 1 503 1059 472 407 653 0 498 507 657 81 1 655
 926 526 468 0 507 658 653 659 83 3 656 .796078431372549 .823529411764706 .93725
4901960784 81 1 507 1060 472 468 655 0 503 509 660 81 1 658 925 526 459 0 509 66
1 655 662 83 3 659 .250980392156863 .250980392156863 .250980392156863 81 1 509 1
061 472 459 658 0 507 511 663 81 1 661 924 526 452 0 511 664 658 665 83 3 662 .7
96078431372549 .823529411764706 .937254901960784 81 1 511 1062 472 452 661 0 509
 513 666 81 1 664 923 526 445 0 513 667 661 668 83 3 665 .796078431372549 .82352
9411764706 .937254901960784 81 1 513 1063 472 445 664 0 511 515 669 81 1 667 922
 526 423 0 515 670 664 671 83 3 668 .796078431372549 .823529411764706 .937254901
960784 81 1 515 1064 472 423 667 0 513 516 672 81 1 670 921 526 464 0 516 518 66
7 673 83 3 671 .250980392156863 .250980392156863 .250980392156863 81 1 516 1065
 472 464 670 0 515 517 674 81 1 518 920 526 437 0 517 521 670 675 83 3 673 .7960
78431372549 .823529411764706 .937254901960784 83 3 675 .796078431372549 .8235294
11764706 .937254901960784 82 1 674 1367605381 82 1 672 1366491271 82 1 669 13650
49477 82 1 666 1364656261 82 1 663 1363542149 82 1 660 1362428039 82 1 657 13616
41605 82 1 652 1359937669 15 455 305 0 122 500 0 17 122 0 455 282 456 120 458 27
8 0 451 +17 456 0 455 122 282 76 265 263 0 360 -17 265 0 359 361 360 141 456 263
 0 0 +83 3 590 .796078431372549 .823529411764706 .937254901960784 83 3 585 .7960
78431372549 .823529411764706 .937254901960784 83 3 580 .796078431372549 .8235294
11764706 .937254901960784 83 3 576 .796078431372549 .823529411764706 .9372549019
60784 83 3 572 .796078431372549 .823529411764706 .937254901960784 83 3 567 .7960
78431372549 .823529411764706 .937254901960784 83 3 561 .796078431372549 .8235294
11764706 .937254901960784 83 3 557 .796078431372549 .823529411764706 .9372549019
60784 83 3 552 .796078431372549 .823529411764706 .937254901960784 83 3 547 .2509
80392156863 .250980392156863 .250980392156863 83 3 540 .250980392156863 .2509803
92156863 .250980392156863 83 3 535 .250980392156863 .250980392156863 .2509803921
56863 83 3 528 .796078431372549 .823529411764706 .937254901960784 79 14 525 SWEn
tUnchanged82 1 520 1367998597 82 1 499 1360789637 17 27 0 25 23 96 56 378 228 0
 0 +82 1 491 1331822727 82 1 487 1428422791 82 1 475 1421738119 17 140 0 364 193
 143 138 366 179 0 450 +17 47 0 418 420 419 45 424 320 0 331 +16 180 552 0 ?355
 173 182 181 173 182 1 16 182 555 0 ?143 180 310 181 180 173 1 30 181 149 0 173
 0 191 0 +-65e-5 5e-5 -5e-4 -1 0 0 19 13 95 0 1 0 8 4 S74 20 11 2 0 632 562 0 0
 0 0 0 0 0 0 0 0 0 0 0 0 0 0 0 0 1 0 
