**ABCDEFGHIJKLMNOPQRSTUVWXYZabcdefghijklmnopqrstuvwxyz**************************
**PARASOLID !"#$%&'()*+,-./:;<=>?@[\]^_`{|}~0123456789**************************
**PART1;
MC=x86;
MC_MODEL=x86 Family 15 Model 4 Stepping 3, GenuineIntel;
MC_ID=unknown;
OS=Windows_NT;
OS_RELEASE=unknown;
FRU=Parasolid Version 19.1, build 261,  8- 1-2008;
APPL=SolidWorks 2009-2008251;
SITE=;
USER=unknown;
FORMAT=text;
GUISE=transmit;
KEY=67BD3934-AA85-4266-A2BE-065E017242A0;
FILE=67BD3934-AA85-4266-A2BE-065E017242A0.x_t;
DATE=Mon Dec 29 23:06:30 2008;
**PART2;
SCH=SCH_1901261_19008;
USFLD_SIZE=0;
**PART3;
**END_OF_HEADER*****************************************************************
T51 : TRANSMIT FILE created by modeller version 190126117 SCH_1201000_121030 12
 1 657 0 2 3 0 0 0 1e3 1e-8 0 4 0 1 0 1 1 5 6 7 8 9 10 11 70 2 0 1 0 0 4 2 20 4
 12 12 1 T50 3 147 0 1 13 0 0 +-.001 7e-4 -655e-6 1084202172485504e-31 0 1 1 0 -
1084202172485504e-31 13 5 94 0 1 0 14 0 0 15 0 50 6 93 0 16 17 0 0 +-.001 7e-4 -
625e-6 1 0 3469446951953615e-31 3469446951953615e-31 0 -1 30 7 311 0 10 18 0 0 +
5e-4 0 625e-6 0 0 -1 29 8 319 0 11 19 0 5e-4 7e-4 625e-6 19 9 28 0 1 15 0 20 V16
 10 309 0 ?21 0 22 7 0 0 1 18 11 317 0 23 0 24 8 ?1 17 23 0 25 26 27 11 28 29 0
 30 -18 24 314 0 31 11 32 19 ?1 17 31 0 33 34 30 24 35 36 0 37 +18 32 306 0 38 2
4 39 40 ?1 29 19 316 0 24 40 8 5e-4 7e-4 -625e-6 29 40 308 0 32 41 19 5e-4 0 625
e-6 29 41 165 0 39 42 40 -5e-4 7e-4 -625e-6 18 39 163 0 34 32 43 41 ?1 29 42 162
 0 43 44 41 -5e-4 7e-4 625e-6 18 43 160 0 45 39 46 42 ?1 29 44 151 0 46 47 42 -5
e-4 0 -625e-6 18 46 149 0 48 43 49 44 ?1 29 47 281 0 49 50 44 -5e-4 0 625e-6 18
 49 203 0 51 46 52 47 ?1 29 50 283 0 52 53 47 -.001 73e-5 655e-6 18 52 212 0 54
 49 55 50 ?1 29 53 284 0 56 57 50 -5e-4 -3e-5 655e-6 18 56 214 0 58 55 59 53 ?1
 29 57 285 0 55 60 53 -5e-4 73e-5 655e-6 18 55 215 0 61 52 56 57 ?1 29 60 286 0
 59 62 57 -.001 -3e-5 655e-6 18 59 213 0 63 56 64 60 ?1 29 62 287 0 65 66 60 -5e
-4 -3e-5 -655e-6 18 65 211 0 67 68 69 62 ?1 29 66 288 0 68 70 62 -.001 -3e-5 -65
5e-6 18 68 204 0 71 64 65 66 ?1 29 70 289 0 64 72 66 -5e-4 73e-5 -655e-6 18 64 2
08 0 73 59 68 70 ?1 29 72 290 0 69 74 70 -.001 73e-5 -655e-6 18 69 207 0 75 65 7
6 72 ?1 29 74 435 0 76 77 72 5e-4 0 -625e-6 18 76 357 0 78 69 79 74 ?1 29 77 437
 0 79 80 74 5e-4 -299999999999996e-19 655e-6 18 79 366 0 81 76 82 77 ?1 29 80 43
8 0 83 84 77 .001 73e-5 655e-6 18 83 368 0 85 82 86 80 ?1 29 84 439 0 82 87 80 5
e-4 73e-5 655e-6 18 82 369 0 88 79 83 84 ?1 29 87 440 0 86 89 84 .001 -299999999
999995e-19 655e-6 18 86 367 0 90 83 91 87 ?1 29 89 441 0 92 93 87 .001 73e-5 -65
5e-6 18 92 365 0 94 95 96 89 ?1 29 93 442 0 95 97 89 .001 -299999999999995e-19 -
655e-6 18 95 360 0 98 91 92 93 ?1 29 97 443 0 91 99 93 5e-4 73e-5 -655e-6 18 91
 364 0 100 86 95 97 ?1 29 99 444 0 96 0 97 5e-4 -299999999999996e-19 -655e-6 18
 96 361 0 101 92 0 99 ?1 17 101 0 102 103 104 96 105 106 0 107 +15 102 386 0 108
 109 0 17 103 0 102 108 101 95 107 110 0 0 -17 104 0 102 101 108 79 90 111 0 0 +
17 105 0 112 113 114 79 101 106 0 104 -16 106 342 0 ?101 115 116 117 0 0 1 17 10
7 0 118 119 120 96 103 110 0 114 +15 118 401 0 121 122 0 17 119 0 118 121 107 91
 114 123 0 124 +17 120 0 118 107 121 95 125 126 0 103 +16 110 352 0 ?107 126 0 1
27 0 0 1 17 114 0 112 105 100 96 119 123 0 0 -15 112 391 0 105 128 0 17 100 0 11
2 114 113 91 129 115 0 119 +16 123 353 0 ?119 130 131 132 0 0 1 16 130 349 0 ?94
 116 123 133 0 0 1 16 131 350 0 ?121 123 126 134 0 0 1 30 132 425 0 123 134 135
 0 +5e-4 73e-5 -655e-6 0 1 0 30 134 426 0 131 136 132 0 +5e-4 73e-5 -655e-6 1 0
 -1084202172485504e-31 30 135 424 0 111 132 137 0 +5e-4 -299999999999996e-19 655
e-6 -1 -1965116437629975e-31 0 16 111 341 0 ?104 138 139 135 0 0 1 30 137 423 0
 138 135 140 0 +5e-4 73e-5 655e-6 0 1 0 16 138 346 0 ?113 141 111 137 0 0 1 30 1
40 422 0 141 137 133 0 +5e-4 73e-5 655e-6 1 0 0 16 141 348 0 ?142 143 138 140 0
 0 1 30 133 421 0 130 140 144 0 +.001 73e-5 .001594725233243535 0 0 -1 30 144 42
0 0 116 133 117 0 +.001 -299999999999995e-19 .001594725233243535 0 0 -1 16 116 3
40 0 ?98 106 130 144 0 0 1 30 117 419 0 106 144 145 0 +5e-4 -299999999999996e-19
 .001594725233243535 0 0 -1 30 145 418 0 115 117 146 0 +5e-4 73e-5 .001594725233
243535 0 0 -1 16 115 347 0 ?100 139 106 145 0 0 1 30 146 417 0 139 145 147 0 +.0
01 73e-5 655e-6 0 -1 0 16 139 339 0 ?148 111 115 146 0 0 1 30 147 416 0 143 146
 149 0 +5e-4 7e-4 -625e-6 0 1 0 16 143 345 0 ?150 29 141 147 0 0 1 30 149 415 0
 29 147 151 0 +5e-4 7e-4 625e-6 0 -1 0 16 29 343 0 ?28 36 143 149 0 0 1 30 151 4
14 0 36 149 152 0 +5e-4 7e-4 625e-6 0 0 -1 16 36 335 0 ?31 153 29 151 0 0 1 30 1
52 274 0 153 151 154 0 +-.001 73e-5 -655e-6 0 1 0 16 153 198 0 ?155 156 36 152 0
 0 1 30 154 273 0 156 152 157 0 +-5e-4 -3e-5 -655e-6 -1 -474338450462408e-31 108
4202172485504e-31 16 156 197 0 ?158 159 153 154 0 0 1 30 157 272 0 159 154 160 0
 +-5e-4 73e-5 -655e-6 0 -1 0 16 159 196 0 ?161 162 156 157 0 0 1 30 160 271 0 16
2 157 163 0 +-5e-4 73e-5 -655e-6 1 216840434497101e-30 -1084202172485504e-31 16
 162 199 0 ?164 165 159 160 0 0 1 30 163 270 0 166 160 167 0 +-.001 73e-5 655e-6
 0 1 0 16 166 187 0 ?168 169 170 163 0 0 1 30 167 269 0 169 163 171 0 +-5e-4 73e
-5 655e-6 1 216840434497101e-30 0 16 169 189 0 ?172 173 166 167 0 0 1 30 171 268
 0 173 167 174 0 +-5e-4 73e-5 655e-6 0 -1 0 16 173 194 0 ?175 176 169 171 0 0 1
 30 174 267 0 165 171 177 0 +-5e-4 -3e-5 .001594725233243535 0 0 -1 16 165 195 0
 ?67 178 162 174 0 0 1 30 177 266 0 178 174 179 0 +-.001 -3e-5 .0015947252332435
35 0 0 -1 16 178 183 0 ?71 180 165 177 0 0 1 30 179 265 0 180 177 181 0 +-.001 7
3e-5 .001594725233243535 0 0 -1 16 180 188 0 ?75 182 178 179 0 0 1 30 181 264 0
 182 179 183 0 +-5e-4 73e-5 .001594725233243535 0 0 -1 16 182 190 0 ?73 170 180
 181 0 0 1 30 183 263 0 170 181 184 0 +-5e-4 -3e-5 655e-6 -1 -474338450462408e-3
1 0 16 170 182 0 ?185 166 182 183 0 0 1 30 184 262 0 176 183 186 0 +-5e-4 7e-4 -
625e-6 0 -1 0 16 176 191 0 ?187 188 173 184 0 0 1 30 186 261 0 188 184 189 0 +-5
e-4 7e-4 625e-6 0 1 0 16 188 193 0 ?190 191 176 186 0 0 1 30 189 260 0 191 186 1
92 0 +-5e-4 7e-4 625e-6 0 0 1 16 191 181 0 ?45 193 188 189 0 0 1 30 192 8 0 194
 189 195 0 +-.001 7e-4 625e-6 1 0 0 16 194 161 0 ?30 196 197 192 0 0 1 30 195 14
 0 196 192 198 0 +-.001 7e-4 -625e-6 -1 0 1084202172485504e-31 16 196 315 0 ?34
 22 194 195 0 0 1 30 198 68 0 193 195 199 0 +-.001 0 625e-6 1 0 0 16 193 153 0 ?
27 197 191 198 0 0 1 30 199 66 0 197 198 18 0 +-.001 0 -625e-6 -1 0 108420217248
5504e-31 16 197 304 0 ?48 194 193 199 0 0 1 30 18 157 0 22 199 7 0 +-5e-4 0 625e
-6 0 0 1 16 22 155 0 ?200 10 196 18 0 0 1 17 200 0 201 190 187 49 202 22 0 0 +15
 201 240 0 203 204 205 17 190 0 201 203 200 43 206 188 0 0 +17 187 0 201 200 203
 46 207 176 0 0 +17 202 0 208 78 51 46 200 22 0 187 -15 208 310 0 38 209 0 17 78
 0 208 38 202 76 48 197 0 210 -17 51 0 208 202 38 49 27 193 0 206 -17 38 0 208 5
1 78 32 21 10 0 27 -17 27 0 25 23 206 32 51 193 0 28 +17 206 0 25 27 26 49 190 1
88 0 200 -15 25 329 0 23 14 0 17 26 0 25 206 23 43 30 194 0 190 -17 30 0 33 31 4
5 11 26 194 0 35 +15 33 3 0 30 211 0 17 45 0 33 30 34 43 203 191 0 26 +17 35 0 2
12 28 150 11 31 36 0 0 -15 212 390 0 35 128 112 17 28 0 212 21 35 32 23 29 0 0 +
17 150 0 212 35 21 24 210 143 0 0 +17 21 0 212 150 28 76 38 10 0 0 +17 210 0 213
 48 37 76 150 143 0 21 -15 213 325 0 210 214 0 17 48 0 213 207 210 46 78 197 0 2
02 +17 37 0 213 210 207 24 34 196 0 150 -17 207 0 213 37 48 39 187 176 0 203 -17
 34 0 33 45 31 39 37 196 0 207 +17 203 0 201 187 190 39 45 191 0 0 -14 214 326 2
15 ?211 14 213 5 216 -0 0 211 14 20 81 1 215 642 217 214 218 0 0 219 220 14 211
 322 219 ?209 214 33 5 221 +0 0 209 214 20 14 14 330 222 ?214 0 25 5 17 -0 0 214
 0 20 50 216 90 0 214 223 224 0 +-.001 7e-4 -625e-6 1084202172485504e-31 0 1 1 0
 -1084202172485504e-31 13 20 29 0 0 0 0 0 0 9 14 50 223 65 0 209 221 216 0 +-.00
1 0 625e-6 0 1 0 0 0 1 50 224 91 0 225 216 17 0 +.001 7e-4 -625e-6 -1 0 34694469
51953615e-31 3469446951953615e-31 0 1 14 225 81 226 ?0 122 227 5 224 -0 0 0 122
 20 50 17 92 0 14 224 6 0 +-.001 7e-4 625e-6 0 0 -1 -1 0 0 81 1 226 645 217 225
 228 0 222 229 230 14 122 399 229 ?225 231 118 5 232 -0 0 225 231 20 15 227 382
 0 233 225 0 17 233 0 227 148 125 83 94 130 0 0 -17 148 0 227 98 233 86 85 139 0
 0 +17 125 0 227 233 98 92 120 126 0 0 -17 94 0 234 124 142 92 233 130 0 121 +15
 234 395 0 129 235 0 17 124 0 234 129 94 91 121 131 0 0 -17 142 0 234 94 129 83
 88 141 0 233 +17 121 0 118 120 119 92 124 131 0 125 +17 129 0 234 142 124 82 10
0 115 0 113 -17 88 0 236 81 85 82 142 141 0 129 -15 236 398 0 81 231 0 17 81 0 2
36 90 88 79 113 138 0 105 -17 85 0 236 88 90 83 148 139 0 142 -17 90 0 236 85 81
 86 104 111 0 108 -17 108 0 102 104 103 86 98 116 0 148 -17 98 0 227 125 148 95
 108 116 0 120 +17 113 0 112 100 105 82 81 138 0 0 +14 231 396 237 ?122 235 236
 5 238 -0 0 122 235 20 81 1 237 647 217 231 239 0 229 240 241 14 235 392 240 ?23
1 128 234 5 242 -0 0 231 128 20 50 238 408 0 231 232 243 0 +-.001 7e-4 655e-6 0
 0 -1 -1 0 0 50 232 409 0 122 0 238 0 +-.001 7e-4 -655e-6 1084202172485504e-31 0
 1 1 0 -1084202172485504e-31 50 243 406 0 109 238 244 0 +5e-4 -299999999999996e-
19 .001594725233243535 -1965116437629975e-31 1 0 -1 -1965116437629975e-31 0 14 1
09 383 245 ?128 16 102 5 243 -0 0 128 16 20 50 244 405 0 128 243 242 0 +5e-4 73e
-5 .001594725233243535 1 0 0 0 0 -1 14 128 387 246 ?235 109 212 5 244 -0 0 235 1
09 20 50 242 404 0 235 244 247 0 +5e-4 73e-5 .001594725233243535 0 -1 0 0 0 -1 5
0 247 255 0 248 242 249 0 +-.001 7e-4 -655e-6 1084202172485504e-31 0 1 1 0 -1084
202172485504e-31 14 248 245 250 ?16 251 252 5 247 -0 0 16 251 20 50 249 254 0 25
1 247 253 0 +-.001 7e-4 655e-6 0 0 -1 -1 0 0 14 251 242 254 ?248 204 255 5 249 -
0 0 248 204 20 50 253 253 0 256 249 257 0 +-5e-4 -3e-5 .001594725233243535 -4743
38450462408e-31 1 0 -1 -474338450462408e-31 0 14 256 224 258 ?259 209 260 5 253
 -0 0 259 209 20 50 257 251 0 259 253 261 0 +-5e-4 73e-5 .001594725233243535 216
840434497101e-30 -1 0 1 216840434497101e-30 0 14 259 233 262 ?204 256 263 5 257
 -0 0 204 256 20 50 261 250 0 204 257 221 0 +-5e-4 73e-5 .001594725233243535 -1
 0 0 0 0 1 14 204 237 264 ?251 259 201 5 261 -0 0 251 259 20 50 221 2 0 211 261
 223 0 +-.001 7e-4 625e-6 0 1 0 0 0 1 81 1 264 655 217 204 265 0 262 266 267 80
 1 217 268 269 9000 1 1 1 1 1 1 1 1 0 FFFFTFTFFFFFFF1 81 1 265 600 270 204 0 264
 271 272 273 81 1 262 654 217 259 271 0 258 264 274 81 1 266 656 217 16 275 0 26
4 276 277 82 1 267 1958871206 14 16 85 266 ?109 248 278 5 6 -0 0 109 248 20 81 1
 275 603 270 16 0 266 279 280 281 81 1 276 657 217 209 282 0 266 0 283 82 1 277
 1904869542 14 209 312 276 ?256 211 208 5 223 -0 0 256 211 20 81 1 282 597 270 2
09 0 276 284 285 286 82 1 283 2107048102 80 1 270 0 287 8001 0 0 0 0 3 5 0 0 0 F
FFFTFTFFFFFFF2 81 1 284 596 270 211 0 219 218 282 288 81 1 285 598 270 256 0 258
 282 271 289 83 3 286 .752941176470588 .752941176470588 .752941176470588 81 1 25
8 653 217 256 285 0 254 262 290 81 1 271 599 270 259 0 262 285 265 291 83 3 289
 .250980392156863 .250980392156863 .250980392156863 83 3 291 .250980392156863 .2
50980392156863 .250980392156863 81 1 254 652 217 251 272 0 250 258 292 82 1 290
 1963983014 81 1 272 601 270 251 0 254 265 279 293 81 1 250 651 217 248 279 0 24
6 254 294 82 1 292 1973420198 81 1 279 602 270 248 0 250 272 275 295 81 1 246 65
0 217 128 296 0 245 250 297 82 1 294 2044461222 81 1 296 605 270 128 0 246 280 2
98 299 81 1 245 649 217 109 280 0 240 246 300 82 1 297 1984102566 81 1 280 604 2
70 109 0 245 275 296 301 81 1 240 648 217 235 298 0 237 245 302 82 1 300 1984299
174 81 1 298 606 270 235 0 240 296 239 303 82 1 302 1980498086 81 1 239 607 270
 231 0 237 298 304 305 83 3 303 .250980392156863 .250980392156863 .2509803921568
63 81 1 304 608 270 122 0 229 239 228 306 83 3 305 .250980392156863 .25098039215
6863 .250980392156863 81 1 229 646 217 122 304 0 226 237 307 81 1 228 609 270 22
5 0 226 304 0 308 83 3 306 .250980392156863 .250980392156863 .250980392156863 83
 3 308 .250980392156863 .250980392156863 .250980392156863 82 1 307 2066088102 83
 3 301 .250980392156863 .250980392156863 .250980392156863 83 3 299 .250980392156
863 .250980392156863 .250980392156863 83 3 295 .250980392156863 .250980392156863
 .250980392156863 83 3 293 .250980392156863 .250980392156863 .250980392156863 81
 1 219 643 217 211 284 0 215 222 309 81 1 218 595 270 214 0 215 310 284 311 83 3
 288 .752941176470588 .752941176470588 .752941176470588 81 1 310 594 270 14 0 22
2 0 218 312 83 3 311 .752941176470588 .752941176470588 .752941176470588 81 1 222
 644 217 14 310 0 219 226 313 83 3 312 .752941176470588 .752941176470588 .752941
176470588 82 1 313 2112618662 82 1 309 2111832230 79 15 287 SDL/TYSA_COLOUR83 3
 281 .250980392156863 .250980392156863 .250980392156863 15 278 232 0 314 16 0 17
 314 0 278 168 315 59 71 178 0 185 -17 168 0 278 75 314 52 63 166 0 0 +17 315 0
 278 314 75 68 155 153 0 0 -17 71 0 260 316 185 68 314 178 0 158 +17 185 0 260 7
1 317 59 58 170 0 0 +15 260 227 0 317 256 0 17 317 0 260 185 316 56 67 165 0 0 -
17 58 0 255 61 63 56 185 170 0 175 -15 255 244 0 54 251 0 17 61 0 255 54 58 55 1
75 173 0 318 -17 63 0 255 58 54 59 168 166 0 314 -17 175 0 205 67 318 56 61 173
 0 317 +15 205 241 0 318 204 0 17 67 0 205 319 175 65 317 165 0 161 +17 318 0 20
5 175 319 55 73 182 0 172 -17 319 0 205 318 67 64 161 159 0 0 -17 73 0 263 320 1
72 64 318 182 0 164 +17 172 0 263 73 321 55 54 169 0 0 +15 263 236 0 321 259 0 1
7 321 0 263 172 320 52 75 180 0 168 -17 54 0 255 63 61 52 172 169 0 321 -17 320
 0 263 321 73 69 164 162 0 0 -17 75 0 278 315 168 69 321 180 0 155 +17 155 0 252
 164 158 69 315 153 0 320 +15 252 247 0 161 248 0 17 164 0 252 161 155 64 320 16
2 0 319 +17 158 0 252 155 161 68 316 156 0 315 +17 161 0 252 158 164 65 319 159
 0 316 +17 316 0 260 317 71 65 158 156 0 0 -82 1 274 1962475686 83 3 273 .250980
392156863 .250980392156863 .250980392156863 79 14 269 SWEntUnchanged82 1 241 199
5047078 16 126 351 0 ?120 131 110 136 0 0 1 30 136 427 0 126 127 134 0 +.001 73e
-5 -655e-6 0 -1 0 30 127 428 0 110 0 136 0 +5e-4 -299999999999996e-19 -655e-6 -1
 -1965116437629975e-31 1084202172485504e-31 82 1 230 1904345254 82 1 220 2112225
446 19 15 95 0 1 0 9 5 S50 13 144 0 1 322 3 0 +-.001 7e-4 655e-6 0 0 -1 -1 0 0 5
0 322 141 0 1 323 13 0 +-.001 7e-4 -655e-6 1084202172485504e-31 0 1 1 0 -1084202
172485504e-31 50 323 139 0 1 324 322 0 +-.001 7e-4 -655e-6 1084202172485504e-31
 0 1 1 0 -1084202172485504e-31 50 324 137 0 1 325 323 0 +-.001 7e-4 -655e-6 1084
202172485504e-31 0 1 1 0 -1084202172485504e-31 50 325 136 0 1 326 324 0 +-.001 7
e-4 -655e-6 1084202172485504e-31 0 1 1 0 -1084202172485504e-31 50 326 134 0 1 32
7 325 0 +-.001 7e-4 655e-6 0 0 -1 -1 0 0 50 327 132 0 1 328 326 0 +-.001 7e-4 65
5e-6 0 0 -1 -1 0 0 50 328 130 0 1 329 327 0 +-.001 7e-4 655e-6 0 0 -1 -1 0 0 50
 329 129 0 1 0 328 0 +-.001 7e-4 655e-6 0 0 -1 -1 0 0 74 20 12 2 0 276 228 0 0 0
 0 0 0 0 0 0 0 0 0 0 0 0 0 0 0 1 0 
