**ABCDEFGHIJKLMNOPQRSTUVWXYZabcdefghijklmnopqrstuvwxyz**************************
**PARASOLID !"#$%&'()*+,-./:;<=>?@[\]^_`{|}~0123456789**************************
**PART1;
MC=AMD64;
MC_MODEL=Intel64 Family 6 Model 37 Stepping 1, GenuineIntel;
MC_ID=unknown;
OS=Windows_NT;
OS_RELEASE=unknown;
FRU=Parasolid Version 28.0, build 174,  7- 3-2015;
APPL=SOLIDWORKS 2016-2015258;
SITE=;
USER=unknown;
FORMAT=text;
GUISE=transmit;
KEY=39019B87-48AF-4663-8617-BF8CFEB95DC1;
FILE=39019B87-48AF-4663-8617-BF8CFEB95DC1.x_t;
DATE=Wed Dec 23 06:56:49 2015;
**PART2;
SCH=SCH_2800174_28002;
USFLD_SIZE=0;
**PART3;
**END_OF_HEADER*****************************************************************
T51 : TRANSMIT FILE created by modeller version 280017417 SCH_1201000_121030 12
 1 2090 2 3 0 0 0 0 1e3 1e-8 0 4 0 1 0 1 1 5 6 7 8 9 10 11 81 1 2 1909 12 1 0 0
 13 0 14 70 3 0 1 0 0 4 3 20 8 15 15 1 T13 5 1594 0 1 0 16 0 0 17 0 50 6 1531 0
 16 18 0 0 +0 8e-4 0 1 0 0 0 0 -1 31 7 1670 0 19 20 0 0 +.0026 25e-6 -2500000000
00005e-19 -1 -1228197773518736e-31 42351647362715e-31 1228197773518736e-31 -1 0
 1e-5 29 8 1672 0 21 22 0 .0026 25e-6 -150000000000005e-19 19 9 1595 0 1 17 0 23
 V16 10 21 0 ?24 0 25 26 0 0 1 18 11 17 0 27 0 28 29 ?1 17 27 0 30 24 31 11 32 3
3 0 34 -18 28 13 0 35 11 36 37 ?1 29 29 1613 0 11 38 39 .0026 785e-6 -.001575 29
 38 1610 0 40 41 29 .0026 8e-4 -.00159 29 39 1614 0 42 29 43 .0026 775e-6 -.0015
85 18 42 78 0 31 44 45 39 ?1 29 43 1617 0 45 39 46 .0026 775e-6 -150000000000004
5e-20 18 45 81 0 47 42 48 43 ?1 29 46 1618 0 49 43 50 .0026 785e-6 -250000000000
005e-19 18 49 6 0 51 36 52 46 ?1 29 50 1621 0 48 46 37 6e-4 775e-6 -.001585 18 4
8 150 0 53 45 54 50 ?1 29 37 1622 0 28 50 55 6e-4 785e-6 -.001575 29 55 1625 0 3
6 37 56 6e-4 785e-6 -250000000000005e-19 18 36 8 0 57 28 49 55 ?1 29 56 1626 0 5
8 55 59 6e-4 775e-6 -1500000000000045e-20 18 58 195 0 60 54 61 56 ?1 29 59 1629
 0 61 56 62 .000599999999999983 271050543121376e-34 -.00159 18 61 199 0 63 58 64
 59 ?1 29 62 1632 0 65 59 66 6e-4 8e-4 -.00159 18 65 202 0 67 68 69 62 ?1 29 66
 1633 0 68 62 70 6e-4 79e-5 -.0016 18 68 201 0 71 64 65 66 ?1 29 70 1636 0 72 66
 73 6e-4 79e-5 -135525271560688e-34 18 72 204 0 74 69 75 70 ?1 29 73 1637 0 69 7
0 76 6e-4 8e-4 -1e-5 18 69 203 0 77 65 72 73 ?1 29 76 1640 0 78 73 79 .000599999
999999992 813151629364128e-34 -1e-5 18 78 206 0 80 75 81 76 ?1 29 79 1643 0 52 7
6 82 .0026 1000000000000014e-20 -.0016 18 52 66 0 83 49 84 79 ?1 29 82 1644 0 81
 79 85 .00319 1000000000000014e-20 -.0016 18 81 295 0 86 78 87 82 ?1 29 85 1647
 0 88 82 89 .00319 100000000000016e-19 42351647362715e-35 18 88 384 0 90 91 92 8
5 ?1 29 89 1648 0 93 85 94 .0026 1e-5 0 18 93 69 0 95 96 97 89 ?1 29 94 1651 0 9
8 89 99 1e-5 1e-5 -.0016 18 98 619 0 100 101 102 94 ?1 29 99 1652 0 64 94 103 .0
00599999999999983 1e-5 -.0016 18 64 200 0 104 61 68 99 ?1 29 103 1655 0 75 99 10
5 .000599999999999992 1000000000000014e-20 0 18 75 205 0 106 72 78 103 ?1 29 105
 1656 0 107 103 108 1e-5 1000000000000014e-20 0 18 107 768 0 109 110 111 105 ?1
 29 108 1659 0 112 105 113 .0026 25e-6 -.001585 18 112 549 0 114 115 116 108 ?1
 29 113 1660 0 117 108 118 .0026 15e-6 -.001575 18 117 1109 0 119 120 121 113 ?1
 29 118 1663 0 121 113 122 6e-4 15e-6 -.001575 18 121 1112 0 123 117 124 118 ?1
 29 122 1664 0 54 118 125 .000599999999999992 25e-6 -.001585 18 54 191 0 126 48
 58 122 ?1 29 125 1667 0 111 122 127 6e-4 25e-6 -1500000000000045e-20 18 111 828
 0 128 107 21 125 ?1 29 127 1668 0 129 125 22 6e-4 15e-6 -250000000000005e-19 18
 129 1396 0 130 131 132 127 ?1 29 22 1671 0 132 127 8 .0026 15e-6 -2500000000000
05e-19 18 132 1399 0 133 129 0 22 ?1 17 133 0 134 135 136 132 137 138 0 139 -15
 134 1481 0 136 140 0 17 135 0 134 123 133 129 139 141 0 0 -17 136 0 134 133 123
 117 142 143 0 0 -17 137 0 30 114 144 117 133 138 0 136 +16 138 1484 0 ?137 145
 0 146 0 0 1 17 139 0 147 148 130 132 135 141 0 144 +15 147 1391 0 130 149 0 17
 148 0 147 150 139 21 144 19 0 151 +17 130 0 147 139 150 129 128 152 0 153 +16 1
41 1392 0 ?139 154 152 155 0 0 1 17 144 0 30 137 156 132 148 19 0 0 -15 30 49 0
 144 157 0 17 156 0 30 144 158 21 47 159 0 0 +16 19 1395 0 ?148 152 160 7 0 0 1
 16 152 1393 0 ?130 141 19 20 0 0 1 16 160 1434 0 ?161 19 145 162 0 0 1 17 161 0
 163 86 164 165 166 160 0 167 +16 145 1482 0 ?153 160 138 168 0 0 1 133 162 1450
 0 160 169 170 0 +170 .0032 79e-5 -.00159 .0032 1e-5 -.00159 -1e-5 -79e-5 30 169
 1426 0 1 171 162 172 +.0032 1e-5 0 0 0 1 30 170 1451 0 1 162 173 174 -.0032 8e-
4 -.00159 0 1 0 133 173 1460 0 175 170 176 0 +176 .0032 1e-5 -1e-5 .0032 79e-5 -
1e-5 79e-5 1e-5 141 174 162 174 174 170 16 175 983 0 ?177 178 179 173 0 0 1 30 1
76 1461 0 1 173 180 181 -.0032 8e-4 -1e-5 0 -1 0 133 180 1470 0 182 176 183 0 +1
83 .0032 79e-5 -1e-5 .0032 79e-5 -.00159 -.00159 -1e-5 141 181 173 181 181 176 1
6 182 1048 0 ?184 185 143 180 0 0 1 30 183 1471 0 1 180 146 186 +.0032 79e-5 -.0
016 0 0 -1 30 146 1503 0 138 183 187 0 -.0026 15e-6 -.0016 0 0 1 141 186 180 186
 186 183 30 187 1505 0 143 146 168 0 -6e-4 15e-6 -.001575 1 1228197773518736e-31
 0 16 143 1105 0 ?142 182 188 187 0 0 1 30 168 1512 0 145 187 189 0 +6e-4 15e-6
 -.0016 0 0 1 133 189 1517 0 190 168 191 0 +191 0 1e-5 -1e-5 0 1e-5 -.00159 1e-5
 .00159 16 190 1142 0 ?192 193 194 189 0 0 1 30 191 1518 0 1 189 195 196 +0 1e-5
 0 0 0 -1 133 195 1550 0 197 191 198 0 +198 -25410988417629e-33 1e-5 -.00159 -25
410988417629e-33 79e-5 -.00159 79e-5 1e-5 141 196 189 196 196 191 16 197 1202 0
 ?199 200 201 195 0 0 1 30 198 1551 0 1 195 202 203 --25410988417629e-33 8e-4 -.
00159 0 -1 0 133 202 1560 0 204 198 205 0 +205 0 79e-5 -.00159 0 79e-5 -1e-5 1e-
5 .00159 141 203 195 203 203 198 16 204 1265 0 ?206 207 208 202 0 0 1 30 205 156
1 0 1 202 209 210 +0 79e-5 -.0016 0 0 1 133 209 1568 0 154 205 211 0 +211 0 79e-
5 -1e-5 0 1e-5 -1e-5 1e-5 79e-5 141 210 202 210 210 205 16 154 1330 0 ?212 213 1
41 209 0 0 1 30 211 1569 0 1 209 155 214 +0 8e-4 -1e-5 0 -1 0 30 155 1580 0 141
 211 215 0 -6e-4 15e-6 -250000000000005e-19 -1 -1228197773518736e-31 42351647362
715e-31 141 214 209 214 214 211 31 215 1598 0 216 155 217 0 +.0026 1e-5 -.00159
 1 0 0 0 0 -1 1e-5 16 216 51 0 ?218 219 220 215 0 0 1 31 217 1601 0 221 215 222
 0 -.0026 1e-5 -1e-5 -1 0 0 0 0 1 1e-5 16 221 53 0 ?223 220 224 217 0 0 1 31 222
 1604 0 225 217 226 0 +.0026 79e-5 -1e-5 1 0 0 0 0 -1 1e-5 16 225 55 0 ?227 224
 228 222 0 0 1 31 226 1608 0 229 222 230 0 -.0026 79e-5 -.00159 -1 0 0 0 0 1 1e-
5 16 229 57 0 ?231 228 33 226 0 0 1 31 230 1612 0 33 226 232 0 -.0026 775e-6 -.0
01575 1 1084202172485504e-31 0 -1084202172485504e-31 1 0 1e-5 16 33 63 0 ?32 229
 233 230 0 0 1 31 232 1616 0 233 230 234 0 +.0026 775e-6 -250000000000005e-19 -1
 -1084202172485504e-31 42351647362715e-31 1084202172485504e-31 -1 0 1e-5 16 233
 65 0 ?235 33 236 232 0 0 1 31 234 1620 0 237 232 238 0 +6e-4 775e-6 -.001575 1
 1084202172485504e-31 0 -1084202172485504e-31 1 0 1e-5 16 237 146 0 ?35 236 239
 234 0 0 1 31 238 1624 0 240 234 241 0 -6e-4 775e-6 -2500000000000045e-20 -1 -10
84202172485504e-31 42351647362715e-31 1084202172485504e-31 -1 0 1e-5 16 240 180
 0 ?242 239 243 238 0 0 1 31 241 1628 0 244 238 245 0 -.000599999999999983 1e-5
 -.00159 1 0 0 0 0 -1 1e-5 16 244 184 0 ?246 243 247 241 0 0 1 31 245 1631 0 248
 241 249 0 +6e-4 79e-5 -.00159 -1 0 0 0 0 1 1e-5 16 248 186 0 ?250 247 251 245 0
 0 1 31 249 1635 0 252 245 253 0 -6e-4 79e-5 -1e-5 1 0 0 0 0 -1 1e-5 16 252 188
 0 ?254 251 255 249 0 0 1 31 253 1639 0 256 249 257 0 +6e-4 1e-5 -1e-5 -1 0 0 0
 0 1 1e-5 16 256 190 0 ?258 255 259 253 0 0 1 30 257 1642 0 260 253 261 0 +0 100
0000000000024e-20 -.0016 1 0 0 16 260 292 0 ?262 263 264 257 0 0 1 30 261 1646 0
 265 257 266 0 +0 1e-5 0 -1 0 0 16 265 380 0 ?95 267 268 261 0 0 1 30 266 1650 0
 269 261 270 0 +0 1e-5 -.0016 1 0 0 16 269 615 0 ?104 271 272 266 0 0 1 30 270 1
654 0 273 266 274 0 +0 1000000000000024e-20 0 -1 0 0 16 273 765 0 ?275 276 277 2
70 0 0 1 31 274 1658 0 188 270 278 0 -.0026 25e-6 -.001575 1 1228197773518736e-3
1 0 -1228197773518736e-31 1 0 1e-5 16 188 1106 0 ?119 143 279 274 0 0 1 31 278 1
662 0 279 274 20 0 +6e-4 25e-6 -.001575 1 1228197773518736e-31 0 -12281977735187
36e-31 1 0 1e-5 16 279 1108 0 ?126 188 193 278 0 0 1 31 20 1666 0 152 278 7 0 -6
e-4 25e-6 -250000000000005e-19 -1 -1228197773518736e-31 42351647362715e-31 12281
97773518736e-31 -1 0 1e-5 17 126 0 280 281 142 54 282 279 0 283 +16 193 1141 0 ?
284 279 190 285 0 0 1 17 284 0 286 287 192 116 288 193 0 289 +133 285 1161 0 193
 290 291 0 +291 0 1e-5 -.00159 1e-5 25410988417629e-33 -.00159 0 -1.570796326794
895 31 290 1158 0 1 292 285 293 +1e-5 1e-5 -1e-5 0 0 -1 -1 0 0 1e-5 31 291 1162
 0 1 285 294 295 -1e-5 1e-5 -.00159 0 0 -1 -1 0 0 1e-5 133 294 1168 0 296 291 29
7 0 +297 1e-5 79e-5 -.0016 1e-5 1e-5 -.0016 -1e-5 -79e-5 141 295 285 295 295 291
 16 296 648 0 ?298 272 299 294 0 0 1 30 297 1169 0 1 294 300 301 -1e-5 8e-4 -.00
16 0 1 0 31 300 1186 0 1 297 302 303 +1e-5 1e-5 -.00159 0 1 0 1 0 0 1e-5 141 301
 294 301 301 297 133 302 1194 0 200 300 304 0 +304 0 1e-5 -.00159 1e-5 1e-5 -.00
16 3.14159265358977 1.570796326794895 141 303 305 303 303 300 68 305 1182 0 306
 307 308 0 +300 1e-5 1e-5 -.00159 1 0 0 2e-5 1e-5 -.00159 16940658945086e-34 1e-
5 -.00159 0 3.141592653589795 0 0 -1 ?14 306 1173 309 1e-8 310 311 312 5 305 +0
 0 311 310 23 51 307 1148 0 310 313 305 0 +1e-5 1e-5 0 0 0 -1 1e-5 -1 0 0 51 308
 1210 0 311 305 314 0 +1e-5 8e-4 -.00159 0 -1 0 1e-5 0 0 -1 14 311 1199 315 1e-8
 306 316 317 5 308 +0 0 316 306 23 68 314 1245 0 316 308 318 0 +319 1e-5 79e-5 -
.00159 1 0 0 2e-5 79e-5 -.00159 16940658945086e-34 79e-5 -.00159 0 3.14159265358
9795 0 0 -1 ?14 316 1236 320 1e-8 311 321 322 5 314 +0 0 321 311 23 51 318 1273
 0 321 314 323 0 +1e-5 79e-5 -.0016 0 0 1 1e-5 1 0 0 31 319 1249 0 1 324 325 326
 +1e-5 79e-5 -.00159 0 1 0 1 0 0 1e-5 30 324 1234 0 1 327 319 328 +1e-5 8e-4 -.0
016 0 0 -1 133 325 1257 0 207 319 329 0 +329 0 79e-5 -.00159 1e-5 8e-4 -.0015899
99999999975 3.141592653589805 1.570796326794895 141 326 314 326 326 319 16 207 1
241 0 ?330 201 204 325 0 0 1 31 329 1258 0 1 325 331 332 -1e-5 79e-5 -.00159 0 -
2685568264228295e-27 1 1 0 0 1e-5 133 331 1288 0 208 329 333 0 +333 0 79e-5 -1e-
5 1e-5 8e-4 -1e-5 3.141592653589795 1.570796326794895 141 332 325 332 332 329 16
 208 1268 0 ?334 204 335 331 0 0 1 31 333 1289 0 1 331 336 337 -1e-5 79e-5 -1e-5
 0 0 1 1 0 0 1e-5 133 336 1290 0 338 333 339 0 +339 1e-5 8e-4 -1e-5 1e-5 79e-5 -
271050543121376e-34 1.570796326794895 3.141592653589795 141 337 331 337 337 333
 16 338 737 0 ?340 341 276 336 0 0 1 31 339 1291 0 1 336 342 343 +1e-5 79e-5 -1e
-5 1 0 0 0 0 -1 1e-5 133 342 1296 0 276 339 344 0 +344 1e-5 1000000000000014e-20
 0 1e-5 79e-5 0 -79e-5 -1e-5 141 343 336 343 343 339 16 276 764 0 ?345 338 273 3
42 0 0 1 30 344 1297 0 1 342 346 347 +1e-5 8e-4 0 0 1 0 31 346 1312 0 1 344 348
 349 +1e-5 79e-5 -1e-5 0 1 0 1 0 0 1e-5 141 347 342 347 347 344 133 348 1320 0 3
35 346 350 0 +350 0 79e-5 -1e-5 1e-5 .000789999999999987 33881317890172e-34 3.14
1592653589795 1.570796326794895 141 349 323 349 349 346 68 323 1308 0 351 318 35
2 0 +346 1e-5 79e-5 -1e-5 1 0 0 2e-5 79e-5 -1e-5 16940658945086e-34 79e-5 -1e-5
 0 3.141592653589795 0 0 -1 ?14 351 1299 353 1e-8 321 354 355 5 323 +0 0 354 321
 23 51 352 1336 0 354 323 356 0 +1e-5 8e-4 -1e-5 0 -1 0 1e-5 0 0 -1 14 354 1325
 357 1e-8 351 358 359 5 352 +0 0 358 351 23 68 356 1368 0 358 352 360 0 +361 1e-
5 1e-5 -1e-5 1 0 0 2e-5 1e-5 -1e-5 16940658945086e-34 1e-5 -1e-5 0 3.14159265358
9795 0 0 -1 ?14 358 1359 362 1e-8 354 149 363 5 356 +0 0 149 354 23 51 360 1400
 0 149 356 364 0 +6e-4 25e-6 -250000000000005e-19 -1 -1228197773518736e-31 42351
647362715e-31 1e-5 1228197773518736e-31 -1 0 31 361 1372 0 1 365 366 367 +1e-5 1
e-5 -1e-5 0 1 0 1 0 0 1e-5 31 365 1352 0 1 368 361 369 -1e-5 1e-5 -1e-5 0 -1 0 0
 0 -1 1e-5 30 366 1385 0 370 361 171 0 +6e-4 25e-6 -1500000000000045e-20 -1 0 42
351647362715e-31 141 367 356 367 367 361 16 370 825 0 ?150 371 159 366 0 0 1 133
 171 1425 0 372 366 169 0 +169 .0032 1e-5 -.00159 .0032 1e-5 -1e-5 -.00159 -1e-5
 16 372 921 0 ?373 374 375 171 0 0 1 17 373 0 376 377 378 379 167 372 0 380 +16
 374 894 0 ?381 382 372 383 0 0 1 16 375 924 0 ?377 372 178 384 0 0 1 17 377 0 3
76 385 373 91 380 375 0 386 +16 178 959 0 ?90 375 175 387 0 0 1 133 384 942 0 37
5 388 389 0 +389 .0032 1e-5 -1e-5 .00319 0 -1e-5 0 -1.570796326794895 31 388 912
 0 1 383 384 390 +.00319 1e-5 -.00159 0 -183697019872103e-30 -1 1 0 0 1e-5 31 38
9 943 0 1 384 391 392 -.00319 1e-5 -1e-5 0 0 1 1 0 0 1e-5 133 391 949 0 393 389
 394 0 +394 .00319 79e-5 0 .00319 100000000000016e-19 42351647362715e-35 -1e-5 -
79e-5 141 392 384 392 392 389 16 393 413 0 ?395 268 396 391 0 0 1 30 394 950 0 1
 391 397 398 -.00319 8e-4 0 0 1 0 31 397 967 0 1 394 387 399 +.00319 1e-5 -1e-5
 0 1 0 1 0 0 1e-5 141 398 391 398 398 394 133 387 975 0 178 397 400 0 +400 .0032
 1e-5 -1e-5 .00319 100000000000016e-19 42351647362715e-35 0 1.570796326794895 14
1 399 401 399 399 397 68 401 963 0 402 403 404 0 +397 .00319 1e-5 -1e-5 1 0 0 .0
032 1e-5 -1e-5 .00318 1e-5 -1e-5 0 3.141592653589795 0 0 -1 ?14 402 954 405 1e-8
 406 407 408 5 401 +0 0 407 406 23 51 403 929 0 406 409 401 0 +.00319 1e-5 0 0 0
 1 1e-5 1 0 0 51 404 991 0 407 401 410 0 +.00319 8e-4 -1e-5 0 -1 0 1e-5 0 0 -1 1
4 407 980 411 1e-8 402 412 413 5 404 +0 0 412 402 23 68 410 1026 0 412 404 414 0
 +415 .00319 79e-5 -1e-5 1 0 0 .0032 79e-5 -1e-5 .00318 79e-5 -1e-5 0 3.14159265
3589795 0 0 -1 ?14 412 1017 416 1e-8 407 417 418 5 410 +0 0 417 407 23 51 414 10
54 0 417 410 419 0 +.00319 79e-5 -.0016 0 0 -1 1e-5 -1 0 0 31 415 1030 0 1 420 4
21 422 +.00319 79e-5 -1e-5 0 1 0 1 0 0 1e-5 30 420 1015 0 1 423 415 424 -.00319
 8e-4 -.0016 0 0 -1 133 421 1038 0 425 415 426 0 +426 .0032 79e-5 -1e-5 .00319 8
e-4 -1e-5 1084202172485502e-29 1.570796326794895 141 422 410 422 422 415 16 425
 1022 0 ?427 179 185 421 0 0 1 31 426 1039 0 1 421 428 429 +.00319 79e-5 -1e-5 0
 612323399573677e-31 1 1 0 0 1e-5 133 428 1069 0 185 426 430 0 +430 .0032 79e-5
 -.00159 .00319 8e-4 -.00159 3.141592653589795 1.570796326794895 141 429 421 429
 429 426 16 185 1047 0 ?431 425 182 428 0 0 1 31 430 1070 0 1 428 432 433 -.0031
9 79e-5 -.00159 0 0 -1 -1 0 0 1e-5 31 432 1087 0 1 430 434 435 +.00319 79e-5 -.0
0159 0 1 0 1 0 0 1e-5 141 433 428 433 433 430 133 434 1131 0 271 432 436 0 +436
 1e-5 0 -1e-5 1e-5 0 -.00159 -.00159 -1e-5 141 435 419 435 435 432 68 419 1083 0
 437 414 313 0 +432 .00319 79e-5 -.00159 1 0 0 .0032 79e-5 -.00159 .00318 79e-5
 -.00159 0 3.141592653589795 0 0 -1 ?14 437 1074 438 1e-8 417 439 440 5 419 +0 0
 439 417 23 51 313 1113 0 439 419 307 0 +6e-4 25e-6 -.001575 1 1228197773518736e
-31 0 1e-5 -1228197773518736e-31 1 0 14 439 1102 441 1e-8 437 310 280 5 313 +0 0
 310 437 23 81 1 441 2057 442 439 443 0 438 444 445 14 310 1137 444 1e-8 439 306
 286 5 307 +0 0 306 439 23 15 280 1104 0 119 439 0 13 23 3 0 0 0 0 0 0 9 446 14
 446 2 447 1e-8 0 157 448 5 449 -0 0 157 0 23 81 1 447 2059 442 446 450 0 444 45
1 452 14 157 46 451 1e-8 446 453 454 5 455 -0 0 453 446 23 15 448 7 0 456 446 0
 50 449 12 0 446 0 455 0 +6e-4 785e-6 -.0016 1084202172485504e-31 -1 0 1 1084202
172485504e-31 0 50 455 82 0 157 449 457 0 +.0026 8e-4 -.0016 1 0 0 0 0 -1 51 457
 151 0 453 455 458 0 +6e-4 775e-6 -.001575 1 1084202172485504e-31 0 1e-5 -108420
2172485504e-31 1 0 14 453 140 459 1e-8 157 460 461 5 457 +0 0 460 157 23 50 458
 207 0 460 457 462 0 +6e-4 8e-4 -.0016 -1 2168404344971115e-29 0 -21684043449711
15e-29 -1 0 14 460 171 463 1e-8 453 464 465 5 458 -0 0 464 453 23 51 462 270 0 4
64 458 466 0 +6e-4 775e-6 -2500000000000045e-20 -1 -1084202172485504e-31 4235164
7362715e-31 1e-5 1084202172485504e-31 -1 0 14 464 259 467 1e-8 460 468 469 5 462
 +0 0 468 460 23 50 466 299 0 468 462 470 0 +0 8e-4 -.0016 0 0 1 1 0 0 14 468 28
8 471 1e-8 464 472 473 5 466 -0 0 472 464 23 51 470 328 0 472 466 474 0 +0 1e-5
 -.00159 1 0 0 1e-5 0 0 -1 14 472 317 475 1e-8 468 476 477 5 470 +0 0 476 468 23
 50 474 359 0 476 470 478 0 +0 0 -.0016 0 -1 0 0 0 -1 14 476 348 479 1e-8 472 48
0 481 5 474 +0 0 480 472 23 51 478 388 0 480 474 482 0 +0 1e-5 -1e-5 -1 0 0 1e-5
 0 0 1 14 480 377 483 1e-8 476 484 485 5 478 +0 0 484 476 23 50 482 419 0 484 47
8 486 0 +0 8e-4 0 0 0 -1 -1 0 0 14 484 408 487 1e-8 480 488 489 5 482 -0 0 488 4
80 23 51 486 448 0 488 482 490 0 +0 79e-5 -1e-5 1 0 0 1e-5 0 0 -1 14 488 437 491
 1e-8 484 492 493 5 486 +0 0 492 484 23 50 490 478 0 492 486 494 0 +0 8e-4 -.001
6 0 -1 0 0 0 -1 14 492 467 495 1e-8 488 496 497 5 490 -0 0 496 488 23 51 494 507
 0 496 490 498 0 +0 79e-5 -.00159 -1 0 0 1e-5 0 0 1 14 496 496 499 1e-8 492 500
 501 5 494 +0 0 500 492 23 50 498 551 0 500 494 502 0 +6e-4 0 -.001585 0 0 1 1 0
 0 14 500 540 503 1e-8 496 504 505 5 498 -0 0 504 496 23 50 502 594 0 504 498 50
6 0 +0 0 -.0016 0 -1 0 0 0 -1 14 504 583 507 1e-8 500 508 509 5 502 +0 0 508 500
 23 51 506 623 0 508 502 510 0 +0 1e-5 -.00159 1 0 0 1e-5 0 0 -1 14 508 612 511
 1e-8 504 512 513 5 506 +0 0 512 504 23 50 510 654 0 512 506 514 0 +0 8e-4 -.001
6 0 0 1 1 0 0 14 512 643 515 1e-8 508 516 517 5 510 -0 0 516 508 23 51 514 683 0
 516 510 518 0 +0 79e-5 -.00159 -1 0 0 1e-5 0 0 1 14 516 672 519 1e-8 512 520 52
1 5 514 +0 0 520 512 23 50 518 713 0 520 514 522 0 +0 8e-4 -.0016 0 -1 0 0 0 -1
 14 520 702 523 1e-8 516 524 525 5 518 -0 0 524 516 23 51 522 742 0 524 518 526
 0 +0 79e-5 -1e-5 1 0 0 1e-5 0 0 -1 14 524 731 527 1e-8 520 528 529 5 522 +0 0 5
28 520 23 50 526 772 0 528 522 530 0 +0 8e-4 0 0 0 -1 -1 0 0 14 528 761 531 1e-8
 524 532 533 5 526 -0 0 532 524 23 51 530 801 0 532 526 534 0 +0 1e-5 -1e-5 -1 0
 0 1e-5 0 0 1 14 532 790 535 1e-8 528 536 537 5 530 +0 0 536 528 23 50 534 832 0
 536 530 538 0 +6e-4 0 -1500000000000045e-20 -42351647362715e-31 0 -1 -1 0 42351
647362715e-31 14 536 821 539 1e-8 532 540 541 5 534 -0 0 540 532 23 51 538 861 0
 540 534 409 0 +.00319 8e-4 -.00159 0 -1 0 1e-5 0 0 -1 14 540 850 542 1e-8 536 5
43 163 5 538 +0 0 543 536 23 68 409 899 0 543 538 403 0 +544 .00319 1e-5 -.00159
 1 0 0 .0032 1e-5 -.00159 .00318 1e-5 -.00159 0 3.141592653589795 0 0 -1 ?14 543
 890 545 1e-8 540 406 546 5 409 +0 0 406 540 23 31 544 903 0 1 547 383 548 +.003
19 1e-5 -.00159 0 1 0 1 0 0 1e-5 30 547 888 0 1 549 544 550 -.00319 0 -.0016 0 0
 -1 133 383 911 0 374 544 388 0 +388 .0032 1e-5 -.00159 .00319 25410988417629e-3
3 -.00159 2541098841762895e-30 1.570796326794895 141 548 409 548 548 544 133 549
 887 0 267 551 547 0 +547 .00319 0 -.00159 .00319 0 -1e-5 -1e-5 -.00159 141 550
 549 550 550 547 16 267 352 0 ?386 552 265 549 0 0 1 31 551 884 0 1 553 549 554
 +.00319 79e-5 -.00159 0 -1 0 0 0 -1 1e-5 133 553 883 0 382 555 551 0 +551 .0031
9 79e-5 -.0016 .0032 79e-5 -.00159 0 1.570796326794895 141 554 553 554 554 551 1
6 382 856 0 ?164 556 374 553 0 0 1 31 555 882 0 1 557 553 558 +.00319 79e-5 -.00
159 -1 0 0 0 0 1 1e-5 133 557 881 0 559 560 555 0 +555 .00319 8e-4 -.00159 .0031
9 79e-5 -.0016 1.570796326794895 3.141592653589795 141 558 557 558 558 555 16 55
9 500 0 ?561 562 563 557 0 0 1 31 560 876 0 1 564 557 565 -.00319 1e-5 -.00159 0
 -1 0 0 0 -1 1e-5 133 564 875 0 556 566 560 0 +560 .0032 1e-5 -.00159 .00319 100
0000000000014e-20 -.0016 1.570796326794895 0 141 565 564 565 565 560 16 556 854
 0 ?86 159 382 564 0 0 1 30 566 874 0 1 567 564 568 +.00319 8e-4 -.0016 0 1 0 13
3 567 873 0 263 569 566 0 +566 .00319 1000000000000014e-20 -.0016 .00319 79e-5 -
.0016 -79e-5 -1e-5 141 568 567 568 568 566 16 263 291 0 ?570 259 260 567 0 0 1 3
0 569 846 0 159 571 567 0 -.0026 0 -150000000000005e-19 0 1 0 16 159 826 0 ?156
 370 556 569 0 0 1 30 571 844 0 371 572 569 0 +6e-4 0 -1500000000000045e-20 0 1
 0 16 371 824 0 ?60 277 370 571 0 0 1 31 572 804 0 1 573 571 574 -1e-5 1e-5 -1e-
5 -1 0 0 0 0 1 1e-5 133 573 805 0 277 575 572 0 +572 1e-5 1000000000000014e-20 0
 1e-5 25410988417629e-33 -1e-5 1084202172485504e-29 -1.570796326794895 141 574 5
73 574 574 572 16 277 794 0 ?576 273 371 573 0 0 1 30 575 755 0 1 577 573 578 +0
 79e-5 -271050543121376e-34 1 0 0 133 577 754 0 341 579 575 0 +575 1e-5 79e-5 -2
71050543121376e-34 6e-4 79e-5 -135525271560688e-34 1e-5 6e-4 141 578 577 578 578
 575 16 341 736 0 ?74 580 338 577 0 0 1 30 579 725 0 1 581 577 582 -0 8e-4 -1e-5
 1 0 0 133 581 724 0 580 583 579 0 +579 6e-4 8e-4 -1e-5 1e-5 8e-4 -1e-5 6e-4 1e-
5 141 582 581 582 582 579 16 580 706 0 ?584 585 341 581 0 0 1 30 583 696 0 1 586
 581 587 -0 8e-4 -.00159 -1 0 0 133 586 695 0 588 589 583 0 +583 1e-5 8e-4 -.001
59 6e-4 8e-4 -.00159 -1e-5 -6e-4 141 587 586 587 587 583 16 588 675 0 ?67 299 59
0 586 0 0 1 30 589 664 0 1 591 586 592 -0 79e-5 -.0016 1 0 0 133 591 663 0 299 5
93 589 0 +589 6e-4 79e-5 -.0016 1e-5 79e-5 -.0016 6e-4 1e-5 141 592 591 592 592
 589 16 299 649 0 ?594 296 588 591 0 0 1 31 593 627 0 1 595 591 596 +1e-5 1e-5 -
.00159 1 0 0 0 0 -1 1e-5 133 595 628 0 272 597 593 0 +593 1e-5 0 -.00159 1e-5 1e
-5 -.0016 4.71238898038469 6.28318530717958 141 596 595 596 596 593 16 272 616 0
 ?598 269 296 595 0 0 1 30 597 608 0 1 599 595 600 -0 0 -1e-5 1 0 0 133 599 607
 0 601 602 597 0 +597 .000599999999999992 813151629364128e-34 -1e-5 1e-5 0 -1e-5
 .000599999999999992 1e-5 141 600 599 600 600 597 16 601 586 0 ?603 604 605 599
 0 0 1 30 602 604 0 1 606 599 607 +0 0 -.00159 1 0 0 133 606 603 0 605 608 602 0
 +602 1e-5 0 -.00159 .000599999999999983 271050543121376e-34 -.00159 1e-5 .00059
9999999999983 141 607 606 607 607 602 16 605 588 0 ?63 601 271 606 0 0 1 30 608
 574 0 604 609 606 0 +6e-4 25e-6 -.001585 1 0 0 16 604 546 0 ?281 563 601 608 0
 0 1 30 609 561 0 563 610 608 0 +.0026 0 -.001585 0 1 0 16 563 545 0 ?31 559 604
 609 0 0 1 30 610 536 0 259 611 609 0 -6e-4 775e-6 -1500000000000045e-20 -1 -108
4202172485504e-31 42351647362715e-31 16 259 262 0 ?612 256 263 610 0 0 1 30 611
 529 0 236 613 610 0 -6e-4 775e-6 -.001585 1 1084202172485504e-31 0 16 236 143 0
 ?614 233 237 611 0 0 1 30 613 490 0 1 615 611 616 +0 8e-4 -.00159 1 0 0 133 615
 489 0 562 617 613 0 +613 .0026 8e-4 -.00159 .00319 8e-4 -.00159 .0026 .00319 14
1 616 615 616 616 613 16 562 471 0 ?618 619 559 615 0 0 1 30 617 461 0 1 620 615
 621 -0 8e-4 -1e-5 1 0 0 133 620 460 0 622 623 617 0 +617 .00319 8e-4 -1e-5 .002
6 8e-4 -1e-5 .00319 .0026 141 621 620 621 621 617 16 622 442 0 ?624 396 625 620
 0 0 1 30 623 429 0 1 626 620 627 -0 79e-5 0 -1 0 0 133 626 428 0 396 628 623 0
 +623 .0026 79e-5 0 .00319 79e-5 0 -.0026 -.00319 141 627 626 627 627 623 16 396
 414 0 ?629 393 622 626 0 0 1 31 628 392 0 1 630 626 631 +.00319 1e-5 -1e-5 -1 0
 0 0 0 1 1e-5 133 630 393 0 268 632 628 0 +628 .00319 25410988417629e-33 -1e-5 .
00319 100000000000016e-19 42351647362715e-35 4.71238898038469 6.28318530717974 1
41 631 630 631 631 628 16 268 381 0 ?633 265 393 630 0 0 1 30 632 371 0 1 634 63
0 635 -0 0 -1e-5 1 0 0 133 634 370 0 552 636 632 0 +632 .00319 0 -1e-5 .0026 162
6303258728255e-34 -1e-5 .00319 .0026 141 635 634 635 635 632 16 552 351 0 ?637 6
38 267 634 0 0 1 30 636 344 0 1 639 634 640 -0 0 -.00159 1 0 0 133 639 343 0 641
 642 636 0 +636 .00319 0 -.00159 .0026 1626303258728255e-34 -.00159 .00319 .0026
 141 640 639 640 640 636 16 641 322 0 ?643 264 638 639 0 0 1 31 642 329 0 1 644
 639 645 -.00319 1e-5 -.00159 1 0 0 0 0 -1 1e-5 133 644 330 0 638 646 642 0 +642
 .00319 1000000000000014e-20 -.0016 .00319 0 -.00159 1084202172485502e-29 -1.570
796326794895 141 645 644 645 645 642 16 638 323 0 ?647 641 552 644 0 0 1 30 646
 313 0 1 648 644 649 -0 79e-5 -.0016 1 0 0 133 648 312 0 264 650 646 0 +646 .003
19 79e-5 -.0016 .0026 79e-5 -.0016 .00319 .0026 141 649 648 649 649 646 16 264 2
94 0 ?651 260 641 648 0 0 1 30 650 208 0 255 652 648 0 -6e-4 8e-4 0 -21684043449
71115e-29 -1 0 16 255 189 0 ?653 252 256 650 0 0 1 30 652 210 0 251 654 650 0 -6
e-4 8e-4 -.0016 0 0 1 16 251 187 0 ?655 248 252 652 0 0 1 30 654 212 0 247 656 6
52 0 +6e-4 8e-4 -.0016 -2168404344971115e-29 -1 0 16 247 185 0 ?657 244 248 654
 0 0 1 30 656 214 0 243 658 654 0 +.000599999999999983 1084202172485504e-34 -.00
16 0 0 1 16 243 183 0 ?659 240 244 656 0 0 1 30 658 222 0 239 660 656 0 -6e-4 8e
-4 -.001585 -2168404344971115e-29 -1 0 16 239 175 0 ?53 237 240 658 0 0 1 30 660
 169 0 661 662 658 0 -6e-4 785e-6 -.0016 0 0 1 16 661 14 0 ?663 25 664 660 0 0 1
 30 662 136 0 664 26 660 0 -6e-4 785e-6 -250000000000005e-19 1 1084202172485504e
-31 0 16 664 9 0 ?665 661 219 662 0 0 1 30 26 134 0 10 666 662 0 +.0026 785e-6 -
.0016 0 0 1 30 666 132 0 25 667 26 0 +6e-4 785e-6 -.001575 1 1084202172485504e-3
1 0 16 25 18 0 ?668 10 661 666 0 0 1 30 667 91 0 228 669 666 0 -.0026 8e-4 -.001
6 0 0 -1 16 228 56 0 ?670 225 229 667 0 0 1 30 669 93 0 224 671 667 0 -.0026 8e-
4 0 0 1 0 16 224 54 0 ?672 221 225 669 0 0 1 30 671 95 0 220 673 669 0 +.0026 32
52606517456515e-34 -.0016 0 0 -1 16 220 52 0 ?674 216 221 671 0 0 1 30 673 97 0
 219 0 671 0 +.0026 8e-4 -.0016 0 1 0 16 219 50 0 ?675 664 216 673 0 0 1 17 675
 0 473 676 83 44 677 219 0 0 +15 473 290 0 83 468 0 17 676 0 473 678 675 87 651
 264 0 679 -17 83 0 473 675 678 52 262 260 0 677 -18 44 73 0 680 40 42 41 ?1 17
 677 0 454 681 680 52 675 219 0 218 -15 454 48 0 681 157 30 17 681 0 454 682 677
 84 218 216 0 674 -17 680 0 454 677 683 44 231 229 0 651 -17 218 0 477 262 643 5
2 681 216 0 0 +15 477 319 0 218 472 0 17 262 0 477 647 218 81 83 260 0 0 +17 643
 0 477 218 647 84 684 641 0 681 +17 647 0 477 643 262 685 686 638 0 385 +18 84 6
7 0 643 52 96 687 ?1 17 684 0 481 386 674 685 643 641 0 0 -15 481 350 0 386 476
 0 17 386 0 481 637 684 91 385 267 0 688 +17 674 0 481 684 637 84 682 220 0 0 +1
8 685 326 0 381 87 91 689 2061552812829875e-23 1 17 381 0 546 686 690 685 378 37
4 0 647 +18 87 298 0 561 81 685 691 206155281280883e-22 1 18 91 355 0 377 685 88
 692 2061552812810925e-23 1 29 689 1427 0 685 691 692 .00319 635274710440725e-35
 -.00159 29 691 1424 0 87 0 689 .00319 79e-5 -.0016 29 692 1458 0 91 689 693 .00
319 635274710440725e-35 -1e-5 29 693 1467 0 379 692 694 .0032 1e-5 -1e-5 18 379
 928 0 695 165 696 693 2061552812810475e-23 1 29 694 1468 0 92 693 697 .00319 79
e-5 -67762635780344e-34 18 92 417 0 698 88 699 694 20615528128108e-21 1 29 697 1
472 0 699 694 700 .00319 8e-4 -1e-5 18 699 446 0 427 92 115 697 206155281281935e
-22 1 29 700 1474 0 115 697 701 .00319 8e-4 -.00159 18 115 474 0 431 699 112 700
 206155281280883e-22 1 29 701 1477 0 696 700 702 .0032 79e-5 -1e-5 18 696 990 0
 703 379 120 701 2061552812810145e-23 1 29 702 1515 0 116 701 704 1e-5 635274710
440725e-35 -.00159 18 116 592 0 284 112 101 702 2061552812810685e-23 1 29 704 15
49 0 101 702 705 1e-5 127054942088145e-34 -1e-5 18 101 593 0 576 116 98 704 2061
55281281064e-22 1 29 705 1557 0 124 704 706 -635274710440725e-35 1e-5 -.00159 18
 124 1145 0 707 121 708 705 206155281282996e-22 1 29 706 1558 0 102 705 709 1e-5
 79e-5 -.0016 18 102 652 0 710 98 711 706 206155281280883e-22 1 29 709 1562 0 71
1 706 712 1e-5 8e-4 -.00159 18 711 679 0 330 102 713 709 2061552814765265e-23 1
 29 712 1565 0 708 709 714 -127054942088145e-34 79e-5 -.00159 18 708 1209 0 715
 124 716 712 2061552812829905e-23 1 29 714 1566 0 713 712 717 1e-5 8e-4 -1e-5 18
 713 709 0 334 711 110 714 206155281280883e-22 1 29 717 1570 0 110 714 718 1e-5
 79e-5 -127054942088145e-34 18 110 740 0 719 713 107 717 2061552813787035e-23 1
 29 718 1574 0 131 717 720 0 1e-5 -1e-5 18 131 1333 0 212 716 129 718 2061552812
808995e-23 1 29 720 1575 0 716 718 721 0 79e-5 -1e-5 18 716 1272 0 722 708 131 7
20 20615528128108e-21 1 29 721 1588 0 165 720 723 .0032 1e-5 -.00159 18 165 858
 0 161 21 379 721 2061552812829945e-23 1 29 723 1589 0 120 721 687 .0032 79e-5 -
.00159 18 120 1051 0 166 696 117 723 206155281280883e-22 1 29 687 1599 0 84 723
 724 .0026 1626303258728255e-34 -.00159 29 724 1602 0 96 687 725 .0026 162630325
8728255e-34 -1e-5 18 96 68 0 637 84 93 724 ?1 29 725 1605 0 726 724 727 .0026 8e
-4 -1e-5 18 726 71 0 624 97 40 725 ?1 29 727 1606 0 97 725 41 .0026 79e-5 0 18 9
7 70 0 728 93 726 727 ?1 29 41 1609 0 44 727 38 .0026 79e-5 -.0016 17 728 0 489
 672 729 97 629 396 0 730 -15 489 410 0 731 484 0 17 672 0 489 731 728 93 730 22
4 0 0 +17 729 0 489 728 731 92 395 393 0 629 -17 629 0 493 732 227 92 728 396 0
 0 +17 730 0 454 733 734 97 672 224 0 227 -17 733 0 454 683 730 726 227 225 0 67
0 -17 734 0 454 730 682 93 223 221 0 672 -17 227 0 493 629 624 97 733 225 0 0 +1
5 493 439 0 227 488 0 17 624 0 493 227 732 726 735 622 0 733 +17 732 0 493 624 6
29 699 736 625 0 737 +17 735 0 497 738 670 699 624 622 0 0 -15 497 469 0 739 492
 0 17 738 0 497 739 735 115 737 619 0 618 -17 670 0 497 735 739 726 683 228 0 0
 +17 739 0 497 670 738 40 618 562 0 683 -17 683 0 454 680 733 40 670 228 0 231 -
18 40 72 0 739 726 44 38 ?1 17 231 0 501 618 651 40 680 229 0 0 +15 501 498 0 56
1 496 0 17 618 0 501 561 231 115 739 562 0 0 +17 651 0 501 231 561 44 676 264 0
 675 +17 561 0 501 651 618 87 740 559 0 676 +17 740 0 440 741 679 115 561 559 0
 738 -15 440 1076 0 741 437 0 17 741 0 440 679 740 120 431 185 0 0 -17 679 0 440
 740 741 87 164 382 0 570 -17 164 0 163 161 570 120 679 382 0 741 +17 570 0 163
 164 86 87 678 263 0 0 +15 163 852 0 86 540 0 17 86 0 163 570 161 81 690 556 0 6
86 +17 678 0 473 83 676 81 570 263 0 262 -17 690 0 546 381 686 165 86 556 0 0 -1
7 686 0 546 690 381 81 647 638 0 678 -15 546 892 0 381 543 0 17 431 0 742 737 18
4 115 741 185 0 740 +15 742 1045 0 431 417 0 17 737 0 742 743 431 699 738 619 0
 735 +17 184 0 742 431 743 120 703 182 0 164 +17 743 0 742 184 737 696 427 425 0
 177 -17 703 0 744 695 166 696 184 182 0 743 -15 744 1432 0 166 745 0 17 695 0 7
44 167 703 379 177 175 0 746 -17 166 0 744 703 167 120 161 160 0 184 -17 167 0 7
44 166 695 165 373 372 0 378 -17 378 0 376 373 385 165 381 374 0 690 -15 376 920
 0 378 406 0 17 385 0 376 378 377 685 386 267 0 684 -14 406 918 747 1e-8 543 402
 376 5 403 +0 0 402 543 23 81 1 747 2084 442 406 748 0 545 749 750 80 1 442 751
 752 9000 1 1 1 1 1 1 1 1 0 FFFFTFTFFFFFFF1 81 1 748 1928 753 406 0 747 754 755
 756 81 1 545 2083 442 543 755 0 542 747 757 81 1 749 2085 442 417 758 0 747 759
 760 82 1 750 999999 14 417 1043 749 1e-8 412 437 742 5 414 +0 0 437 412 23 81 1
 758 1924 753 417 0 749 761 762 763 81 1 759 2086 442 321 764 0 749 765 766 82 1
 760 999999 14 321 1262 759 1e-8 316 351 767 5 318 +0 0 351 316 23 81 1 764 1917
 753 321 0 759 768 769 770 81 1 765 2087 442 149 771 0 759 772 773 82 1 766 9999
99 14 149 1389 765 1e-8 358 745 147 5 360 +0 0 745 358 23 81 1 771 1913 753 149
 0 765 774 775 776 81 1 772 2088 442 745 774 0 765 777 778 82 1 773 999999 14 74
5 1430 772 1e-8 149 140 744 5 364 -0 0 140 149 23 81 1 774 1912 753 745 0 772 77
9 771 780 81 1 777 2089 442 140 779 0 772 781 782 82 1 778 999999 14 140 1479 77
7 1e-8 745 16 134 5 18 -0 0 16 745 23 81 1 779 1911 753 140 0 777 783 774 784 81
 1 781 2090 442 16 783 0 777 0 785 82 1 782 999999 14 16 1520 781 1e-8 140 0 786
 5 6 -0 0 0 140 23 81 1 783 1910 753 16 13 781 0 779 787 82 1 785 999999 80 1 75
3 0 788 8001 0 0 0 0 3 5 0 0 0 FFFFTFTFFFFFFF2 81 1 13 1908 12 16 0 783 0 2 789
 83 3 787 .623529411764706 .623529411764706 .623529411764706 80 1 12 790 791 801
7 0 0 0 0 0 0 0 0 0 TTTTTTTTTTTTTF3 84 4 789 NONE79 13 791 SDL/TYSA_NAME79 15 78
8 SDL/TYSA_COLOUR15 786 1522 0 792 16 0 17 792 0 786 722 707 131 192 190 0 793 -
17 722 0 786 715 792 716 212 154 0 794 -17 707 0 786 792 715 124 199 197 0 192 -
17 192 0 286 284 793 124 792 190 0 795 +17 793 0 286 192 287 131 796 194 0 797 +
15 286 1139 0 284 310 0 17 287 0 286 793 284 101 289 271 0 0 -17 796 0 363 798 7
97 101 793 194 0 603 -16 194 1143 0 ?793 190 200 292 0 0 1 17 797 0 363 796 798
 131 109 213 0 0 -15 363 1361 0 797 358 0 17 798 0 363 797 796 107 576 277 0 799
 -17 109 0 359 345 212 107 797 213 0 798 +16 213 1329 0 ?109 335 154 368 0 0 1 1
6 335 1304 0 ?719 208 213 348 0 0 1 133 368 1351 0 213 350 365 0 +365 0 1e-5 -1e
-5 1e-5 1000000000000014e-20 0 4.71238898038469 3.141592653589795 31 350 1321 0
 1 348 368 800 -1e-5 79e-5 -1e-5 0 -1 -1342359216696824e-27 1 0 0 1e-5 141 800 3
48 800 800 350 17 719 0 355 801 802 110 794 335 0 340 +15 355 1301 0 801 351 0 1
7 801 0 355 802 719 713 340 338 0 803 -17 802 0 355 719 801 716 334 208 0 0 -17
 794 0 359 212 345 716 719 335 0 206 -17 340 0 529 74 584 110 801 338 0 345 +15
 529 733 0 254 524 0 17 74 0 529 254 340 72 804 341 0 805 +17 584 0 529 340 254
 713 77 580 0 0 +17 345 0 359 794 109 110 799 276 0 804 +15 359 1327 0 109 354 0
 17 799 0 533 106 804 107 345 276 0 275 -17 804 0 533 799 653 110 74 341 0 0 -15
 533 763 0 106 528 0 17 653 0 533 804 106 72 806 255 0 0 +17 106 0 533 653 799 7
5 275 273 0 806 -17 806 0 807 80 805 75 653 255 0 258 -15 807 174 0 808 460 0 17
 80 0 807 809 806 78 258 256 0 810 -17 805 0 807 806 811 72 254 252 0 653 -17 25
8 0 537 275 810 75 80 256 0 0 +15 537 792 0 576 532 0 17 275 0 537 576 258 107 1
06 273 0 0 +17 810 0 537 258 576 78 603 601 0 659 -17 576 0 537 810 275 101 798
 277 0 796 +17 603 0 509 289 659 101 810 601 0 287 +17 659 0 509 603 63 78 809 2
43 0 0 +15 509 585 0 659 504 0 17 63 0 509 659 289 61 812 605 0 809 +17 809 0 80
7 808 80 61 659 243 0 246 -17 808 0 807 813 809 64 246 244 0 657 -17 246 0 513 8
12 104 61 808 244 0 0 +15 513 614 0 598 508 0 17 812 0 513 598 246 116 63 605 0
 0 -17 104 0 513 246 598 64 814 269 0 808 +17 598 0 513 104 812 98 815 272 0 298
 +17 814 0 517 816 657 98 104 269 0 0 -15 517 645 0 814 512 0 17 816 0 517 71 81
4 102 298 296 0 594 -17 657 0 517 814 71 64 813 247 0 0 +17 71 0 517 657 816 68
 594 299 0 813 -17 813 0 807 817 808 68 657 247 0 250 -17 817 0 807 811 813 65 2
50 248 0 655 -17 250 0 521 594 67 68 817 248 0 0 +15 521 674 0 818 516 0 17 594
 0 521 818 250 102 71 299 0 0 +17 67 0 521 250 818 65 819 588 0 817 +17 818 0 52
1 67 594 711 820 590 0 821 +17 819 0 525 803 655 711 67 588 0 0 -15 525 704 0 77
 520 0 17 803 0 525 77 819 713 821 585 0 584 -17 655 0 525 819 77 65 811 251 0 0
 +17 77 0 525 655 803 69 584 580 0 811 -17 811 0 807 805 817 69 655 251 0 254 -1
7 254 0 529 584 74 69 805 252 0 0 +17 821 0 767 822 334 711 803 585 0 819 +16 58
5 705 0 ?821 590 580 327 0 0 1 16 590 676 0 ?818 588 585 823 0 0 1 133 327 1233
 0 585 824 324 0 +324 1e-5 8e-4 -1e-5 1e-5 8e-4 -.00159 -.00159 -1e-5 31 824 122
8 0 1 823 327 825 -1e-5 79e-5 -.00159 -1 0 0 0 0 1 1e-5 133 823 1227 0 590 826 8
24 0 +824 1e-5 79e-5 -.0016 1e-5 8e-4 -.00159 3.141592653589795 1.57079632679489
5 141 825 823 825 825 824 31 826 1226 0 1 827 823 828 +1e-5 79e-5 -.00159 0 -1 0
 0 0 -1 1e-5 133 827 1225 0 201 304 826 0 +826 -25410988417629e-33 79e-5 -.00159
 1e-5 79e-5 -.0016 4.71238898038469 6.28318530717959 141 828 827 828 828 826 16
 201 1205 0 ?710 197 207 827 0 0 1 31 304 1195 0 1 302 827 829 -1e-5 1e-5 -.0015
9 0 1 0 1 0 0 1e-5 141 829 302 829 829 304 17 710 0 317 298 199 102 830 201 0 82
0 +15 317 1201 0 795 311 0 17 298 0 317 795 710 98 816 296 0 814 +17 199 0 317 7
10 795 708 707 197 0 830 +17 830 0 322 330 820 708 710 201 0 0 -17 820 0 322 830
 330 102 818 590 0 816 -15 322 1238 0 820 316 0 17 330 0 322 820 830 711 822 207
 0 818 +17 822 0 767 206 821 708 330 207 0 199 -15 767 1264 0 822 321 0 17 206 0
 767 334 822 716 715 204 0 802 +17 334 0 767 821 206 713 802 208 0 801 +17 715 0
 786 707 722 708 206 204 0 822 -17 795 0 317 199 298 124 100 200 0 288 -17 100 0
 312 815 288 98 795 200 0 598 +16 200 1177 0 ?100 194 197 302 0 0 1 17 288 0 312
 100 815 124 284 193 0 0 -15 312 1175 0 100 306 0 17 815 0 312 288 100 116 598 2
72 0 812 -17 289 0 509 63 603 116 287 271 0 815 +16 271 589 0 ?289 605 269 434 0
 0 1 17 212 0 359 109 794 131 722 154 0 792 +133 292 1157 0 194 436 290 0 +290 1
e-5 25410988417629e-33 -1e-5 0 1e-5 -1e-5 4.71238898038469 6.28318530717959 30 4
36 1132 0 1 434 292 831 +1e-5 0 -.0016 0 0 -1 141 831 434 831 831 436 83 3 784 .
729411764705882 .356862745098039 .0235294117647059 50 18 1490 0 140 364 6 0 +6e-
4 15e-6 -.0016 -1228197773518736e-31 1 0 -1 -1228197773518736e-31 0 50 364 1441
 0 745 360 18 0 +.0032 8e-4 0 -1 0 0 0 0 1 83 3 780 .623529411764706 .6235294117
64706 .623529411764706 81 1 775 1914 753 358 0 362 771 832 833 83 3 776 .7294117
64705882 .356862745098039 .0235294117647059 81 1 362 2052 442 358 775 0 357 405
 834 81 1 832 1915 753 354 0 357 775 768 835 83 3 833 .623529411764706 .62352941
1764706 .623529411764706 81 1 357 2051 442 354 832 0 353 362 836 81 1 768 1916 7
53 351 0 353 832 764 837 83 3 835 .623529411764706 .623529411764706 .62352941176
4706 81 1 353 2050 442 351 768 0 320 357 838 83 3 837 .623529411764706 .62352941
1764706 .623529411764706 81 1 320 2049 442 316 769 0 315 353 839 82 1 838 999999
 81 1 769 1918 753 316 0 320 764 840 841 81 1 315 2048 442 311 840 0 309 320 842
 82 1 839 999999 81 1 840 1919 753 311 0 315 769 843 844 81 1 309 2047 442 306 8
43 0 0 315 845 82 1 842 999999 81 1 843 1920 753 306 0 309 840 846 847 82 1 845
 999999 81 1 846 1921 753 310 0 444 843 443 848 83 3 847 .623529411764706 .62352
9411764706 .623529411764706 81 1 444 2058 442 310 846 0 441 447 849 81 1 443 192
2 753 439 0 441 846 761 850 83 3 848 .623529411764706 .623529411764706 .62352941
1764706 81 1 761 1923 753 437 0 438 443 758 851 83 3 850 .729411764705882 .35686
2745098039 .0235294117647059 81 1 438 2056 442 437 761 0 416 441 852 83 3 851 .6
23529411764706 .623529411764706 .623529411764706 81 1 416 2055 442 412 762 0 411
 438 853 82 1 852 999999 81 1 762 1925 753 412 0 416 758 854 855 81 1 411 2054 4
42 407 854 0 405 416 856 82 1 853 999999 81 1 854 1926 753 407 0 411 762 754 857
 81 1 405 2053 442 402 754 0 362 411 858 82 1 856 999999 81 1 754 1927 753 402 0
 405 854 748 859 82 1 858 999999 83 3 859 .623529411764706 .623529411764706 .623
529411764706 83 3 857 .623529411764706 .623529411764706 .623529411764706 83 3 85
5 .623529411764706 .623529411764706 .623529411764706 82 1 849 999999 83 3 844 .6
23529411764706 .623529411764706 .623529411764706 83 3 841 .623529411764706 .6235
29411764706 .623529411764706 82 1 836 999999 82 1 834 999999 83 3 770 .623529411
764706 .623529411764706 .623529411764706 83 3 763 .623529411764706 .623529411764
706 .623529411764706 81 1 755 1929 753 543 0 545 748 860 861 81 1 542 2082 442 5
40 860 0 539 545 862 82 1 757 999999 81 1 860 1930 753 540 0 542 755 863 864 81
 1 539 2081 442 536 863 0 535 542 865 82 1 862 999999 81 1 863 1931 753 536 0 53
9 860 866 867 81 1 535 2080 442 532 866 0 531 539 868 82 1 865 999999 81 1 866 1
932 753 532 0 535 863 869 870 81 1 531 2079 442 528 869 0 527 535 871 82 1 868 9
99999 81 1 869 1933 753 528 0 531 866 872 873 81 1 527 2078 442 524 872 0 523 53
1 874 82 1 871 999999 81 1 872 1934 753 524 0 527 869 875 876 81 1 523 2077 442
 520 875 0 519 527 877 82 1 874 999999 81 1 875 1935 753 520 0 523 872 878 879 8
1 1 519 2076 442 516 878 0 515 523 880 82 1 877 999999 81 1 878 1936 753 516 0 5
19 875 881 882 81 1 515 2075 442 512 881 0 511 519 883 82 1 880 999999 81 1 881
 1937 753 512 0 515 878 884 885 81 1 511 2074 442 508 884 0 507 515 886 82 1 883
 999999 81 1 884 1938 753 508 0 511 881 887 888 81 1 507 2073 442 504 887 0 503
 511 889 82 1 886 999999 81 1 887 1939 753 504 0 507 884 890 891 81 1 503 2072 4
42 500 890 0 499 507 892 82 1 889 999999 81 1 890 1940 753 500 0 503 887 893 894
 81 1 499 2071 442 496 893 0 495 503 895 82 1 892 999999 81 1 893 1941 753 496 0
 499 890 896 897 81 1 495 2070 442 492 896 0 491 499 898 82 1 895 999999 81 1 89
6 1942 753 492 0 495 893 899 900 81 1 491 2069 442 488 899 0 487 495 901 82 1 89
8 999999 81 1 899 1943 753 488 0 491 896 902 903 81 1 487 2068 442 484 902 0 483
 491 904 82 1 901 999999 81 1 902 1944 753 484 0 487 899 905 906 81 1 483 2067 4
42 480 905 0 479 487 907 82 1 904 999999 81 1 905 1945 753 480 0 483 902 908 909
 81 1 479 2066 442 476 908 0 475 483 910 82 1 907 999999 81 1 908 1946 753 476 0
 479 905 911 912 81 1 475 2065 442 472 911 0 471 479 913 82 1 910 999999 81 1 91
1 1947 753 472 0 475 908 914 915 81 1 471 2064 442 468 914 0 467 475 916 82 1 91
3 999999 81 1 914 1948 753 468 0 471 911 917 918 81 1 467 2063 442 464 917 0 463
 471 919 82 1 916 999999 81 1 917 1949 753 464 0 467 914 920 921 81 1 463 2062 4
42 460 920 0 459 467 922 82 1 919 999999 81 1 920 1950 753 460 0 463 917 923 924
 81 1 459 2061 442 453 923 0 451 463 925 82 1 922 999999 81 1 923 1951 753 453 0
 459 920 926 927 81 1 451 2060 442 157 926 0 447 459 928 82 1 925 999999 81 1 92
6 1952 753 157 0 451 923 450 929 82 1 928 999999 81 1 450 1953 753 446 0 447 926
 0 930 83 3 929 .729411764705882 .356862745098039 .0235294117647059 83 3 930 .72
9411764705882 .356862745098039 .0235294117647059 83 3 927 .729411764705882 .3568
62745098039 .0235294117647059 83 3 924 .729411764705882 .356862745098039 .023529
4117647059 83 3 921 .729411764705882 .356862745098039 .0235294117647059 83 3 918
 .623529411764706 .623529411764706 .623529411764706 83 3 915 .623529411764706 .6
23529411764706 .623529411764706 83 3 912 .623529411764706 .623529411764706 .6235
29411764706 83 3 909 .623529411764706 .623529411764706 .623529411764706 83 3 906
 .623529411764706 .623529411764706 .623529411764706 83 3 903 .623529411764706 .6
23529411764706 .623529411764706 83 3 900 .623529411764706 .623529411764706 .6235
29411764706 83 3 897 .623529411764706 .623529411764706 .623529411764706 83 3 894
 .729411764705882 .356862745098039 .0235294117647059 83 3 891 .623529411764706 .
623529411764706 .623529411764706 83 3 888 .623529411764706 .623529411764706 .623
529411764706 83 3 885 .623529411764706 .623529411764706 .623529411764706 83 3 88
2 .623529411764706 .623529411764706 .623529411764706 83 3 879 .623529411764706 .
623529411764706 .623529411764706 83 3 876 .623529411764706 .623529411764706 .623
529411764706 83 3 873 .623529411764706 .623529411764706 .623529411764706 83 3 87
0 .623529411764706 .623529411764706 .623529411764706 83 3 867 .729411764705882 .
356862745098039 .0235294117647059 83 3 864 .623529411764706 .623529411764706 .62
3529411764706 83 3 861 .623529411764706 .623529411764706 .623529411764706 83 3 7
56 .623529411764706 .623529411764706 .623529411764706 79 14 752 SWEntUnchanged17
 177 0 413 698 746 696 695 175 0 931 +17 746 0 413 177 395 379 90 178 0 373 -15
 413 982 0 746 407 0 17 395 0 413 746 698 88 729 393 0 731 +17 90 0 408 688 380
 88 746 178 0 633 +15 408 956 0 688 402 0 17 688 0 408 380 90 91 633 268 0 932 -
17 380 0 408 90 688 379 377 375 0 0 -17 633 0 485 95 932 88 688 268 0 395 +15 48
5 379 0 633 480 0 17 95 0 485 223 633 93 731 265 0 734 +17 932 0 485 633 223 91
 637 552 0 0 -17 223 0 485 932 95 96 734 221 0 0 +17 637 0 481 674 386 96 932 55
2 0 682 +17 682 0 454 734 681 96 674 220 0 223 -17 731 0 489 729 672 88 95 265 0
 0 -17 698 0 413 395 177 92 931 179 0 736 +17 931 0 418 427 736 696 698 179 0 0
 -16 179 986 0 ?698 175 425 933 0 0 1 17 736 0 418 931 427 92 732 625 0 729 -15
 418 1019 0 736 412 0 17 427 0 418 736 931 699 743 425 0 732 +16 625 443 0 ?732
 622 619 934 0 0 1 16 619 470 0 ?737 625 562 423 0 0 1 133 934 1008 0 625 935 93
6 0 +936 .00319 79e-5 -271050543121376e-34 .00319 8e-4 -1e-5 3.141592653589795 1
.570796326794895 31 935 1007 0 1 933 934 937 +.00319 79e-5 -1e-5 0 -1 0 0 0 -1 1
e-5 31 936 1009 0 1 934 423 938 -.00319 79e-5 -1e-5 1 0 0 0 0 -1 1e-5 133 423 10
14 0 619 936 420 0 +420 .00319 8e-4 -.00159 .00319 8e-4 -1e-5 -1e-5 -.00159 141
 938 934 938 938 936 133 933 1006 0 179 400 935 0 +935 .0032 79e-5 -1e-5 .00319
 79e-5 0 1.570796326794895 3.141592653589795 141 937 933 937 937 935 31 400 976
 0 1 387 933 939 +.00319 1e-5 -1e-5 0 -1 314537625253759e-27 1 0 0 1e-5 141 939
 387 939 939 400 18 21 829 0 148 111 165 8 ?1 17 668 0 461 32 35 11 456 25 0 0 +
15 461 142 0 32 453 0 17 32 0 461 614 668 42 27 33 0 0 +17 35 0 461 668 614 28 9
40 237 0 456 +17 456 0 448 941 34 28 668 25 0 663 -17 941 0 448 51 456 36 663 66
1 0 665 -17 34 0 448 456 51 11 24 10 0 668 -17 663 0 465 940 57 28 941 661 0 0 +
15 465 173 0 282 460 807 17 940 0 465 942 663 48 35 237 0 0 -17 57 0 465 663 60
 36 242 240 0 941 -17 60 0 465 57 128 58 943 371 0 944 +17 242 0 469 612 665 58
 57 240 0 0 +15 469 261 0 242 464 0 17 612 0 469 235 242 45 944 259 0 158 +17 66
5 0 469 242 235 36 51 664 0 0 +17 235 0 469 665 612 49 158 233 0 24 +17 51 0 448
 34 941 49 665 664 0 235 -17 158 0 30 156 24 45 235 233 0 0 -17 24 0 30 158 27 4
9 34 10 0 0 +17 944 0 541 943 47 58 612 259 0 242 -15 541 823 0 151 536 0 17 943
 0 541 151 944 111 60 371 0 150 -17 47 0 541 944 151 45 156 159 0 612 -17 151 0
 541 47 943 21 150 370 0 156 -17 150 0 147 130 148 111 151 370 0 0 +17 128 0 465
 60 153 111 130 152 0 943 -17 153 0 465 128 282 129 123 145 0 135 +17 282 0 465
 153 942 121 126 279 0 0 -17 123 0 134 136 135 121 153 145 0 142 -17 142 0 280 1
26 119 121 136 143 0 282 +17 119 0 280 142 281 117 114 188 0 137 +17 281 0 280 1
19 126 112 283 604 0 0 +17 114 0 30 31 137 112 119 188 0 945 -17 31 0 30 27 114
 42 945 563 0 946 +17 945 0 505 283 946 112 31 563 0 281 -15 505 542 0 946 500 0
 17 283 0 505 53 945 54 281 604 0 942 -17 946 0 505 945 53 42 614 236 0 32 -17 5
3 0 505 946 283 48 942 239 0 614 +17 614 0 461 35 32 48 946 236 0 940 +17 942 0
 465 282 940 54 53 239 0 0 -82 1 452 999999 82 1 445 999999 141 424 423 424 424
 420 141 390 383 390 390 388 141 369 368 369 369 365 141 328 327 328 328 324 141
 293 292 293 293 290 141 172 171 172 172 169 19 17 5 0 1 0 9 5 S74 20 15 3 0 781
 2 450 0 0 0 0 0 0 0 0 0 0 0 0 0 0 0 0 0 84 4 14 NONE1 0 
