**ABCDEFGHIJKLMNOPQRSTUVWXYZabcdefghijklmnopqrstuvwxyz**************************
**PARASOLID !"#$%&'()*+,-./:;<=>?@[\]^_`{|}~0123456789**************************
**PART1;
MC=AMD64;
MC_MODEL=Intel64 Family 6 Model 37 Stepping 1, GenuineIntel;
MC_ID=unknown;
OS=Windows_NT;
OS_RELEASE=unknown;
FRU=Parasolid Version 28.0, build 174,  7- 3-2015;
APPL=SOLIDWORKS 2016-2015258;
SITE=;
USER=unknown;
FORMAT=text;
GUISE=transmit;
KEY=8C0E4EBF-240E-4BA4-AEEB-99AF7A7CD383;
FILE=8C0E4EBF-240E-4BA4-AEEB-99AF7A7CD383.x_t;
DATE=Wed Dec 23 08:30:34 2015;
**PART2;
SCH=SCH_2800174_28002;
USFLD_SIZE=0;
**PART3;
**END_OF_HEADER*****************************************************************
T51 : TRANSMIT FILE created by modeller version 280017417 SCH_1201000_121030 10
 1 5 2 3 0 0 0 0 0 1e3 1e-8 0 0 0 1 0 1 4 81 2 2 5 5 1 0 0 0 0 0 0 70 3 0 1 0 0
 4 1 20 8 6 6 1 T11 4 3 0 1 7 8 1 9 0 0 0 12 7 532 10 11 0 0 0 0 1e3 1e-8 4 12 0
 1 0 1 1 13 14 15 16 17 18 19 100 8 4 4 0 0 1 0 0 0 1 0 0 0 1 0 0 0 1 0 ?11 9 1
 0 1 12 20 1 0 4 0 0 12 12 920 21 22 0 0 0 0 1e3 1e-8 9 23 7 1 0 1 1 24 25 26 27
 28 29 30 100 20 2 9 0 0 1 0 0 0 1 0 0 0 1 0 0 0 1 0 ?81 1 21 838 31 12 0 0 32 0
 0 70 22 0 12 0 0 4 3 20 8 33 33 1 T13 24 704 0 12 0 34 0 0 35 0 50 25 687 0 34
 36 0 0 +-.001214532985656546 31e-5 .0003936284016390345 0 1 0 0 0 1 31 26 730 0
 37 38 0 0 +-.001214532985656546 31e-5 .0003936284016390345 0 -1 0 0 0 -1 .00014
94116762271336 29 27 722 0 39 40 0 -.001651758087201125 3e-4 .000209845288326300
5 19 28 705 0 12 35 0 41 V16 29 37 0 ?42 0 43 44 0 0 12 18 30 33 0 45 0 46 47 20
61552812829865e-23 12 17 45 0 48 42 49 30 50 51 0 52 +18 46 29 0 53 30 54 55 206
1552812892975e-23 12 29 47 329 0 30 0 56 -.001651758087201125 29e-5 -.0009901547
11673699 29 56 352 0 57 47 55 -.001009831863774692 .0011 -.000948228488247266 18
 57 342 0 58 59 60 56 ?12 29 55 354 0 46 56 61 .001548241912798875 29e-5 -.00099
0154711673699 29 61 405 0 62 55 63 .001548241912798875 29e-5 .000609845288326301
 18 62 17 0 64 65 66 61 2061552812829865e-23 12 29 63 433 0 67 61 68 -.001009831
863774692 .0011 .000567919064899868 18 67 421 0 69 70 71 63 ?12 29 68 441 0 72 6
3 73 .001548241912798875 3e-4 .000609845288326301 18 72 206 0 74 75 76 68 206155
2812829865e-23 12 29 73 442 0 66 68 77 -.001651758087201125 29e-5 .0006098452883
26301 18 66 13 0 78 62 79 73 2061552812829865e-23 12 29 77 571 0 60 73 80 .00154
8241912798875 3e-4 -.000990154711673699 18 60 374 0 81 57 70 77 2061552812892975
e-23 12 29 80 576 0 70 77 82 .000948241912798875 3e-4 -.000990154711673699 18 70
 379 0 83 60 67 80 206155281283235e-22 12 29 82 584 0 76 80 84 .0009482419127988
73 3e-4 .000609845288326301 18 76 237 0 85 72 39 82 206155281293505e-22 12 29 84
 655 0 86 82 87 -.001651758087201125 3e-4 .000609845288326301 18 86 465 0 88 71
 89 84 2061552812829865e-23 12 29 87 661 0 89 84 90 -.001651758087201125 3e-4 -.
000990154711673699 18 89 468 0 91 86 92 87 2061552812829865e-23 12 29 90 665 0 9
2 87 93 -.001051758087201126 3e-4 -.000990154711673699 18 92 469 0 94 89 95 90 2
06155281289314e-22 12 29 93 666 0 95 90 96 -.001051758087201126 3e-4 .0006098452
88326301 18 95 470 0 97 92 0 93 206155281283858e-22 12 29 96 667 0 71 93 98 .000
906315689372441 .0011 .000567919064899868 18 71 422 0 99 67 86 96 20615528128298
65e-23 12 29 98 668 0 59 96 100 .000906315689372442 .0011 -.000948228488247266 1
8 59 341 0 101 39 57 98 206155281280883e-22 12 29 100 709 0 65 98 102 .001548241
912798875 29e-5 .000209845288326301 18 65 21 0 103 54 62 100 ?12 29 102 710 0 54
 100 104 .001548241912798875 29e-5 -.000590154711673699 18 54 25 0 105 46 65 102
 ?12 29 104 713 0 106 102 107 -.001651758087201125 29e-5 -.000590154711673699 18
 106 6 0 108 79 109 104 ?12 29 107 714 0 79 104 110 -.001651758087201125 29e-5 .
0002098452883263005 18 79 8 0 111 66 106 107 ?12 29 110 717 0 75 107 112 .001548
241912798875 3e-4 .000209845288326301 18 75 174 0 113 114 72 110 ?12 29 112 718
 0 114 110 40 .001548241912798875 3e-4 -.000590154711673699 18 114 147 0 115 109
 75 112 ?12 29 40 721 0 109 112 27 -.001651758087201125 3e-4 -.00059015471167369
9 18 109 80 0 116 106 114 40 ?12 17 116 0 117 118 91 109 49 119 0 120 +15 117 45
4 0 88 121 0 17 118 0 117 88 116 39 120 122 0 123 +17 91 0 117 116 94 89 124 125
 0 50 +17 49 0 48 45 126 89 116 119 0 0 -16 119 460 0 ?116 127 125 128 0 0 12 17
 120 0 129 130 123 109 118 122 0 126 -15 129 296 0 130 131 0 17 130 0 129 132 12
0 106 126 133 0 42 -17 123 0 129 120 132 39 111 134 0 0 -16 122 297 0 ?118 134 1
35 136 0 0 12 17 126 0 48 49 42 109 130 133 0 0 +15 48 72 0 42 137 0 17 42 0 48
 126 45 106 52 29 0 0 +16 133 73 0 ?126 138 51 139 0 0 12 16 138 9 0 ?132 140 13
3 141 0 0 12 16 51 75 0 ?45 133 142 143 0 0 12 30 139 93 0 133 144 143 0 +-.0016
51758087201125 29e-5 -.000590154711673699 0 1 0 30 144 64 0 12 145 139 146 +-.00
1651758087201125 29e-5 -.0001901547116736995 0 0 1 133 143 96 0 51 139 147 0 +14
7 -.001651758087201125 3e-4 -.000990154711673699 -.001651758087201125 29e-5 -.00
0990154711673699 1e-5 0 30 147 97 0 12 143 148 149 --.001651758087201125 29e-5 -
.000990154711673699 0 1 0 133 148 98 0 43 147 150 0 +150 .001548241912798875 29e
-5 -.000990154711673699 -.001651758087201125 29e-5 -.000990154711673699 -1084202
172485504e-33 -.0032 141 149 143 149 149 147 16 43 34 0 ?151 29 152 148 0 0 12 3
0 150 99 0 12 148 153 154 -.001548241912798875 29e-5 -.000990154711673699 1 0 0
 133 153 135 0 155 150 156 0 +156 .001548241912798875 3e-4 -.000990154711673699
 .001548241912798875 29e-5 -.000990154711673699 1e-5 0 141 154 148 154 154 150 1
6 155 108 0 ?53 142 157 153 0 0 12 30 156 136 0 12 153 158 159 -.001548241912798
875 29e-5 -.000990154711673699 0 1 0 30 158 159 0 157 156 160 0 -.00154824191279
8875 29e-5 -.000590154711673699 0 1 0 141 159 153 159 159 156 16 157 143 0 ?105
 155 161 158 0 0 12 30 160 193 0 162 158 163 0 +.001548241912798875 29e-5 .00020
9845288326301 0 1 0 16 162 171 0 ?164 161 165 160 0 0 12 133 163 223 0 165 160 1
66 0 +166 .001548241912798875 3e-4 .000609845288326301 .001548241912798875 29e-5
 .000609845288326301 1e-5 0 16 165 202 0 ?64 162 167 163 0 0 12 30 166 224 0 12
 163 168 169 -.001548241912798875 29e-5 .000609845288326301 0 1 0 133 168 225 0
 170 166 171 0 +171 -.001651758087201125 29e-5 .000609845288326301 .001548241912
798875 29e-5 .000609845288326301 -.0032 0 141 169 163 169 169 166 16 170 18 0 ?1
72 173 140 168 0 0 12 30 171 226 0 12 168 174 175 +.001548241912798875 29e-5 .00
0609845288326301 1 0 0 133 174 262 0 176 171 177 0 +177 -.001651758087201125 3e-
4 .000609845288326301 -.001651758087201125 29e-5 .000609845288326301 1e-5 0 141
 175 168 175 175 171 16 176 235 0 ?78 178 134 174 0 0 12 30 177 263 0 12 174 179
 180 --.001651758087201125 29e-5 .000609845288326301 0 1 0 30 179 286 0 134 177
 181 0 --.001651758087201125 29e-5 .0002098452883263005 0 1 0 141 180 174 180 18
0 177 16 134 270 0 ?111 176 122 179 0 0 12 133 181 386 0 182 179 183 0 +183 .001
548241912798875 3e-4 -.000590154711673699 .001548241912798875 3e-4 -.00099015471
1673699 -4e-4 -8e-4 16 182 369 0 ?81 184 185 181 0 0 12 30 183 385 0 12 181 186
 187 -.001548241912798875 3e-4 -.0001901547116736995 0 0 1 133 186 401 0 167 183
 188 0 +188 .001548241912798875 3e-4 .000209845288326301 .001548241912798875 3e-
4 .000609845288326301 4e-4 0 141 187 181 187 187 183 16 167 203 0 ?74 165 189 18
6 0 0 12 30 188 402 0 12 186 190 191 -.001548241912798875 3e-4 .0006098452883263
01 0 0 -1 133 190 407 0 178 188 192 0 +192 .001548241912798875 3e-4 .00060984528
8326301 .000948241912798873 3e-4 .000609845288326301 .0032 .0026 141 191 186 191
 191 188 16 178 232 0 ?193 189 176 190 0 0 12 30 192 408 0 12 190 194 195 --.001
651758087201125 3e-4 .000609845288326301 1 0 0 133 194 435 0 185 192 196 0 +196
 .000948241912798875 3e-4 -.000990154711673699 .000948241912798875 3e-4 .0006098
45288326301 -8e-4 8e-4 141 195 190 195 195 192 16 185 373 0 ?85 182 197 194 0 0
 12 30 196 436 0 12 194 198 199 +.000948241912798875 3e-4 -.0001901547116736995
 0 0 1 133 198 437 0 200 196 201 0 +201 .000948241912798873 3e-4 .00060984528832
6301 .000906315689372441 .0011 .000567919064899868 0 .000802194251052454 141 199
 194 199 199 196 16 200 419 0 ?202 203 204 198 0 0 12 30 201 438 0 12 198 205 20
6 +.000948241912798873 3e-4 .000609845288326301 -.0522644276887124 .997264688634
238 -.052264427688714 133 205 439 0 189 201 207 0 +207 .000948241912798873 3e-4
 .000609845288326301 -.001051758087201126 3e-4 .000609845288326301 .0026 6e-4 14
1 206 198 206 206 201 16 189 231 0 ?208 167 178 205 0 0 12 30 207 440 0 12 205 2
09 210 --.001651758087201125 3e-4 .000609845288326301 1 0 0 133 209 477 0 127 20
7 211 0 +211 -.001651758087201125 3e-4 .0002098452883263005 -.001651758087201125
 3e-4 .000609845288326301 4e-4 8e-4 141 210 205 210 210 207 16 127 458 0 ?88 212
 119 209 0 0 12 30 211 476 0 12 209 128 213 +-.001651758087201125 3e-4 -.0001901
547116736995 0 0 1 133 128 475 0 119 211 214 0 +214 -.001651758087201125 3e-4 -.
000990154711673699 -.001651758087201125 3e-4 -.000590154711673699 -8e-4 -4e-4 14
1 213 209 213 213 211 30 214 474 0 12 128 215 216 +-.001651758087201125 3e-4 -.0
001901547116736995 0 0 1 30 215 532 0 217 214 218 0 +-.001009831863774692 .0011
 0 0 0 1 141 216 128 216 216 214 16 217 526 0 ?69 219 37 215 0 0 12 133 218 561
 0 184 215 220 0 +220 .001548241912798875 3e-4 -.000990154711673699 .00094824191
2798875 3e-4 -.000990154711673699 -1084202172485504e-33 -6e-4 16 184 368 0 ?83 2
21 182 218 0 0 12 30 220 562 0 12 218 222 223 -.001548241912798875 3e-4 -.000990
154711673699 1 0 0 133 222 564 0 142 220 224 0 +224 -.001051758087201124 3e-4 -.
000990154711673699 .000948241912798875 3e-4 -.000990154711673699 -6e-4 -.0026 14
1 223 218 223 223 220 16 142 104 0 ?225 51 155 222 0 0 12 30 224 565 0 12 222 22
6 227 --.001651758087201125 3e-4 -.000990154711673699 -1 0 0 133 226 568 0 135 2
24 228 0 +228 .000906315689372442 .0011 -.000948228488247266 .000948241912798875
 3e-4 -.000990154711673699 0 .000802194251052454 141 227 222 227 227 224 16 135
 337 0 ?229 122 230 226 0 0 12 30 228 569 0 12 226 231 232 +.000906315689372442
 .0011 -.000948228488247266 .052264427688714 -.997264688634237 -.052264427688714
 133 231 578 0 219 228 233 0 +233 .000906315689372442 .0011 -.000948228488247266
 .000906315689372442 .0011 .000567919064899868 4192622342643305e-20 .00155807377
6573565 141 232 226 232 232 228 16 219 503 0 ?99 234 217 231 0 0 12 30 233 579 0
 12 231 235 236 +.000906315689372442 .0011 -.000990154711673699 -135154060751761
8e-31 -708312418508509e-32 1 133 235 582 0 203 233 237 0 +237 .00090631568937244
1 .0011 .000567919064899868 -.001009831863774692 .0011 .000567919064899868 .0019
58073776573565 4192622342643305e-20 141 236 231 236 236 233 16 203 418 0 ?238 19
7 200 235 0 0 12 30 237 583 0 12 235 239 240 --.001051758087201124 .0011 .000567
919064899868 1 0 0 133 239 645 0 212 237 241 0 +241 -.001651758087201125 3e-4 .0
00609845288326301 -.001051758087201126 3e-4 .000609845288326301 -.0032 -.0026 14
1 240 235 240 240 237 16 212 457 0 ?97 204 127 239 0 0 12 30 241 646 0 12 239 24
2 243 +.001548241912798875 3e-4 .000609845288326301 1 0 0 133 242 650 0 197 241
 244 0 +244 -.001009831863774692 .0011 .000567919064899868 -.001051758087201126
 3e-4 .000609845288326301 0 .000802194251052454 141 243 239 243 243 241 16 197 4
17 0 ?245 185 203 242 0 0 12 30 244 651 0 12 242 246 247 +-.001009831863774692 .
0011 .000567919064899868 -.0522644276887153 -.997264688634237 .052264427688714 1
33 246 652 0 234 244 248 0 +248 -.001051758087201126 3e-4 .000609845288326301 -.
001051758087201126 3e-4 -.000990154711673699 8e-4 -8e-4 141 247 242 247 247 244
 16 234 462 0 ?94 125 219 246 0 0 12 30 248 653 0 12 246 249 250 --.001051758087
201126 3e-4 -.0001901547116736995 0 0 1 133 249 657 0 125 248 251 0 +251 -.00105
1758087201126 3e-4 -.000990154711673699 -.001651758087201125 3e-4 -.000990154711
673699 -.0026 -.0032 141 250 246 250 250 248 16 125 461 0 ?91 119 234 249 0 0 12
 30 251 658 0 12 249 252 253 -.001548241912798875 3e-4 -.000990154711673699 1 0
 0 133 252 663 0 221 251 254 0 +254 -.001051758087201124 3e-4 -.0009901547116736
99 -.001009831863774692 .0011 -.000948228488247266 -54061827098016e-33 .00080219
4251052454 141 253 249 253 253 251 16 221 339 0 ?58 230 184 252 0 0 12 30 254 66
4 0 12 252 255 256 +-.001051758087201124 3e-4 -.000990154711673699 .052264427688
7137 .997264688634237 .052264427688714 133 255 669 0 230 254 257 0 +257 -.001009
831863774692 .0011 -.000948228488247266 .000906315689372442 .0011 -.000948228488
247266 4192622342643305e-20 .001958073776573565 141 256 252 256 256 254 16 230 3
38 0 ?101 135 221 255 0 0 12 30 257 670 0 12 255 258 259 +-.001051758087201124 .
0011 -.000948228488247266 1 0 0 31 258 708 0 260 257 141 0 -.001548241912798875
 29e-5 -.0001901547116736995 0 1 0 0 0 1 4e-4 141 259 255 259 259 257 16 260 26
 0 ?261 152 173 258 0 0 12 31 141 712 0 138 258 262 0 --.001651758087201125 29e-
5 -.0001901547116736995 0 1 0 0 0 1 4e-4 31 262 716 0 161 141 136 0 -.0015482419
12798875 3e-4 -.0001901547116736995 0 1 0 0 0 1 4e-4 16 161 170 0 ?263 157 162 2
62 0 0 12 31 136 720 0 122 262 38 0 --.001651758087201125 3e-4 -.000190154711673
6995 0 1 0 0 0 1 4e-4 31 38 724 0 204 136 26 0 +-.001214532985656546 3e-4 .00039
36284016390345 0 -1 0 0 0 -1 .0001494116762271336 16 204 455 0 ?264 200 212 38 0
 0 12 17 264 0 265 264 264 0 266 204 0 0 +15 265 453 0 264 121 117 17 266 0 267
 266 266 0 264 204 0 0 -15 267 736 0 266 268 269 14 268 586 270 1e-8 271 34 267
 24 36 +0 0 34 271 41 15 269 588 0 272 268 0 17 272 0 269 272 272 0 273 37 0 0 +
17 273 0 274 273 273 0 272 37 0 0 -16 37 592 0 ?272 217 0 26 0 0 12 15 274 682 0
 273 34 0 14 34 680 275 1e-8 268 0 274 24 25 +0 0 0 268 41 81 1 275 904 276 34 2
77 0 270 278 279 13 41 3 0 0 0 0 0 0 28 280 14 280 2 278 1e-8 0 137 281 24 282 -
0 0 137 0 41 81 1 278 905 276 280 283 0 275 284 285 14 137 70 284 1e-8 280 286 4
8 24 287 +0 0 286 280 41 15 281 7 0 288 280 0 50 282 12 0 280 0 287 0 +.00154824
1912798875 29e-5 -.0001901547116736995 0 1 0 0 0 1 50 287 81 0 137 282 289 0 +-.
001651758087201125 29e-5 -.000590154711673699 -1 0 0 0 0 1 50 289 116 0 286 287
 290 0 +-.001651758087201125 29e-5 -.000990154711673699 0 0 -1 -1 0 0 14 286 101
 291 1e-8 137 292 293 24 289 +0 0 292 137 41 50 290 149 0 292 289 294 0 +.001548
241912798875 29e-5 -.000990154711673699 1 0 3794707603699265e-30 379470760369926
5e-30 0 -1 14 292 138 295 1e-8 286 296 297 24 290 +0 0 296 286 41 51 294 178 0 2
96 290 298 0 +.001548241912798875 29e-5 -.0001901547116736995 0 1 0 4e-4 0 0 1 1
4 296 167 299 1e-8 292 300 301 24 294 -0 0 300 292 41 50 298 208 0 300 294 302 0
 +.001548241912798875 29e-5 .000609845288326301 1 0 0 0 0 -1 14 300 197 303 1e-8
 296 304 305 24 298 +0 0 304 296 41 50 302 243 0 304 298 306 0 +-.00165175808720
1125 29e-5 .000609845288326301 0 0 1 1 0 0 14 304 228 307 1e-8 300 308 309 24 30
2 +0 0 308 300 41 50 306 276 0 308 302 310 0 +-.001651758087201125 29e-5 .000209
8452883263005 -1 0 0 0 0 1 14 308 265 311 1e-8 304 131 312 24 306 +0 0 131 304 4
1 51 310 305 0 131 306 313 0 +-.001651758087201125 29e-5 -.0001901547116736995 0
 1 0 4e-4 0 0 1 14 131 294 314 1e-8 308 315 129 24 310 -0 0 315 308 41 50 313 34
5 0 315 310 316 0 +-.001051758087201124 3e-4 -.000990154711673699 0 .05233595624
2944 -.998629534754574 0 .998629534754574 .052335956242944 14 315 334 317 1e-8 1
31 318 319 24 313 +0 0 318 131 41 50 316 380 0 318 313 320 0 +.00154824191279887
5 3e-4 -.0001901547116736995 0 1 0 0 0 1 14 318 365 321 1e-8 315 322 323 24 316
 +0 0 322 315 41 50 320 425 0 322 316 324 0 +-.001051758087201124 3e-4 .00060984
5288326301 0 .052335956242944 .998629534754574 0 -.998629534754574 .052335956242
944 14 322 414 325 1e-8 318 121 326 24 320 +0 0 121 318 41 50 324 471 0 121 320
 327 0 +.001548241912798875 3e-4 -.0001901547116736995 0 1 0 0 0 1 14 121 451 32
8 1e-8 322 329 265 24 324 +0 0 329 322 41 50 327 510 0 329 324 330 0 +.000948241
912798875 3e-4 -.000990154711673699 .998629534754574 .052335956242944 1353395388
861372e-31 -.052335956242944 .998629534754574 0 14 329 499 331 1e-8 121 332 333
 24 327 +0 0 332 121 41 50 330 531 0 332 327 334 0 +0 .0011 0 0 1 0 0 0 1 14 332
 520 335 1e-8 329 271 336 24 330 +0 0 271 329 41 50 334 552 0 271 330 36 0 +-.00
1051758087201124 3e-4 -.000990154711673699 -.998629534754574 .052335956242944 13
53395388861372e-31 -.052335956242944 -.998629534754574 0 14 271 541 337 1e-8 332
 268 338 24 334 +0 0 268 332 41 51 36 597 0 268 334 25 0 +-.001214532985656546 3
1e-5 .0003936284016390345 0 -1 0 .0001494116762271336 0 0 -1 81 1 337 920 276 27
1 339 0 335 0 340 15 338 543 0 341 271 0 17 341 0 338 342 343 57 69 217 0 344 -1
7 342 0 338 345 341 92 58 221 0 124 -17 343 0 338 341 345 67 245 197 0 0 -17 69
 0 336 346 344 67 341 217 0 238 +17 344 0 336 69 347 57 101 230 0 0 -15 336 522
 0 347 332 0 17 347 0 336 344 346 59 99 219 0 348 -17 101 0 319 229 58 59 344 23
0 0 347 +15 319 336 0 101 315 0 17 229 0 319 349 101 70 348 135 0 350 +17 58 0 3
19 101 349 57 342 221 0 341 +17 349 0 319 58 229 92 225 142 0 342 -17 225 0 293
 351 124 70 349 142 0 229 +15 293 103 0 124 286 0 17 351 0 293 53 225 60 83 184
 0 0 -17 124 0 293 225 50 92 91 125 0 0 -17 50 0 293 124 151 89 45 51 0 49 -17 1
51 0 293 50 53 30 288 43 0 0 +17 53 0 293 151 351 46 352 155 0 288 +17 288 0 281
 353 52 46 151 43 0 354 -17 353 0 281 355 288 54 354 152 0 261 -17 52 0 281 288
 108 30 42 29 0 151 -17 354 0 297 352 105 46 353 152 0 0 +15 297 140 0 354 292 0
 17 352 0 297 115 354 60 53 155 0 351 -17 105 0 297 354 115 54 356 157 0 353 +16
 152 30 0 ?354 43 260 357 0 0 12 133 357 55 0 152 358 359 0 +359 .00154824191279
8875 29e-5 -.000590154711673699 .001548241912798875 29e-5 -.000990154711673699 -
4e-4 -8e-4 30 358 51 0 12 44 357 360 +-.001651758087201125 29e-5 -.0001901547116
736995 0 0 1 30 359 56 0 12 357 361 362 -.001548241912798875 29e-5 -.00019015471
16736995 0 0 1 133 361 58 0 173 359 363 0 +363 .001548241912798875 29e-5 .000609
845288326301 .001548241912798875 29e-5 .000209845288326301 8e-4 4e-4 141 362 357
 362 362 359 16 173 22 0 ?364 260 170 361 0 0 12 30 363 59 0 12 361 145 365 -.00
1548241912798875 29e-5 -.0001901547116736995 0 0 1 133 145 63 0 140 363 144 0 +1
44 -.001651758087201125 29e-5 .0002098452883263005 -.001651758087201125 29e-5 .0
00609845288326301 4e-4 8e-4 141 365 361 365 365 363 16 140 14 0 ?366 170 138 145
 0 0 12 17 366 0 312 367 111 66 368 140 0 0 +15 312 267 0 366 308 0 17 367 0 312
 369 366 86 78 176 0 370 -17 111 0 312 366 369 79 123 134 0 368 +17 368 0 281 10
8 371 79 366 140 0 132 -17 108 0 281 52 368 106 132 138 0 130 -17 371 0 281 368
 372 66 172 170 0 366 -17 132 0 129 123 130 79 108 138 0 0 +17 372 0 281 371 355
 62 364 173 0 172 -17 172 0 309 373 78 62 371 170 0 0 +15 309 230 0 193 304 0 17
 373 0 309 193 172 72 64 165 0 0 -17 78 0 309 172 370 66 367 176 0 371 +17 370 0
 309 78 208 86 97 212 0 0 -17 208 0 309 370 193 95 374 189 0 245 +17 97 0 117 94
 88 95 370 212 0 208 +17 94 0 117 91 97 92 345 234 0 349 +17 88 0 117 97 118 86
 369 127 0 367 +17 369 0 312 111 367 39 88 127 0 118 -18 39 274 0 369 76 59 27 ?
12 17 345 0 338 343 342 95 94 234 0 0 -17 193 0 309 208 373 76 375 178 0 376 +17
 374 0 326 202 245 76 208 189 0 0 -17 245 0 326 374 238 95 343 197 0 345 +15 326
 416 0 238 322 0 17 238 0 326 245 202 67 346 203 0 343 +17 202 0 326 238 374 71
 376 200 0 346 +17 346 0 336 347 69 71 238 203 0 0 -17 376 0 333 350 99 76 202 2
00 0 374 -15 333 501 0 99 329 0 17 350 0 333 348 376 70 85 185 0 0 -17 99 0 333
 376 348 71 347 219 0 202 +17 348 0 333 99 350 59 229 135 0 0 -17 85 0 323 375 8
3 76 350 185 0 193 +15 323 367 0 81 318 0 17 375 0 323 113 85 72 193 178 0 373 -
17 83 0 323 85 81 70 351 184 0 225 +17 81 0 323 83 263 60 115 182 0 352 +17 263
 0 323 81 113 114 377 161 0 356 +17 115 0 297 105 352 114 81 182 0 263 -17 113 0
 323 263 375 75 74 167 0 377 -17 377 0 301 103 356 75 263 161 0 164 -17 356 0 30
1 377 261 114 105 157 0 0 -15 301 169 0 103 296 0 17 261 0 301 356 103 54 355 26
0 0 0 +17 103 0 301 261 377 65 164 162 0 355 -17 355 0 281 372 353 65 261 260 0
 364 -17 364 0 305 164 64 65 372 173 0 0 +15 305 199 0 364 300 0 17 164 0 305 74
 364 75 103 162 0 0 +17 64 0 305 364 74 62 373 165 0 372 +17 74 0 305 64 164 72
 113 167 0 375 +133 44 50 0 29 0 358 0 +358 -.001651758087201125 29e-5 -.0009901
54711673699 -.001651758087201125 29e-5 -.000590154711673699 -8e-4 -4e-4 141 360
 44 360 360 358 80 1 276 378 379 9000 1 1 1 1 1 1 1 1 0 FFFFTFTFFFFFFF1 81 1 339
 841 380 271 0 337 381 382 383 81 1 335 919 276 332 382 0 331 337 384 82 1 340 9
99999 81 1 382 842 380 332 0 335 339 385 386 81 1 331 918 276 329 385 0 328 335
 387 82 1 384 999999 81 1 385 843 380 329 0 331 382 388 389 81 1 328 917 276 121
 388 0 325 331 390 82 1 387 999999 81 1 388 844 380 121 0 328 385 391 392 81 1 3
25 916 276 322 391 0 321 328 393 82 1 390 999999 81 1 391 845 380 322 0 325 388
 394 395 81 1 321 915 276 318 394 0 317 325 396 82 1 393 999999 81 1 394 846 380
 318 0 321 391 397 398 81 1 317 914 276 315 397 0 314 321 399 82 1 396 999999 81
 1 397 847 380 315 0 317 394 400 401 81 1 314 913 276 131 400 0 311 317 402 82 1
 399 999999 81 1 400 848 380 131 0 314 397 403 404 81 1 311 912 276 308 403 0 30
7 314 405 82 1 402 999999 81 1 403 849 380 308 0 311 400 406 407 81 1 307 911 27
6 304 406 0 303 311 408 82 1 405 999999 81 1 406 850 380 304 0 307 403 409 410 8
1 1 303 910 276 300 409 0 299 307 411 82 1 408 999999 81 1 409 851 380 300 0 303
 406 412 413 81 1 299 909 276 296 412 0 295 303 414 82 1 411 999999 81 1 412 852
 380 296 0 299 409 415 416 81 1 295 908 276 292 415 0 291 299 417 82 1 414 99999
9 81 1 415 853 380 292 0 295 412 418 419 81 1 291 907 276 286 418 0 284 295 420
 82 1 417 999999 81 1 418 854 380 286 0 291 415 421 422 81 1 284 906 276 137 421
 0 278 291 423 82 1 420 999999 81 1 421 855 380 137 0 284 418 283 424 82 1 423 9
99999 80 1 380 0 425 8001 0 0 0 0 3 5 0 0 0 FFFFTFTFFFFFFF2 81 1 283 856 380 280
 0 278 421 0 426 83 3 424 .968627450980392 .87843137254902 .6 83 3 426 .96862745
0980392 .87843137254902 .6 79 15 425 SDL/TYSA_COLOUR83 3 422 .968627450980392 .8
7843137254902 .6 83 3 419 .968627450980392 .87843137254902 .6 83 3 416 .96862745
0980392 .87843137254902 .6 83 3 413 .968627450980392 .87843137254902 .6 83 3 410
 .968627450980392 .87843137254902 .6 83 3 407 .968627450980392 .87843137254902 .
6 83 3 404 .968627450980392 .87843137254902 .6 83 3 401 1 1 1 83 3 398 .96862745
0980392 .87843137254902 .6 83 3 395 1 1 1 83 3 392 .968627450980392 .87843137254
902 .6 83 3 389 1 1 1 83 3 386 1 1 1 81 1 381 840 380 268 0 270 277 339 427 83 3
 383 1 1 1 81 1 270 903 276 268 381 0 0 275 428 81 1 277 839 380 34 32 275 0 381
 429 83 3 427 .2862745098039215 .662745098039216 .3294117647058825 81 1 32 836 3
1 34 0 277 0 21 430 83 3 429 .2862745098039215 .662745098039216 .329411764705882
5 80 1 31 431 432 8017 0 0 0 0 0 0 0 0 0 TTTTTTTTTTTTTF3 84 4 430 NONE79 13 432
 SDL/TYSA_NAME82 1 428 999999 79 14 379 SWEntUnchanged82 1 285 999999 82 1 279 9
99999 141 146 145 146 146 144 19 35 5 0 12 0 28 24 S74 20 33 3 0 337 21 283 0 0
 0 0 0 0 0 0 0 0 0 0 0 0 0 0 0 81 1 10 482 31 7 0 0 0 0 0 70 11 0 7 0 0 4 3 20 8
 433 433 1 T13 13 404 0 7 0 434 0 0 435 0 50 14 329 0 434 436 0 0 +-.00165175808
7201125 0 -.0001901547116736995 0 1 0 0 0 1 31 15 420 0 437 438 0 0 --.001651758
087201125 0 -.0001901547116736995 0 -1 0 0 0 -1 4e-4 29 16 422 0 439 440 0 -.001
651758087201125 0 -.000590154711673699 19 17 5 0 7 435 0 441 V16 18 37 0 ?442 0
 443 444 0 0 7 18 19 33 0 445 0 446 447 2061552812892975e-23 7 17 445 0 448 449
 450 19 451 452 0 453 +18 446 29 0 454 19 455 456 ?7 29 447 303 0 19 0 457 .0015
48241912798875 29e-5 -.000990154711673699 29 457 359 0 458 447 459 -.00165175808
7201125 29e-5 -.000990154711673699 18 458 6 0 460 461 462 457 2061552812829865e-
23 7 29 459 365 0 462 457 463 .001548241912798875 0 -.000990154711673699 18 462
 78 0 464 458 465 459 206155281280883e-22 7 29 463 375 0 466 459 467 .0015482419
12798875 29e-5 .000609845288326301 18 466 21 0 468 455 469 463 2061552812829865e
-23 7 29 467 383 0 469 463 470 -.001651758087201125 29e-5 .000609845288326301 18
 469 17 0 471 466 472 467 2061552812829865e-23 7 29 470 388 0 473 467 474 .00154
8241912798875 0 .000609845288326301 18 473 162 0 475 476 477 470 206155281282986
5e-23 7 29 474 394 0 477 470 478 -.001651758087201125 0 .000609845288326301 18 4
77 193 0 479 473 480 474 206155281280883e-22 7 29 478 402 0 465 474 481 -.001651
758087201125 0 -.000990154711673699 18 465 79 0 482 462 483 478 206155281280883e
-22 7 29 481 409 0 455 478 456 .001548241912798875 29e-5 .0002098452883263005 18
 455 25 0 484 446 466 481 ?7 29 456 410 0 446 481 485 .001548241912798875 29e-5
 -.000590154711673699 29 485 413 0 461 456 486 -.001651758087201125 29e-5 -.0005
90154711673699 18 461 8 0 487 472 458 485 ?7 29 486 414 0 472 485 488 -.00165175
8087201125 29e-5 .0002098452883263005 18 472 13 0 489 469 461 486 ?7 29 488 417
 0 483 486 490 .001548241912798875 0 -.000590154711673699 18 483 99 0 491 465 47
6 488 ?7 29 490 418 0 476 488 440 .001548241912798875 0 .0002098452883263005 18
 476 132 0 492 483 473 490 ?7 29 440 421 0 480 490 16 -.001651758087201125 0 .00
02098452883263005 18 480 222 0 493 477 439 440 ?7 17 493 0 494 495 479 480 496 4
97 0 498 +18 439 251 0 495 480 0 16 ?7 17 495 0 494 482 493 439 498 437 0 499 +1
5 494 312 0 464 434 0 17 482 0 494 464 495 465 499 500 0 501 +17 498 0 502 489 5
03 480 495 437 0 504 -16 437 248 0 ?495 505 500 15 0 0 7 17 499 0 506 487 501 43
9 482 500 0 503 -15 506 275 0 501 507 0 17 487 0 506 460 499 461 503 505 0 508 +
17 501 0 506 499 460 465 509 510 0 511 +16 500 278 0 ?482 437 0 512 0 0 7 17 503
 0 502 498 508 439 487 505 0 0 -15 502 245 0 503 513 0 17 508 0 502 503 489 461
 514 515 0 516 -16 505 247 0 ?487 497 437 517 0 0 7 16 497 219 0 ?493 518 505 51
9 0 0 7 30 517 267 0 505 520 521 0 --.001651758087201125 3e-4 -.0005901547116736
99 0 -1 0 30 520 235 0 518 522 517 0 +-.001651758087201125 3e-4 .000209845288326
3005 0 1 0 133 521 301 0 510 517 523 0 +523 -.001651758087201125 29e-5 -.0009901
54711673699 -.001651758087201125 0 -.000990154711673699 -1e-5 -3e-4 16 510 76 0
 ?501 524 525 521 0 0 7 30 523 302 0 7 521 526 527 --.001651758087201125 3e-4 -.
000990154711673699 0 1 0 133 526 305 0 528 523 529 0 +529 .001548241912798875 0
 -.000990154711673699 .001548241912798875 0 -.000590154711673699 0 4e-4 141 527
 521 527 527 523 16 528 96 0 ?491 525 530 526 0 0 7 30 529 306 0 7 526 531 532 +
.001548241912798875 0 -.000990154711673699 -542101086242752e-30 0 1 133 531 307
 0 524 529 533 0 +533 -.001651758087201125 0 -.000990154711673699 .0015482419127
98875 0 -.000990154711673699 0 .0032 141 532 526 532 532 529 16 524 75 0 ?464 45
2 510 531 0 0 7 30 533 308 0 7 531 512 534 +-.001651758087201125 0 -.00099015471
1673699 1 0 0 133 512 356 0 500 533 535 0 +535 -.001651758087201125 0 -.00059015
4711673699 -.001651758087201125 0 -.000990154711673699 -4e-4 0 141 534 531 534 5
34 533 30 535 357 0 7 512 536 537 +-.001651758087201125 0 -.000990154711673699 0
 0 -1 133 536 368 0 538 535 539 0 +539 .001548241912798875 0 .000209845288326300
5 .001548241912798875 0 .000609845288326301 542101086242752e-34 4e-4 141 537 512
 537 537 535 16 538 159 0 ?475 540 541 536 0 0 7 30 539 369 0 7 536 542 543 +.00
1548241912798875 0 .0002098452883263005 0 0 1 133 542 377 0 544 539 545 0 +545 .
001548241912798875 0 .000609845288326301 -.001651758087201125 0 .000609845288326
301 -.0032 0 141 543 536 543 543 539 16 544 190 0 ?479 541 518 542 0 0 7 30 545
 378 0 7 542 519 546 +-.001651758087201125 0 .000609845288326301 -1 0 0 133 519
 385 0 497 545 547 0 +547 -.001651758087201125 0 .000609845288326301 -.001651758
087201125 0 .0002098452883263005 -4e-4 -271050543121376e-34 141 546 542 546 546
 545 30 547 386 0 7 519 548 549 +-.001651758087201125 0 .0002098452883263005 0 0
 -1 31 548 408 0 550 547 551 0 +.001548241912798875 29e-5 -.0001901547116736995
 0 -1 0 0 0 -1 4e-4 141 549 519 549 549 547 16 550 30 0 ?552 443 553 548 0 0 7 3
1 551 412 0 515 548 438 0 +-.001651758087201125 29e-5 -.0001901547116736995 0 -1
 0 0 0 -1 4e-4 16 515 14 0 ?514 554 555 551 0 0 7 31 438 416 0 556 551 15 0 -.00
1548241912798875 0 -.0001901547116736995 0 -1 0 0 0 -1 4e-4 16 556 129 0 ?492 53
0 540 438 0 0 7 17 492 0 494 475 491 476 557 556 0 558 +16 530 128 0 ?484 528 55
6 559 0 0 7 16 540 158 0 ?468 556 538 560 0 0 7 17 468 0 561 562 563 466 564 540
 0 565 +133 560 180 0 540 559 566 0 +566 .001548241912798875 0 .0006098452883263
01 .001548241912798875 29e-5 .000609845288326301 -3e-4 -1e-5 30 559 148 0 530 56
7 560 0 -.001548241912798875 3e-4 .0002098452883263005 0 -1 0 30 566 181 0 7 560
 568 569 +.001548241912798875 3e-4 .000609845288326301 0 1 0 133 568 182 0 570 5
66 571 0 +571 -.001651758087201125 29e-5 .000609845288326301 .001548241912798875
 29e-5 .000609845288326301 -.0032 0 141 569 560 569 569 566 16 570 22 0 ?572 553
 554 568 0 0 7 30 571 183 0 7 568 573 574 +.001548241912798875 29e-5 .0006098452
88326301 1 0 0 133 573 211 0 541 571 522 0 +522 -.001651758087201125 0 .00060984
5288326301 -.001651758087201125 29e-5 .000609845288326301 -3e-4 -1e-5 141 574 56
8 574 574 571 16 541 189 0 ?471 538 544 573 0 0 7 30 522 212 0 7 573 520 575 +-.
001651758087201125 3e-4 .000609845288326301 0 1 0 141 575 573 575 575 522 17 471
 0 576 577 496 469 578 541 0 562 +15 576 216 0 504 579 0 17 577 0 576 504 471 47
2 580 554 0 514 -17 496 0 576 471 504 477 493 497 0 578 -17 578 0 561 563 562 47
7 471 541 0 0 -17 562 0 561 578 468 469 572 570 0 580 -15 561 187 0 578 581 0 17
 572 0 582 583 580 466 562 570 0 0 +17 580 0 582 572 514 469 577 554 0 0 +15 582
 7 0 584 585 0 17 514 0 582 580 516 472 508 515 0 0 +16 554 18 0 ?580 570 515 58
6 0 0 7 133 586 60 0 554 587 588 0 +588 -.001651758087201125 29e-5 .000209845288
3263005 -.001651758087201125 29e-5 .000609845288326301 4e-4 8e-4 30 587 56 0 7 5
89 586 590 -.001548241912798875 29e-5 -.0001901547116736995 0 0 1 30 588 61 0 7
 586 591 592 +-.001651758087201125 29e-5 -.0001901547116736995 0 0 1 133 591 63
 0 555 588 593 0 +593 -.001651758087201125 29e-5 -.000990154711673699 -.00165175
8087201125 29e-5 -.000590154711673699 -8e-4 -4e-4 141 592 586 592 592 588 16 555
 9 0 ?516 515 452 591 0 0 7 30 593 64 0 7 591 594 595 +-.001651758087201125 29e-
5 -.0001901547116736995 0 0 1 30 594 112 0 525 593 444 0 +.001548241912798875 3e
-4 -.000590154711673699 0 1 0 141 595 591 595 595 593 16 525 95 0 ?454 510 528 5
94 0 0 7 133 444 118 0 18 594 596 0 +596 .001548241912798875 29e-5 -.00099015471
1673699 -.001651758087201125 29e-5 -.000990154711673699 -1084202172485504e-33 -.
0032 30 596 119 0 7 444 597 598 -.001548241912798875 29e-5 -.000990154711673699
 1 0 0 133 597 120 0 452 596 567 0 +567 .001548241912798875 0 -.0009901547116736
99 .001548241912798875 29e-5 -.000990154711673699 -3e-4 -1e-5 141 598 444 598 59
8 596 16 452 74 0 ?445 555 524 597 0 0 7 30 567 121 0 7 597 559 599 +.0015482419
12798875 3e-4 -.000990154711673699 0 1 0 141 599 597 599 599 567 17 454 0 600 60
1 557 446 602 525 0 449 +15 600 126 0 603 604 0 17 601 0 600 603 454 455 552 550
 0 583 -17 557 0 600 454 603 483 492 556 0 602 -17 602 0 448 450 449 483 454 525
 0 0 -17 449 0 448 602 445 446 584 443 0 552 -15 448 93 0 602 605 0 17 584 0 582
 442 552 19 449 443 0 0 +16 443 34 0 ?584 18 550 606 0 0 7 17 552 0 582 584 583
 446 601 550 0 0 +17 583 0 582 552 572 455 565 553 0 0 +17 565 0 607 564 484 466
 583 553 0 572 -16 553 26 0 ?583 550 570 589 0 0 7 133 589 55 0 553 608 587 0 +5
87 .001548241912798875 29e-5 .000609845288326301 .001548241912798875 29e-5 .0002
098452883263005 8e-4 4e-4 30 608 53 0 7 606 589 609 -.001548241912798875 29e-5 -
.0001901547116736995 0 0 1 133 606 52 0 443 0 608 0 +608 .001548241912798875 29e
-5 -.000590154711673699 .001548241912798875 29e-5 -.000990154711673699 -4e-4 -8e
-4 141 609 606 609 609 608 15 607 156 0 564 610 0 17 564 0 607 558 565 473 468 5
40 0 0 -17 484 0 607 565 558 455 603 530 0 601 +17 558 0 607 484 564 476 475 538
 0 603 -17 603 0 600 557 601 476 484 530 0 0 -17 475 0 494 479 492 473 558 538 0
 563 +17 479 0 494 493 475 477 563 544 0 496 +17 563 0 561 468 578 473 479 544 0
 564 -14 610 154 611 1e-8 604 581 607 13 612 -0 0 581 604 441 81 1 611 523 276 6
10 613 0 0 614 615 14 604 124 614 1e-8 605 610 600 13 616 -0 0 610 605 441 14 58
1 185 617 1e-8 610 579 561 13 618 -0 0 579 610 441 50 612 165 0 610 616 618 0 +.
001548241912798875 3e-4 .0002098452883263005 -1 0 0 0 0 1 13 441 3 0 0 0 0 0 0 1
7 585 14 585 2 619 1e-8 0 620 582 13 621 +0 0 620 0 441 81 1 619 526 276 585 622
 0 617 623 624 14 620 70 623 1e-8 585 605 625 13 626 -0 0 605 585 441 50 621 12
 0 585 0 626 0 +.001548241912798875 29e-5 -.0001901547116736995 0 1 0 0 0 1 50 6
26 81 0 620 621 627 0 +-.001651758087201125 3e-4 -.000990154711673699 0 0 1 1 0
 0 50 627 102 0 605 626 616 0 +.001548241912798875 3e-4 -.000990154711673699 -1
 0 -542101086242752e-30 -542101086242752e-30 0 1 14 605 91 628 1e-8 620 604 448
 13 627 -0 0 604 620 441 51 616 135 0 604 627 612 0 +.001548241912798875 3e-4 -.
0001901547116736995 0 -1 0 4e-4 0 0 -1 81 1 628 528 276 605 629 0 623 630 631 81
 1 629 490 380 605 0 628 632 633 634 81 1 623 527 276 620 633 0 619 628 635 81 1
 630 529 276 579 636 0 628 637 638 82 1 631 999999 14 579 214 630 1e-8 581 513 5
76 13 639 -0 0 513 581 441 81 1 636 486 380 579 0 630 640 641 642 81 1 637 530 2
76 513 640 0 630 643 644 82 1 638 999999 14 513 243 637 1e-8 579 507 502 13 645
 -0 0 507 579 441 81 1 640 485 380 513 0 637 646 636 647 81 1 643 531 276 507 64
6 0 637 648 649 82 1 644 999999 14 507 273 643 1e-8 513 434 506 13 436 -0 0 434
 513 441 81 1 646 484 380 507 0 643 650 640 651 81 1 648 532 276 434 650 0 643 0
 652 82 1 649 999999 14 434 310 648 1e-8 507 0 494 13 14 -0 0 0 507 441 81 1 650
 483 380 434 0 648 0 646 653 82 1 652 999999 83 3 653 .843137254901961 .81568627
4509804 .752941176470588 83 3 651 .843137254901961 .815686274509804 .75294117647
0588 50 436 284 0 507 645 14 0 +-.001651758087201125 3e-4 -.000990154711673699 1
 0 0 0 0 -1 51 645 254 0 513 639 436 0 +-.001651758087201125 3e-4 -.000190154711
6736995 0 -1 0 4e-4 0 0 -1 50 639 225 0 579 618 645 0 +-.001651758087201125 3e-4
 .0002098452883263005 1 0 0 0 0 -1 50 618 196 0 581 612 639 0 +-.001651758087201
125 3e-4 .000609845288326301 0 0 -1 -1 0 0 83 3 647 .843137254901961 .8156862745
09804 .752941176470588 81 1 641 487 380 581 0 617 636 613 654 83 3 642 .84313725
4901961 .815686274509804 .752941176470588 81 1 617 525 276 581 641 0 614 619 655
 81 1 613 488 380 610 0 611 641 632 656 83 3 654 .843137254901961 .8156862745098
04 .752941176470588 81 1 632 489 380 604 0 614 613 629 657 83 3 656 .84313725490
1961 .815686274509804 .752941176470588 81 1 614 524 276 604 632 0 611 617 658 83
 3 657 .843137254901961 .815686274509804 .752941176470588 82 1 658 999999 82 1 6
55 999999 81 1 633 491 380 620 0 623 629 622 659 82 1 635 999999 81 1 622 492 38
0 585 0 619 633 0 660 83 3 659 .843137254901961 .815686274509804 .75294117647058
8 83 3 660 .792156862745098 .819607843137255 .933333333333333 83 3 634 .84313725
4901961 .815686274509804 .752941176470588 15 625 72 0 451 620 0 17 451 0 625 511
 453 462 445 452 0 0 -17 511 0 625 509 451 465 464 524 0 0 -17 453 0 625 451 509
 19 442 18 0 584 -17 509 0 625 453 511 458 501 510 0 442 -17 442 0 582 516 584 4
58 453 18 0 0 +17 516 0 582 514 442 461 460 555 0 0 +17 460 0 506 501 487 458 51
6 555 0 509 -17 464 0 494 491 482 462 511 524 0 450 +17 491 0 494 492 464 483 45
0 528 0 557 +17 450 0 448 445 602 462 491 528 0 451 -82 1 624 999999 82 1 615 99
9999 141 590 589 590 590 587 17 504 0 576 496 577 480 489 518 0 0 -17 489 0 502
 508 498 472 504 518 0 577 +16 518 218 0 ?489 544 497 520 0 0 7 19 435 405 0 7 0
 17 13 S74 20 433 3 0 648 10 622 0 0 0 0 0 0 0 0 0 0 0 0 0 0 0 0 0 74 20 6 1 0 2
 0 0 0 0 0 0 0 0 0 0 0 0 0 0 0 0 0 0 0 80 2 5 661 662 9000 0 0 0 0 3 5 0 0 0 TFF
FFFFFFFFFFF9 1 79 18 662 MULTI_BODY_ID_20011 0 
