<?xml version="1.0" encoding="utf-8"?>
<!-- Generator: Adobe Illustrator 16.0.0, SVG Export Plug-In . SVG Version: 6.00 Build 0)  -->
<!DOCTYPE svg PUBLIC "-//W3C//DTD SVG 1.1//EN" "http://www.w3.org/Graphics/SVG/1.1/DTD/svg11.dtd">
<svg version="1.1"
	 id="svg2989" xmlns:svg="http://www.w3.org/2000/svg" xmlns:inkscape="http://www.inkscape.org/namespaces/inkscape" xmlns:dc="http://purl.org/dc/elements/1.1/" xmlns:cc="http://creativecommons.org/ns#" xmlns:sodipodi="http://sodipodi.sourceforge.net/DTD/sodipodi-0.dtd" xmlns:rdf="http://www.w3.org/1999/02/22-rdf-syntax-ns#" sodipodi:docname="bell_font_awesome.svg" inkscape:version="0.48.3.1 r9886"
	 xmlns="http://www.w3.org/2000/svg" xmlns:xlink="http://www.w3.org/1999/xlink" x="0px" y="0px" width="382.68px"
	 height="382.68px" viewBox="0 0 382.68 382.68" enable-background="new 0 0 382.68 382.68" xml:space="preserve">
<sodipodi:namedview  id="namedview2995" showgrid="false" guidetolerance="10" bordercolor="#666666" inkscape:cx="896" inkscape:zoom="0.13169643" borderopacity="1" objecttolerance="10" gridtolerance="10" pagecolor="#ffffff" inkscape:cy="896" inkscape:current-layer="svg2989" inkscape:window-maximized="0" inkscape:window-y="25" inkscape:window-x="0" inkscape:window-width="640" inkscape:window-height="480" inkscape:pageopacity="0" inkscape:pageshadow="2">
	</sodipodi:namedview>
<g id="g2991" transform="matrix(1,0,0,-1,83.525424,1313.0508)">
	<path id="path2993" inkscape:connector-curvature="0" d="M-28.394,1270.964h268.496c-22.616,24.96-39.612,53.334-50.989,85.12
		c-11.377,31.787-17.065,65.193-17.065,100.221c0,35.304-22.064,52.955-66.193,52.955s-66.193-17.651-66.193-52.955
		c0-35.027-5.688-68.434-17.065-100.221C11.219,1324.298-5.777,1295.924-28.394,1270.964z M277.957,1270.964
		c0-7.171-2.62-13.377-7.86-18.617s-11.446-7.86-18.617-7.86h-92.671c0-14.617-5.171-27.098-15.514-37.44
		c-10.342-10.343-22.822-15.514-37.44-15.514c-14.618,0-27.098,5.171-37.44,15.514s-15.514,22.823-15.514,37.44h-92.67
		c-7.171,0-13.376,2.62-18.617,7.86c-5.241,5.24-7.861,11.446-7.861,18.617c26.202,22.202,45.991,49.61,59.367,82.225
		c13.376,32.613,20.065,66.986,20.065,103.116c0,22.754,6.619,40.819,19.858,54.196c13.239,13.376,31.442,21.443,54.609,24.201
		c-1.103,2.482-1.655,5.034-1.655,7.654c0,5.516,1.931,10.204,5.792,14.065s8.55,5.792,14.066,5.792
		c5.517,0,10.205-1.931,14.066-5.792c3.86-3.861,5.792-8.55,5.792-14.065c0-2.62-0.552-5.172-1.655-7.654
		c23.168-2.758,41.371-10.825,54.609-24.201c13.239-13.377,19.858-31.442,19.858-54.196c0-36.13,6.688-70.503,20.064-103.116
		C231.967,1320.574,251.756,1293.166,277.957,1270.964z"/>
</g>
</svg>
