  0
SECTION
  2
HEADER
  9
$ACADVER
  1
AC1009
  9
$FILLMODE
 70
0
  9
$EXTMIN
 10
-5.3852
 20
-3.8850
 30
0.0000
  9
$EXTMAX
 10
137.2582
 20
136.6652
 30
0.0000
  0
ENDSEC
  0
SECTION
  2
TABLES
  0
TABLE
  2
LTYPE
 70
1
  0
LTYPE
  2
CONTINUOUS
 70
64
  3
Solid line
 72
65
 73
0
 40
0
  0
ENDTAB
  0
TABLE
  2
LAYER
 70
255
  0
LAYER
  2
20
 70
64
 62
178
  6
CONTINUOUS
  0
LAYER
  2
31
 70
64
 62
251
  6
CONTINUOUS
  0
ENDTAB
  0
ENDSEC
  0
SECTION
  2
BLOCKS
  0
BLOCK
  8
0
  2
RECT
 70
64
 10
0.0000
 20
0.0000
 30
0.0000
  3
RECT
  0
SOLID
  8
0
 10
-0.5000
 20
-0.5000
 30
0.0000
 11
0.5000
 21
-0.5000
 31
0.0000
 12
-0.5000
 22
0.5000
 32
0.0000
 13
0.5000
 23
0.5000
 33
0.0000
  0
ENDBLK
  8
0
  0
BLOCK
  8
0
  2
PIE
 70
64
 10
0.0000
 20
0.0000
 30
0.0000
  3
PIE
  0
CIRCLE
  8
0
 10
0.0000
 20
0.0000
 30
0.0000
 40
0.5000
  0
ENDBLK
  8
0
  0
BLOCK
  8
0
  2
OCTAGONP
 70
64
 10
0.0000
 20
0.0000
 30
0.0000
  3
OCTAGONP
  0
POLYLINE
  8
0
 66
1
 10
0.0000
 20
0.0000
 30
0.0000
 40
0.0000
 41
0.0000
 70
1
  0
VERTEX
  8
0
 10
-0.5000
 20
-0.2071
 30
0.0000
  0
VERTEX
  8
0
 10
-0.5000
 20
0.2071
 30
0.0000
  0
VERTEX
  8
0
 10
-0.2071
 20
0.5000
 30
0.0000
  0
VERTEX
  8
0
 10
0.2071
 20
0.5000
 30
0.0000
  0
VERTEX
  8
0
 10
0.5000
 20
0.2071
 30
0.0000
  0
VERTEX
  8
0
 10
0.5000
 20
-0.2071
 30
0.0000
  0
VERTEX
  8
0
 10
0.2071
 20
-0.5000
 30
0.0000
  0
VERTEX
  8
0
 10
-0.2071
 20
-0.5000
 30
0.0000
  0
SEQEND
  8
0
  0
ENDBLK
  8
0
  0
BLOCK
  8
0
  2
SQUAREP
 70
64
 10
0.0000
 20
0.0000
 30
0.0000
  3
SQUAREP
  0
SOLID
  8
0
 10
-0.5000
 20
-0.5000
 30
0.0000
 11
0.5000
 21
-0.5000
 31
0.0000
 12
-0.5000
 22
0.5000
 32
0.0000
 13
0.5000
 23
0.5000
 33
0.0000
  0
ENDBLK
  8
0
  0
BLOCK
  8
0
  2
ROUNDP
 70
64
 10
0.0000
 20
0.0000
 30
0.0000
  3
ROUNDP
  0
CIRCLE
  8
0
 10
0.0000
 20
0.0000
 30
0.0000
 40
0.5000
  0
ENDBLK
  8
0
  0
BLOCK
  8
0
  2
ANNULUSP
 70
64
 10
0.0000
 20
0.0000
 30
0.0000
  3
ANNULUSP
  0
CIRCLE
  8
0
 10
0.0000
 20
0.0000
 30
0.0000
 40
0.5000
  0
ENDBLK
  8
0
  0
BLOCK
  8
0
  2
THERMALP
 70
64
 10
0.0000
 20
0.0000
 30
0.0000
  3
THERMALP
  0
POLYLINE
  8
0
 66
1
 10
0.0000
 20
0.0000
 30
0.0000
 40
0.0000
 41
0.0000
 70
1
  0
VERTEX
  8
0
 10
-0.2379
 20
0.4000
 30
0.0000
  0
VERTEX
  8
0
 10
0.2379
 20
0.4000
 30
0.0000
 42
1.0000
  0
VERTEX
  8
0
 10
0.2379
 20
0.5000
 30
0.0000
  0
VERTEX
  8
0
 10
-0.2379
 20
0.5000
 30
0.0000
 42
1.0000
  0
SEQEND
  8
0
  0
POLYLINE
  8
0
 66
1
 10
0.0000
 20
0.0000
 30
0.0000
 40
0.0000
 41
0.0000
 70
1
  0
VERTEX
  8
0
 10
0.4000
 20
0.2379
 30
0.0000
  0
VERTEX
  8
0
 10
0.4000
 20
-0.2379
 30
0.0000
 42
1.0000
  0
VERTEX
  8
0
 10
0.5000
 20
-0.2379
 30
0.0000
  0
VERTEX
  8
0
 10
0.5000
 20
0.2379
 30
0.0000
 42
1.0000
  0
SEQEND
  8
0
  0
POLYLINE
  8
0
 66
1
 10
0.0000
 20
0.0000
 30
0.0000
 40
0.0000
 41
0.0000
 70
1
  0
VERTEX
  8
0
 10
0.2379
 20
-0.4000
 30
0.0000
  0
VERTEX
  8
0
 10
-0.2379
 20
-0.4000
 30
0.0000
 42
1.0000
  0
VERTEX
  8
0
 10
-0.2379
 20
-0.5000
 30
0.0000
  0
VERTEX
  8
0
 10
0.2379
 20
-0.5000
 30
0.0000
 42
1.0000
  0
SEQEND
  8
0
  0
POLYLINE
  8
0
 66
1
 10
0.0000
 20
0.0000
 30
0.0000
 40
0.0000
 41
0.0000
 70
1
  0
VERTEX
  8
0
 10
-0.4000
 20
-0.2379
 30
0.0000
  0
VERTEX
  8
0
 10
-0.4000
 20
0.2379
 30
0.0000
 42
1.0000
  0
VERTEX
  8
0
 10
-0.5000
 20
0.2379
 30
0.0000
  0
VERTEX
  8
0
 10
-0.5000
 20
-0.2379
 30
0.0000
 42
1.0000
  0
SEQEND
  8
0
  0
ENDBLK
  8
0
  0
BLOCK
  8
0
  2
OCTAGONV
 70
64
 10
0.0000
 20
0.0000
 30
0.0000
  3
OCTAGONV
  0
POLYLINE
  8
0
 66
1
 10
0.0000
 20
0.0000
 30
0.0000
 40
0.0000
 41
0.0000
 70
1
  0
VERTEX
  8
0
 10
-0.5000
 20
-0.2071
 30
0.0000
  0
VERTEX
  8
0
 10
-0.5000
 20
0.2071
 30
0.0000
  0
VERTEX
  8
0
 10
-0.2071
 20
0.5000
 30
0.0000
  0
VERTEX
  8
0
 10
0.2071
 20
0.5000
 30
0.0000
  0
VERTEX
  8
0
 10
0.5000
 20
0.2071
 30
0.0000
  0
VERTEX
  8
0
 10
0.5000
 20
-0.2071
 30
0.0000
  0
VERTEX
  8
0
 10
0.2071
 20
-0.5000
 30
0.0000
  0
VERTEX
  8
0
 10
-0.2071
 20
-0.5000
 30
0.0000
  0
SEQEND
  8
0
  0
ENDBLK
  8
0
  0
BLOCK
  8
0
  2
SQUAREV
 70
64
 10
0.0000
 20
0.0000
 30
0.0000
  3
SQUAREV
  0
SOLID
  8
0
 10
-0.5000
 20
-0.5000
 30
0.0000
 11
0.5000
 21
-0.5000
 31
0.0000
 12
-0.5000
 22
0.5000
 32
0.0000
 13
0.5000
 23
0.5000
 33
0.0000
  0
ENDBLK
  8
0
  0
BLOCK
  8
0
  2
ROUNDV
 70
64
 10
0.0000
 20
0.0000
 30
0.0000
  3
ROUNDV
  0
CIRCLE
  8
0
 10
0.0000
 20
0.0000
 30
0.0000
 40
0.5000
  0
ENDBLK
  8
0
  0
BLOCK
  8
0
  2
ANNULUSV
 70
64
 10
0.0000
 20
0.0000
 30
0.0000
  3
ANNULUSV
  0
CIRCLE
  8
0
 10
0.0000
 20
0.0000
 30
0.0000
 40
0.5000
  0
ENDBLK
  8
0
  0
BLOCK
  8
0
  2
THERMALV
 70
64
 10
0.0000
 20
0.0000
 30
0.0000
  3
THERMALV
  0
POLYLINE
  8
0
 66
1
 10
0.0000
 20
0.0000
 30
0.0000
 40
0.0000
 41
0.0000
 70
1
  0
VERTEX
  8
0
 10
-0.2379
 20
0.4000
 30
0.0000
  0
VERTEX
  8
0
 10
0.2379
 20
0.4000
 30
0.0000
 42
1.0000
  0
VERTEX
  8
0
 10
0.2379
 20
0.5000
 30
0.0000
  0
VERTEX
  8
0
 10
-0.2379
 20
0.5000
 30
0.0000
 42
1.0000
  0
SEQEND
  8
0
  0
POLYLINE
  8
0
 66
1
 10
0.0000
 20
0.0000
 30
0.0000
 40
0.0000
 41
0.0000
 70
1
  0
VERTEX
  8
0
 10
0.4000
 20
0.2379
 30
0.0000
  0
VERTEX
  8
0
 10
0.4000
 20
-0.2379
 30
0.0000
 42
1.0000
  0
VERTEX
  8
0
 10
0.5000
 20
-0.2379
 30
0.0000
  0
VERTEX
  8
0
 10
0.5000
 20
0.2379
 30
0.0000
 42
1.0000
  0
SEQEND
  8
0
  0
POLYLINE
  8
0
 66
1
 10
0.0000
 20
0.0000
 30
0.0000
 40
0.0000
 41
0.0000
 70
1
  0
VERTEX
  8
0
 10
0.2379
 20
-0.4000
 30
0.0000
  0
VERTEX
  8
0
 10
-0.2379
 20
-0.4000
 30
0.0000
 42
1.0000
  0
VERTEX
  8
0
 10
-0.2379
 20
-0.5000
 30
0.0000
  0
VERTEX
  8
0
 10
0.2379
 20
-0.5000
 30
0.0000
 42
1.0000
  0
SEQEND
  8
0
  0
POLYLINE
  8
0
 66
1
 10
0.0000
 20
0.0000
 30
0.0000
 40
0.0000
 41
0.0000
 70
1
  0
VERTEX
  8
0
 10
-0.4000
 20
-0.2379
 30
0.0000
  0
VERTEX
  8
0
 10
-0.4000
 20
0.2379
 30
0.0000
 42
1.0000
  0
VERTEX
  8
0
 10
-0.5000
 20
0.2379
 30
0.0000
  0
VERTEX
  8
0
 10
-0.5000
 20
-0.2379
 30
0.0000
 42
1.0000
  0
SEQEND
  8
0
  0
ENDBLK
  8
0
  0
BLOCK
  8
0
  2
LONGP100
 70
64
 10
0.0000
 20
0.0000
 30
0.0000
  3
LONGP100
  0
POLYLINE
  8
0
 66
1
 10
0.0000
 20
0.0000
 30
0.0000
 40
0.0000
 41
0.0000
 70
1
  0
VERTEX
  8
0
 10
-0.5000
 20
-0.5000
 30
0.0000
  0
VERTEX
  8
0
 10
0.5000
 20
-0.5000
 30
0.0000
 42
1.0000
  0
VERTEX
  8
0
 10
0.5000
 20
0.5000
 30
0.0000
  0
VERTEX
  8
0
 10
-0.5000
 20
0.5000
 30
0.0000
 42
1.0000
  0
SEQEND
  8
0
  0
ENDBLK
  8
0
  0
ENDSEC
  0
SECTION
  2
ENTITIES
  0
LINE
  8
20
 10
2.5000
 20
2.5000
 30
0.0000
 11
2.5000
 21
132.5000
 31
0.0000
  0
LINE
  8
20
 10
2.5000
 20
132.5000
 30
0.0000
 11
132.5000
 21
132.5000
 31
0.0000
  0
LINE
  8
20
 10
132.5000
 20
132.5000
 30
0.0000
 11
132.5000
 21
2.5000
 31
0.0000
  0
LINE
  8
20
 10
132.5000
 20
2.5000
 30
0.0000
 11
2.5000
 21
2.5000
 31
0.0000
  0
CIRCLE
  8
20
 10
24.0000
 20
125.0000
 30
0.0000
 40
1.6000
  0
CIRCLE
  8
20
 10
111.0000
 20
10.0000
 30
0.0000
 40
1.6000
  0
CIRCLE
  8
20
 10
24.0000
 20
10.0000
 30
0.0000
 40
1.6000
  0
CIRCLE
  8
20
 10
111.0000
 20
125.0000
 30
0.0000
 40
1.6000
  0
INSERT
  8
31
  2
RECT
 10
12.7900
 20
66.7320
 30
0.0000
 41
1.6000
 42
1.8030
 43
1.0000
 50
270.0000
  0
INSERT
  8
31
  2
RECT
 10
12.7900
 20
63.8880
 30
0.0000
 41
1.6000
 42
1.8030
 43
1.0000
 50
270.0000
  0
INSERT
  8
31
  2
RECT
 10
30.7280
 20
117.0000
 30
0.0000
 41
1.6000
 42
1.8030
 43
1.0000
 50
0.0000
  0
INSERT
  8
31
  2
RECT
 10
33.5720
 20
117.0000
 30
0.0000
 41
1.6000
 42
1.8030
 43
1.0000
 50
0.0000
  0
INSERT
  8
31
  2
RECT
 10
13.3300
 20
19.3620
 30
0.0000
 41
1.6000
 42
1.8030
 43
1.0000
 50
270.0000
  0
INSERT
  8
31
  2
RECT
 10
13.3300
 20
16.5180
 30
0.0000
 41
1.6000
 42
1.8030
 43
1.0000
 50
270.0000
  0
INSERT
  8
31
  2
RECT
 10
17.6000
 20
104.7200
 30
0.0000
 41
1.6000
 42
2.0000
 43
1.0000
 50
180.0000
  0
INSERT
  8
31
  2
RECT
 10
14.8000
 20
104.7200
 30
0.0000
 41
1.6000
 42
2.0000
 43
1.0000
 50
180.0000
  0
INSERT
  8
31
  2
RECT
 10
10.3320
 20
44.9200
 30
0.0000
 41
1.6000
 42
1.8030
 43
1.0000
 50
180.0000
  0
INSERT
  8
31
  2
RECT
 10
7.4880
 20
44.9200
 30
0.0000
 41
1.6000
 42
1.8030
 43
1.0000
 50
180.0000
  0
INSERT
  8
31
  2
RECT
 10
10.3420
 20
42.8600
 30
0.0000
 41
1.6000
 42
1.8030
 43
1.0000
 50
180.0000
  0
INSERT
  8
31
  2
RECT
 10
7.4980
 20
42.8600
 30
0.0000
 41
1.6000
 42
1.8030
 43
1.0000
 50
180.0000
  0
INSERT
  8
31
  2
RECT
 10
114.9300
 20
67.7720
 30
0.0000
 41
1.6000
 42
1.8030
 43
1.0000
 50
270.0000
  0
INSERT
  8
31
  2
RECT
 10
114.9300
 20
64.9280
 30
0.0000
 41
1.6000
 42
1.8030
 43
1.0000
 50
270.0000
  0
INSERT
  8
31
  2
RECT
 10
28.5750
 20
111.5550
 30
0.0000
 41
1.0000
 42
1.3000
 43
1.0000
 50
90.0000
  0
INSERT
  8
31
  2
RECT
 10
28.5750
 20
112.9550
 30
0.0000
 41
1.0000
 42
1.3000
 43
1.0000
 50
90.0000
  0
INSERT
  8
31
  2
RECT
 10
37.2250
 20
111.5550
 30
0.0000
 41
1.0000
 42
1.3000
 43
1.0000
 50
90.0000
  0
INSERT
  8
31
  2
RECT
 10
37.2250
 20
112.9550
 30
0.0000
 41
1.0000
 42
1.3000
 43
1.0000
 50
90.0000
  0
INSERT
  8
31
  2
RECT
 10
45.8750
 20
111.5550
 30
0.0000
 41
1.0000
 42
1.3000
 43
1.0000
 50
90.0000
  0
INSERT
  8
31
  2
RECT
 10
45.8750
 20
112.9550
 30
0.0000
 41
1.0000
 42
1.3000
 43
1.0000
 50
90.0000
  0
INSERT
  8
31
  2
RECT
 10
54.5250
 20
111.5550
 30
0.0000
 41
1.0000
 42
1.3000
 43
1.0000
 50
90.0000
  0
INSERT
  8
31
  2
RECT
 10
54.5250
 20
112.9550
 30
0.0000
 41
1.0000
 42
1.3000
 43
1.0000
 50
90.0000
  0
INSERT
  8
31
  2
RECT
 10
63.1750
 20
111.5550
 30
0.0000
 41
1.0000
 42
1.3000
 43
1.0000
 50
90.0000
  0
INSERT
  8
31
  2
RECT
 10
63.1750
 20
112.9550
 30
0.0000
 41
1.0000
 42
1.3000
 43
1.0000
 50
90.0000
  0
INSERT
  8
31
  2
RECT
 10
71.8250
 20
111.5550
 30
0.0000
 41
1.0000
 42
1.3000
 43
1.0000
 50
90.0000
  0
INSERT
  8
31
  2
RECT
 10
71.8250
 20
112.9550
 30
0.0000
 41
1.0000
 42
1.3000
 43
1.0000
 50
90.0000
  0
INSERT
  8
31
  2
RECT
 10
80.4750
 20
111.5550
 30
0.0000
 41
1.0000
 42
1.3000
 43
1.0000
 50
90.0000
  0
INSERT
  8
31
  2
RECT
 10
80.4750
 20
112.9550
 30
0.0000
 41
1.0000
 42
1.3000
 43
1.0000
 50
90.0000
  0
INSERT
  8
31
  2
RECT
 10
89.1250
 20
111.5550
 30
0.0000
 41
1.0000
 42
1.3000
 43
1.0000
 50
90.0000
  0
INSERT
  8
31
  2
RECT
 10
89.1250
 20
112.9550
 30
0.0000
 41
1.0000
 42
1.3000
 43
1.0000
 50
90.0000
  0
INSERT
  8
31
  2
RECT
 10
97.7750
 20
111.5550
 30
0.0000
 41
1.0000
 42
1.3000
 43
1.0000
 50
90.0000
  0
INSERT
  8
31
  2
RECT
 10
97.7750
 20
112.9550
 30
0.0000
 41
1.0000
 42
1.3000
 43
1.0000
 50
90.0000
  0
INSERT
  8
31
  2
RECT
 10
106.4250
 20
111.5550
 30
0.0000
 41
1.0000
 42
1.3000
 43
1.0000
 50
90.0000
  0
INSERT
  8
31
  2
RECT
 10
106.4250
 20
112.9550
 30
0.0000
 41
1.0000
 42
1.3000
 43
1.0000
 50
90.0000
  0
INSERT
  8
31
  2
RECT
 10
115.0750
 20
111.5550
 30
0.0000
 41
1.0000
 42
1.3000
 43
1.0000
 50
90.0000
  0
INSERT
  8
31
  2
RECT
 10
115.0750
 20
112.9550
 30
0.0000
 41
1.0000
 42
1.3000
 43
1.0000
 50
90.0000
  0
INSERT
  8
31
  2
RECT
 10
28.5850
 20
101.9389
 30
0.0000
 41
1.0000
 42
1.3000
 43
1.0000
 50
90.0000
  0
INSERT
  8
31
  2
RECT
 10
28.5850
 20
103.3389
 30
0.0000
 41
1.0000
 42
1.3000
 43
1.0000
 50
90.0000
  0
INSERT
  8
31
  2
RECT
 10
37.2350
 20
101.9389
 30
0.0000
 41
1.0000
 42
1.3000
 43
1.0000
 50
90.0000
  0
INSERT
  8
31
  2
RECT
 10
37.2350
 20
103.3389
 30
0.0000
 41
1.0000
 42
1.3000
 43
1.0000
 50
90.0000
  0
INSERT
  8
31
  2
RECT
 10
45.8850
 20
101.9389
 30
0.0000
 41
1.0000
 42
1.3000
 43
1.0000
 50
90.0000
  0
INSERT
  8
31
  2
RECT
 10
45.8850
 20
103.3389
 30
0.0000
 41
1.0000
 42
1.3000
 43
1.0000
 50
90.0000
  0
INSERT
  8
31
  2
RECT
 10
54.5350
 20
101.9389
 30
0.0000
 41
1.0000
 42
1.3000
 43
1.0000
 50
90.0000
  0
INSERT
  8
31
  2
RECT
 10
54.5350
 20
103.3389
 30
0.0000
 41
1.0000
 42
1.3000
 43
1.0000
 50
90.0000
  0
INSERT
  8
31
  2
RECT
 10
63.1850
 20
101.9389
 30
0.0000
 41
1.0000
 42
1.3000
 43
1.0000
 50
90.0000
  0
INSERT
  8
31
  2
RECT
 10
63.1850
 20
103.3389
 30
0.0000
 41
1.0000
 42
1.3000
 43
1.0000
 50
90.0000
  0
INSERT
  8
31
  2
RECT
 10
71.8350
 20
101.9389
 30
0.0000
 41
1.0000
 42
1.3000
 43
1.0000
 50
90.0000
  0
INSERT
  8
31
  2
RECT
 10
71.8350
 20
103.3389
 30
0.0000
 41
1.0000
 42
1.3000
 43
1.0000
 50
90.0000
  0
INSERT
  8
31
  2
RECT
 10
80.4850
 20
101.9389
 30
0.0000
 41
1.0000
 42
1.3000
 43
1.0000
 50
90.0000
  0
INSERT
  8
31
  2
RECT
 10
80.4850
 20
103.3389
 30
0.0000
 41
1.0000
 42
1.3000
 43
1.0000
 50
90.0000
  0
INSERT
  8
31
  2
RECT
 10
89.1350
 20
101.9389
 30
0.0000
 41
1.0000
 42
1.3000
 43
1.0000
 50
90.0000
  0
INSERT
  8
31
  2
RECT
 10
89.1350
 20
103.3389
 30
0.0000
 41
1.0000
 42
1.3000
 43
1.0000
 50
90.0000
  0
INSERT
  8
31
  2
RECT
 10
97.7850
 20
101.9389
 30
0.0000
 41
1.0000
 42
1.3000
 43
1.0000
 50
90.0000
  0
INSERT
  8
31
  2
RECT
 10
97.7850
 20
103.3389
 30
0.0000
 41
1.0000
 42
1.3000
 43
1.0000
 50
90.0000
  0
INSERT
  8
31
  2
RECT
 10
106.4350
 20
101.9389
 30
0.0000
 41
1.0000
 42
1.3000
 43
1.0000
 50
90.0000
  0
INSERT
  8
31
  2
RECT
 10
106.4350
 20
103.3389
 30
0.0000
 41
1.0000
 42
1.3000
 43
1.0000
 50
90.0000
  0
INSERT
  8
31
  2
RECT
 10
115.0850
 20
101.9389
 30
0.0000
 41
1.0000
 42
1.3000
 43
1.0000
 50
90.0000
  0
INSERT
  8
31
  2
RECT
 10
115.0850
 20
103.3389
 30
0.0000
 41
1.0000
 42
1.3000
 43
1.0000
 50
90.0000
  0
INSERT
  8
31
  2
RECT
 10
28.5650
 20
92.3328
 30
0.0000
 41
1.0000
 42
1.3000
 43
1.0000
 50
90.0000
  0
INSERT
  8
31
  2
RECT
 10
28.5650
 20
93.7328
 30
0.0000
 41
1.0000
 42
1.3000
 43
1.0000
 50
90.0000
  0
INSERT
  8
31
  2
RECT
 10
37.2150
 20
92.3328
 30
0.0000
 41
1.0000
 42
1.3000
 43
1.0000
 50
90.0000
  0
INSERT
  8
31
  2
RECT
 10
37.2150
 20
93.7328
 30
0.0000
 41
1.0000
 42
1.3000
 43
1.0000
 50
90.0000
  0
INSERT
  8
31
  2
RECT
 10
45.8650
 20
92.3328
 30
0.0000
 41
1.0000
 42
1.3000
 43
1.0000
 50
90.0000
  0
INSERT
  8
31
  2
RECT
 10
45.8650
 20
93.7328
 30
0.0000
 41
1.0000
 42
1.3000
 43
1.0000
 50
90.0000
  0
INSERT
  8
31
  2
RECT
 10
54.5150
 20
92.3328
 30
0.0000
 41
1.0000
 42
1.3000
 43
1.0000
 50
90.0000
  0
INSERT
  8
31
  2
RECT
 10
54.5150
 20
93.7328
 30
0.0000
 41
1.0000
 42
1.3000
 43
1.0000
 50
90.0000
  0
INSERT
  8
31
  2
RECT
 10
63.1650
 20
92.3328
 30
0.0000
 41
1.0000
 42
1.3000
 43
1.0000
 50
90.0000
  0
INSERT
  8
31
  2
RECT
 10
63.1650
 20
93.7328
 30
0.0000
 41
1.0000
 42
1.3000
 43
1.0000
 50
90.0000
  0
INSERT
  8
31
  2
RECT
 10
71.8150
 20
92.3328
 30
0.0000
 41
1.0000
 42
1.3000
 43
1.0000
 50
90.0000
  0
INSERT
  8
31
  2
RECT
 10
71.8150
 20
93.7328
 30
0.0000
 41
1.0000
 42
1.3000
 43
1.0000
 50
90.0000
  0
INSERT
  8
31
  2
RECT
 10
80.4650
 20
92.3328
 30
0.0000
 41
1.0000
 42
1.3000
 43
1.0000
 50
90.0000
  0
INSERT
  8
31
  2
RECT
 10
80.4650
 20
93.7328
 30
0.0000
 41
1.0000
 42
1.3000
 43
1.0000
 50
90.0000
  0
INSERT
  8
31
  2
RECT
 10
89.1150
 20
92.3328
 30
0.0000
 41
1.0000
 42
1.3000
 43
1.0000
 50
90.0000
  0
INSERT
  8
31
  2
RECT
 10
89.1150
 20
93.7328
 30
0.0000
 41
1.0000
 42
1.3000
 43
1.0000
 50
90.0000
  0
INSERT
  8
31
  2
RECT
 10
97.7650
 20
92.3328
 30
0.0000
 41
1.0000
 42
1.3000
 43
1.0000
 50
90.0000
  0
INSERT
  8
31
  2
RECT
 10
97.7650
 20
93.7328
 30
0.0000
 41
1.0000
 42
1.3000
 43
1.0000
 50
90.0000
  0
INSERT
  8
31
  2
RECT
 10
106.4150
 20
92.3328
 30
0.0000
 41
1.0000
 42
1.3000
 43
1.0000
 50
90.0000
  0
INSERT
  8
31
  2
RECT
 10
106.4150
 20
93.7328
 30
0.0000
 41
1.0000
 42
1.3000
 43
1.0000
 50
90.0000
  0
INSERT
  8
31
  2
RECT
 10
115.0650
 20
92.3328
 30
0.0000
 41
1.0000
 42
1.3000
 43
1.0000
 50
90.0000
  0
INSERT
  8
31
  2
RECT
 10
115.0650
 20
93.7328
 30
0.0000
 41
1.0000
 42
1.3000
 43
1.0000
 50
90.0000
  0
INSERT
  8
31
  2
RECT
 10
28.5750
 20
82.7167
 30
0.0000
 41
1.0000
 42
1.3000
 43
1.0000
 50
90.0000
  0
INSERT
  8
31
  2
RECT
 10
28.5750
 20
84.1167
 30
0.0000
 41
1.0000
 42
1.3000
 43
1.0000
 50
90.0000
  0
INSERT
  8
31
  2
RECT
 10
37.2250
 20
82.7167
 30
0.0000
 41
1.0000
 42
1.3000
 43
1.0000
 50
90.0000
  0
INSERT
  8
31
  2
RECT
 10
37.2250
 20
84.1167
 30
0.0000
 41
1.0000
 42
1.3000
 43
1.0000
 50
90.0000
  0
INSERT
  8
31
  2
RECT
 10
45.8750
 20
82.7167
 30
0.0000
 41
1.0000
 42
1.3000
 43
1.0000
 50
90.0000
  0
INSERT
  8
31
  2
RECT
 10
45.8750
 20
84.1167
 30
0.0000
 41
1.0000
 42
1.3000
 43
1.0000
 50
90.0000
  0
INSERT
  8
31
  2
RECT
 10
54.5250
 20
82.7167
 30
0.0000
 41
1.0000
 42
1.3000
 43
1.0000
 50
90.0000
  0
INSERT
  8
31
  2
RECT
 10
54.5250
 20
84.1167
 30
0.0000
 41
1.0000
 42
1.3000
 43
1.0000
 50
90.0000
  0
INSERT
  8
31
  2
RECT
 10
63.1750
 20
82.7167
 30
0.0000
 41
1.0000
 42
1.3000
 43
1.0000
 50
90.0000
  0
INSERT
  8
31
  2
RECT
 10
63.1750
 20
84.1167
 30
0.0000
 41
1.0000
 42
1.3000
 43
1.0000
 50
90.0000
  0
INSERT
  8
31
  2
RECT
 10
71.8250
 20
82.7167
 30
0.0000
 41
1.0000
 42
1.3000
 43
1.0000
 50
90.0000
  0
INSERT
  8
31
  2
RECT
 10
71.8250
 20
84.1167
 30
0.0000
 41
1.0000
 42
1.3000
 43
1.0000
 50
90.0000
  0
INSERT
  8
31
  2
RECT
 10
80.4750
 20
82.7167
 30
0.0000
 41
1.0000
 42
1.3000
 43
1.0000
 50
90.0000
  0
INSERT
  8
31
  2
RECT
 10
80.4750
 20
84.1167
 30
0.0000
 41
1.0000
 42
1.3000
 43
1.0000
 50
90.0000
  0
INSERT
  8
31
  2
RECT
 10
89.1250
 20
82.7167
 30
0.0000
 41
1.0000
 42
1.3000
 43
1.0000
 50
90.0000
  0
INSERT
  8
31
  2
RECT
 10
89.1250
 20
84.1167
 30
0.0000
 41
1.0000
 42
1.3000
 43
1.0000
 50
90.0000
  0
INSERT
  8
31
  2
RECT
 10
97.7750
 20
82.7167
 30
0.0000
 41
1.0000
 42
1.3000
 43
1.0000
 50
90.0000
  0
INSERT
  8
31
  2
RECT
 10
97.7750
 20
84.1167
 30
0.0000
 41
1.0000
 42
1.3000
 43
1.0000
 50
90.0000
  0
INSERT
  8
31
  2
RECT
 10
106.4250
 20
82.7167
 30
0.0000
 41
1.0000
 42
1.3000
 43
1.0000
 50
90.0000
  0
INSERT
  8
31
  2
RECT
 10
106.4250
 20
84.1167
 30
0.0000
 41
1.0000
 42
1.3000
 43
1.0000
 50
90.0000
  0
INSERT
  8
31
  2
RECT
 10
115.0750
 20
82.7167
 30
0.0000
 41
1.0000
 42
1.3000
 43
1.0000
 50
90.0000
  0
INSERT
  8
31
  2
RECT
 10
115.0750
 20
84.1167
 30
0.0000
 41
1.0000
 42
1.3000
 43
1.0000
 50
90.0000
  0
INSERT
  8
31
  2
RECT
 10
28.5750
 20
73.1106
 30
0.0000
 41
1.0000
 42
1.3000
 43
1.0000
 50
90.0000
  0
INSERT
  8
31
  2
RECT
 10
28.5750
 20
74.5106
 30
0.0000
 41
1.0000
 42
1.3000
 43
1.0000
 50
90.0000
  0
INSERT
  8
31
  2
RECT
 10
37.2250
 20
73.1106
 30
0.0000
 41
1.0000
 42
1.3000
 43
1.0000
 50
90.0000
  0
INSERT
  8
31
  2
RECT
 10
37.2250
 20
74.5106
 30
0.0000
 41
1.0000
 42
1.3000
 43
1.0000
 50
90.0000
  0
INSERT
  8
31
  2
RECT
 10
45.8750
 20
73.1106
 30
0.0000
 41
1.0000
 42
1.3000
 43
1.0000
 50
90.0000
  0
INSERT
  8
31
  2
RECT
 10
45.8750
 20
74.5106
 30
0.0000
 41
1.0000
 42
1.3000
 43
1.0000
 50
90.0000
  0
INSERT
  8
31
  2
RECT
 10
54.5250
 20
73.1106
 30
0.0000
 41
1.0000
 42
1.3000
 43
1.0000
 50
90.0000
  0
INSERT
  8
31
  2
RECT
 10
54.5250
 20
74.5106
 30
0.0000
 41
1.0000
 42
1.3000
 43
1.0000
 50
90.0000
  0
INSERT
  8
31
  2
RECT
 10
63.1750
 20
73.1106
 30
0.0000
 41
1.0000
 42
1.3000
 43
1.0000
 50
90.0000
  0
INSERT
  8
31
  2
RECT
 10
63.1750
 20
74.5106
 30
0.0000
 41
1.0000
 42
1.3000
 43
1.0000
 50
90.0000
  0
INSERT
  8
31
  2
RECT
 10
71.8250
 20
73.1106
 30
0.0000
 41
1.0000
 42
1.3000
 43
1.0000
 50
90.0000
  0
INSERT
  8
31
  2
RECT
 10
71.8250
 20
74.5106
 30
0.0000
 41
1.0000
 42
1.3000
 43
1.0000
 50
90.0000
  0
INSERT
  8
31
  2
RECT
 10
80.4750
 20
73.1106
 30
0.0000
 41
1.0000
 42
1.3000
 43
1.0000
 50
90.0000
  0
INSERT
  8
31
  2
RECT
 10
80.4750
 20
74.5106
 30
0.0000
 41
1.0000
 42
1.3000
 43
1.0000
 50
90.0000
  0
INSERT
  8
31
  2
RECT
 10
89.1250
 20
73.1106
 30
0.0000
 41
1.0000
 42
1.3000
 43
1.0000
 50
90.0000
  0
INSERT
  8
31
  2
RECT
 10
89.1250
 20
74.5106
 30
0.0000
 41
1.0000
 42
1.3000
 43
1.0000
 50
90.0000
  0
INSERT
  8
31
  2
RECT
 10
97.7750
 20
73.1106
 30
0.0000
 41
1.0000
 42
1.3000
 43
1.0000
 50
90.0000
  0
INSERT
  8
31
  2
RECT
 10
97.7750
 20
74.5106
 30
0.0000
 41
1.0000
 42
1.3000
 43
1.0000
 50
90.0000
  0
INSERT
  8
31
  2
RECT
 10
106.4250
 20
73.1106
 30
0.0000
 41
1.0000
 42
1.3000
 43
1.0000
 50
90.0000
  0
INSERT
  8
31
  2
RECT
 10
106.4250
 20
74.5106
 30
0.0000
 41
1.0000
 42
1.3000
 43
1.0000
 50
90.0000
  0
INSERT
  8
31
  2
RECT
 10
115.0750
 20
73.1106
 30
0.0000
 41
1.0000
 42
1.3000
 43
1.0000
 50
90.0000
  0
INSERT
  8
31
  2
RECT
 10
115.0750
 20
74.5106
 30
0.0000
 41
1.0000
 42
1.3000
 43
1.0000
 50
90.0000
  0
INSERT
  8
31
  2
RECT
 10
28.5850
 20
63.4945
 30
0.0000
 41
1.0000
 42
1.3000
 43
1.0000
 50
90.0000
  0
INSERT
  8
31
  2
RECT
 10
28.5850
 20
64.8945
 30
0.0000
 41
1.0000
 42
1.3000
 43
1.0000
 50
90.0000
  0
INSERT
  8
31
  2
RECT
 10
37.2350
 20
63.4945
 30
0.0000
 41
1.0000
 42
1.3000
 43
1.0000
 50
90.0000
  0
INSERT
  8
31
  2
RECT
 10
37.2350
 20
64.8945
 30
0.0000
 41
1.0000
 42
1.3000
 43
1.0000
 50
90.0000
  0
INSERT
  8
31
  2
RECT
 10
45.8850
 20
63.4945
 30
0.0000
 41
1.0000
 42
1.3000
 43
1.0000
 50
90.0000
  0
INSERT
  8
31
  2
RECT
 10
45.8850
 20
64.8945
 30
0.0000
 41
1.0000
 42
1.3000
 43
1.0000
 50
90.0000
  0
INSERT
  8
31
  2
RECT
 10
54.5350
 20
63.4945
 30
0.0000
 41
1.0000
 42
1.3000
 43
1.0000
 50
90.0000
  0
INSERT
  8
31
  2
RECT
 10
54.5350
 20
64.8945
 30
0.0000
 41
1.0000
 42
1.3000
 43
1.0000
 50
90.0000
  0
INSERT
  8
31
  2
RECT
 10
63.1850
 20
63.4945
 30
0.0000
 41
1.0000
 42
1.3000
 43
1.0000
 50
90.0000
  0
INSERT
  8
31
  2
RECT
 10
63.1850
 20
64.8945
 30
0.0000
 41
1.0000
 42
1.3000
 43
1.0000
 50
90.0000
  0
INSERT
  8
31
  2
RECT
 10
71.8350
 20
63.4945
 30
0.0000
 41
1.0000
 42
1.3000
 43
1.0000
 50
90.0000
  0
INSERT
  8
31
  2
RECT
 10
71.8350
 20
64.8945
 30
0.0000
 41
1.0000
 42
1.3000
 43
1.0000
 50
90.0000
  0
INSERT
  8
31
  2
RECT
 10
80.4850
 20
63.4945
 30
0.0000
 41
1.0000
 42
1.3000
 43
1.0000
 50
90.0000
  0
INSERT
  8
31
  2
RECT
 10
80.4850
 20
64.8945
 30
0.0000
 41
1.0000
 42
1.3000
 43
1.0000
 50
90.0000
  0
INSERT
  8
31
  2
RECT
 10
89.1350
 20
63.4945
 30
0.0000
 41
1.0000
 42
1.3000
 43
1.0000
 50
90.0000
  0
INSERT
  8
31
  2
RECT
 10
89.1350
 20
64.8945
 30
0.0000
 41
1.0000
 42
1.3000
 43
1.0000
 50
90.0000
  0
INSERT
  8
31
  2
RECT
 10
97.7850
 20
63.4945
 30
0.0000
 41
1.0000
 42
1.3000
 43
1.0000
 50
90.0000
  0
INSERT
  8
31
  2
RECT
 10
97.7850
 20
64.8945
 30
0.0000
 41
1.0000
 42
1.3000
 43
1.0000
 50
90.0000
  0
INSERT
  8
31
  2
RECT
 10
106.4350
 20
63.4945
 30
0.0000
 41
1.0000
 42
1.3000
 43
1.0000
 50
90.0000
  0
INSERT
  8
31
  2
RECT
 10
106.4350
 20
64.8945
 30
0.0000
 41
1.0000
 42
1.3000
 43
1.0000
 50
90.0000
  0
INSERT
  8
31
  2
RECT
 10
114.2745
 20
62.1150
 30
0.0000
 41
1.0000
 42
1.3000
 43
1.0000
 50
0.0000
  0
INSERT
  8
31
  2
RECT
 10
115.6745
 20
62.1150
 30
0.0000
 41
1.0000
 42
1.3000
 43
1.0000
 50
0.0000
  0
INSERT
  8
31
  2
RECT
 10
28.5650
 20
53.8883
 30
0.0000
 41
1.0000
 42
1.3000
 43
1.0000
 50
90.0000
  0
INSERT
  8
31
  2
RECT
 10
28.5650
 20
55.2883
 30
0.0000
 41
1.0000
 42
1.3000
 43
1.0000
 50
90.0000
  0
INSERT
  8
31
  2
RECT
 10
37.2150
 20
53.8883
 30
0.0000
 41
1.0000
 42
1.3000
 43
1.0000
 50
90.0000
  0
INSERT
  8
31
  2
RECT
 10
37.2150
 20
55.2883
 30
0.0000
 41
1.0000
 42
1.3000
 43
1.0000
 50
90.0000
  0
INSERT
  8
31
  2
RECT
 10
45.8650
 20
53.8883
 30
0.0000
 41
1.0000
 42
1.3000
 43
1.0000
 50
90.0000
  0
INSERT
  8
31
  2
RECT
 10
45.8650
 20
55.2883
 30
0.0000
 41
1.0000
 42
1.3000
 43
1.0000
 50
90.0000
  0
INSERT
  8
31
  2
RECT
 10
54.5150
 20
53.8883
 30
0.0000
 41
1.0000
 42
1.3000
 43
1.0000
 50
90.0000
  0
INSERT
  8
31
  2
RECT
 10
54.5150
 20
55.2883
 30
0.0000
 41
1.0000
 42
1.3000
 43
1.0000
 50
90.0000
  0
INSERT
  8
31
  2
RECT
 10
63.1650
 20
53.8883
 30
0.0000
 41
1.0000
 42
1.3000
 43
1.0000
 50
90.0000
  0
INSERT
  8
31
  2
RECT
 10
63.1650
 20
55.2883
 30
0.0000
 41
1.0000
 42
1.3000
 43
1.0000
 50
90.0000
  0
INSERT
  8
31
  2
RECT
 10
71.8150
 20
53.8883
 30
0.0000
 41
1.0000
 42
1.3000
 43
1.0000
 50
90.0000
  0
INSERT
  8
31
  2
RECT
 10
71.8150
 20
55.2883
 30
0.0000
 41
1.0000
 42
1.3000
 43
1.0000
 50
90.0000
  0
INSERT
  8
31
  2
RECT
 10
80.4650
 20
53.8883
 30
0.0000
 41
1.0000
 42
1.3000
 43
1.0000
 50
90.0000
  0
INSERT
  8
31
  2
RECT
 10
80.4650
 20
55.2883
 30
0.0000
 41
1.0000
 42
1.3000
 43
1.0000
 50
90.0000
  0
INSERT
  8
31
  2
RECT
 10
89.1150
 20
53.8883
 30
0.0000
 41
1.0000
 42
1.3000
 43
1.0000
 50
90.0000
  0
INSERT
  8
31
  2
RECT
 10
89.1150
 20
55.2883
 30
0.0000
 41
1.0000
 42
1.3000
 43
1.0000
 50
90.0000
  0
INSERT
  8
31
  2
RECT
 10
97.7650
 20
53.8883
 30
0.0000
 41
1.0000
 42
1.3000
 43
1.0000
 50
90.0000
  0
INSERT
  8
31
  2
RECT
 10
97.7650
 20
55.2883
 30
0.0000
 41
1.0000
 42
1.3000
 43
1.0000
 50
90.0000
  0
INSERT
  8
31
  2
RECT
 10
106.4150
 20
53.8883
 30
0.0000
 41
1.0000
 42
1.3000
 43
1.0000
 50
90.0000
  0
INSERT
  8
31
  2
RECT
 10
106.4150
 20
55.2883
 30
0.0000
 41
1.0000
 42
1.3000
 43
1.0000
 50
90.0000
  0
INSERT
  8
31
  2
RECT
 10
115.0650
 20
53.8883
 30
0.0000
 41
1.0000
 42
1.3000
 43
1.0000
 50
90.0000
  0
INSERT
  8
31
  2
RECT
 10
115.0650
 20
55.2883
 30
0.0000
 41
1.0000
 42
1.3000
 43
1.0000
 50
90.0000
  0
INSERT
  8
31
  2
RECT
 10
28.5750
 20
44.2722
 30
0.0000
 41
1.0000
 42
1.3000
 43
1.0000
 50
90.0000
  0
INSERT
  8
31
  2
RECT
 10
28.5750
 20
45.6722
 30
0.0000
 41
1.0000
 42
1.3000
 43
1.0000
 50
90.0000
  0
INSERT
  8
31
  2
RECT
 10
37.2250
 20
44.2722
 30
0.0000
 41
1.0000
 42
1.3000
 43
1.0000
 50
90.0000
  0
INSERT
  8
31
  2
RECT
 10
37.2250
 20
45.6722
 30
0.0000
 41
1.0000
 42
1.3000
 43
1.0000
 50
90.0000
  0
INSERT
  8
31
  2
RECT
 10
45.8750
 20
44.2722
 30
0.0000
 41
1.0000
 42
1.3000
 43
1.0000
 50
90.0000
  0
INSERT
  8
31
  2
RECT
 10
45.8750
 20
45.6722
 30
0.0000
 41
1.0000
 42
1.3000
 43
1.0000
 50
90.0000
  0
INSERT
  8
31
  2
RECT
 10
54.5250
 20
44.2722
 30
0.0000
 41
1.0000
 42
1.3000
 43
1.0000
 50
90.0000
  0
INSERT
  8
31
  2
RECT
 10
54.5250
 20
45.6722
 30
0.0000
 41
1.0000
 42
1.3000
 43
1.0000
 50
90.0000
  0
INSERT
  8
31
  2
RECT
 10
63.1750
 20
44.2722
 30
0.0000
 41
1.0000
 42
1.3000
 43
1.0000
 50
90.0000
  0
INSERT
  8
31
  2
RECT
 10
63.1750
 20
45.6722
 30
0.0000
 41
1.0000
 42
1.3000
 43
1.0000
 50
90.0000
  0
INSERT
  8
31
  2
RECT
 10
71.8250
 20
44.2722
 30
0.0000
 41
1.0000
 42
1.3000
 43
1.0000
 50
90.0000
  0
INSERT
  8
31
  2
RECT
 10
71.8250
 20
45.6722
 30
0.0000
 41
1.0000
 42
1.3000
 43
1.0000
 50
90.0000
  0
INSERT
  8
31
  2
RECT
 10
80.4750
 20
44.2722
 30
0.0000
 41
1.0000
 42
1.3000
 43
1.0000
 50
90.0000
  0
INSERT
  8
31
  2
RECT
 10
80.4750
 20
45.6722
 30
0.0000
 41
1.0000
 42
1.3000
 43
1.0000
 50
90.0000
  0
INSERT
  8
31
  2
RECT
 10
89.1250
 20
44.2722
 30
0.0000
 41
1.0000
 42
1.3000
 43
1.0000
 50
90.0000
  0
INSERT
  8
31
  2
RECT
 10
89.1250
 20
45.6722
 30
0.0000
 41
1.0000
 42
1.3000
 43
1.0000
 50
90.0000
  0
INSERT
  8
31
  2
RECT
 10
97.7750
 20
44.2722
 30
0.0000
 41
1.0000
 42
1.3000
 43
1.0000
 50
90.0000
  0
INSERT
  8
31
  2
RECT
 10
97.7750
 20
45.6722
 30
0.0000
 41
1.0000
 42
1.3000
 43
1.0000
 50
90.0000
  0
INSERT
  8
31
  2
RECT
 10
106.4250
 20
44.2722
 30
0.0000
 41
1.0000
 42
1.3000
 43
1.0000
 50
90.0000
  0
INSERT
  8
31
  2
RECT
 10
106.4250
 20
45.6722
 30
0.0000
 41
1.0000
 42
1.3000
 43
1.0000
 50
90.0000
  0
INSERT
  8
31
  2
RECT
 10
115.0750
 20
44.2722
 30
0.0000
 41
1.0000
 42
1.3000
 43
1.0000
 50
90.0000
  0
INSERT
  8
31
  2
RECT
 10
115.0750
 20
45.6722
 30
0.0000
 41
1.0000
 42
1.3000
 43
1.0000
 50
90.0000
  0
INSERT
  8
31
  2
RECT
 10
28.5850
 20
34.6650
 30
0.0000
 41
1.0000
 42
1.3000
 43
1.0000
 50
90.0000
  0
INSERT
  8
31
  2
RECT
 10
28.5850
 20
36.0650
 30
0.0000
 41
1.0000
 42
1.3000
 43
1.0000
 50
90.0000
  0
INSERT
  8
31
  2
RECT
 10
37.2350
 20
34.6650
 30
0.0000
 41
1.0000
 42
1.3000
 43
1.0000
 50
90.0000
  0
INSERT
  8
31
  2
RECT
 10
37.2350
 20
36.0650
 30
0.0000
 41
1.0000
 42
1.3000
 43
1.0000
 50
90.0000
  0
INSERT
  8
31
  2
RECT
 10
45.8850
 20
34.6650
 30
0.0000
 41
1.0000
 42
1.3000
 43
1.0000
 50
90.0000
  0
INSERT
  8
31
  2
RECT
 10
45.8850
 20
36.0650
 30
0.0000
 41
1.0000
 42
1.3000
 43
1.0000
 50
90.0000
  0
INSERT
  8
31
  2
RECT
 10
54.5350
 20
34.6650
 30
0.0000
 41
1.0000
 42
1.3000
 43
1.0000
 50
90.0000
  0
INSERT
  8
31
  2
RECT
 10
54.5350
 20
36.0650
 30
0.0000
 41
1.0000
 42
1.3000
 43
1.0000
 50
90.0000
  0
INSERT
  8
31
  2
RECT
 10
63.1850
 20
34.6650
 30
0.0000
 41
1.0000
 42
1.3000
 43
1.0000
 50
90.0000
  0
INSERT
  8
31
  2
RECT
 10
63.1850
 20
36.0650
 30
0.0000
 41
1.0000
 42
1.3000
 43
1.0000
 50
90.0000
  0
INSERT
  8
31
  2
RECT
 10
71.8350
 20
34.6650
 30
0.0000
 41
1.0000
 42
1.3000
 43
1.0000
 50
90.0000
  0
INSERT
  8
31
  2
RECT
 10
71.8350
 20
36.0650
 30
0.0000
 41
1.0000
 42
1.3000
 43
1.0000
 50
90.0000
  0
INSERT
  8
31
  2
RECT
 10
80.4850
 20
34.6650
 30
0.0000
 41
1.0000
 42
1.3000
 43
1.0000
 50
90.0000
  0
INSERT
  8
31
  2
RECT
 10
80.4850
 20
36.0650
 30
0.0000
 41
1.0000
 42
1.3000
 43
1.0000
 50
90.0000
  0
INSERT
  8
31
  2
RECT
 10
89.1350
 20
34.6650
 30
0.0000
 41
1.0000
 42
1.3000
 43
1.0000
 50
90.0000
  0
INSERT
  8
31
  2
RECT
 10
89.1350
 20
36.0650
 30
0.0000
 41
1.0000
 42
1.3000
 43
1.0000
 50
90.0000
  0
INSERT
  8
31
  2
RECT
 10
97.7850
 20
34.6650
 30
0.0000
 41
1.0000
 42
1.3000
 43
1.0000
 50
90.0000
  0
INSERT
  8
31
  2
RECT
 10
97.7850
 20
36.0650
 30
0.0000
 41
1.0000
 42
1.3000
 43
1.0000
 50
90.0000
  0
INSERT
  8
31
  2
RECT
 10
106.4350
 20
34.6650
 30
0.0000
 41
1.0000
 42
1.3000
 43
1.0000
 50
90.0000
  0
INSERT
  8
31
  2
RECT
 10
106.4350
 20
36.0650
 30
0.0000
 41
1.0000
 42
1.3000
 43
1.0000
 50
90.0000
  0
INSERT
  8
31
  2
RECT
 10
115.0850
 20
34.6650
 30
0.0000
 41
1.0000
 42
1.3000
 43
1.0000
 50
90.0000
  0
INSERT
  8
31
  2
RECT
 10
115.0850
 20
36.0650
 30
0.0000
 41
1.0000
 42
1.3000
 43
1.0000
 50
90.0000
  0
INSERT
  8
31
  2
RECT
 10
28.5950
 20
25.0489
 30
0.0000
 41
1.0000
 42
1.3000
 43
1.0000
 50
90.0000
  0
INSERT
  8
31
  2
RECT
 10
28.5950
 20
26.4489
 30
0.0000
 41
1.0000
 42
1.3000
 43
1.0000
 50
90.0000
  0
INSERT
  8
31
  2
RECT
 10
37.2450
 20
25.0489
 30
0.0000
 41
1.0000
 42
1.3000
 43
1.0000
 50
90.0000
  0
INSERT
  8
31
  2
RECT
 10
37.2450
 20
26.4489
 30
0.0000
 41
1.0000
 42
1.3000
 43
1.0000
 50
90.0000
  0
INSERT
  8
31
  2
RECT
 10
45.8950
 20
25.0489
 30
0.0000
 41
1.0000
 42
1.3000
 43
1.0000
 50
90.0000
  0
INSERT
  8
31
  2
RECT
 10
45.8950
 20
26.4489
 30
0.0000
 41
1.0000
 42
1.3000
 43
1.0000
 50
90.0000
  0
INSERT
  8
31
  2
RECT
 10
54.5450
 20
25.0489
 30
0.0000
 41
1.0000
 42
1.3000
 43
1.0000
 50
90.0000
  0
INSERT
  8
31
  2
RECT
 10
54.5450
 20
26.4489
 30
0.0000
 41
1.0000
 42
1.3000
 43
1.0000
 50
90.0000
  0
INSERT
  8
31
  2
RECT
 10
63.1950
 20
25.0489
 30
0.0000
 41
1.0000
 42
1.3000
 43
1.0000
 50
90.0000
  0
INSERT
  8
31
  2
RECT
 10
63.1950
 20
26.4489
 30
0.0000
 41
1.0000
 42
1.3000
 43
1.0000
 50
90.0000
  0
INSERT
  8
31
  2
RECT
 10
71.8450
 20
25.0489
 30
0.0000
 41
1.0000
 42
1.3000
 43
1.0000
 50
90.0000
  0
INSERT
  8
31
  2
RECT
 10
71.8450
 20
26.4489
 30
0.0000
 41
1.0000
 42
1.3000
 43
1.0000
 50
90.0000
  0
INSERT
  8
31
  2
RECT
 10
80.4950
 20
25.0489
 30
0.0000
 41
1.0000
 42
1.3000
 43
1.0000
 50
90.0000
  0
INSERT
  8
31
  2
RECT
 10
80.4950
 20
26.4489
 30
0.0000
 41
1.0000
 42
1.3000
 43
1.0000
 50
90.0000
  0
INSERT
  8
31
  2
RECT
 10
89.1450
 20
25.0489
 30
0.0000
 41
1.0000
 42
1.3000
 43
1.0000
 50
90.0000
  0
INSERT
  8
31
  2
RECT
 10
89.1450
 20
26.4489
 30
0.0000
 41
1.0000
 42
1.3000
 43
1.0000
 50
90.0000
  0
INSERT
  8
31
  2
RECT
 10
97.7950
 20
25.0489
 30
0.0000
 41
1.0000
 42
1.3000
 43
1.0000
 50
90.0000
  0
INSERT
  8
31
  2
RECT
 10
97.7950
 20
26.4489
 30
0.0000
 41
1.0000
 42
1.3000
 43
1.0000
 50
90.0000
  0
INSERT
  8
31
  2
RECT
 10
106.4450
 20
25.0489
 30
0.0000
 41
1.0000
 42
1.3000
 43
1.0000
 50
90.0000
  0
INSERT
  8
31
  2
RECT
 10
106.4450
 20
26.4489
 30
0.0000
 41
1.0000
 42
1.3000
 43
1.0000
 50
90.0000
  0
INSERT
  8
31
  2
RECT
 10
115.0950
 20
25.0489
 30
0.0000
 41
1.0000
 42
1.3000
 43
1.0000
 50
90.0000
  0
INSERT
  8
31
  2
RECT
 10
115.0950
 20
26.4489
 30
0.0000
 41
1.0000
 42
1.3000
 43
1.0000
 50
90.0000
  0
INSERT
  8
31
  2
RECT
 10
20.9400
 20
60.5900
 30
0.0000
 41
1.3000
 42
1.5000
 43
1.0000
 50
270.0000
  0
INSERT
  8
31
  2
RECT
 10
20.9400
 20
58.6900
 30
0.0000
 41
1.3000
 42
1.5000
 43
1.0000
 50
270.0000
  0
INSERT
  8
31
  2
RECT
 10
17.8600
 20
64.0100
 30
0.0000
 41
1.3000
 42
1.5000
 43
1.0000
 50
270.0000
  0
INSERT
  8
31
  2
RECT
 10
17.8600
 20
62.1100
 30
0.0000
 41
1.3000
 42
1.5000
 43
1.0000
 50
270.0000
  0
INSERT
  8
31
  2
RECT
 10
12.9000
 20
61.8000
 30
0.0000
 41
1.6000
 42
1.8000
 43
1.0000
 50
180.0000
  0
INSERT
  8
31
  2
RECT
 10
10.1000
 20
61.8000
 30
0.0000
 41
1.6000
 42
1.8000
 43
1.0000
 50
180.0000
  0
INSERT
  8
31
  2
RECT
 10
10.0000
 20
65.9300
 30
0.0000
 41
1.3000
 42
1.5000
 43
1.0000
 50
270.0000
  0
INSERT
  8
31
  2
RECT
 10
10.0000
 20
64.0300
 30
0.0000
 41
1.3000
 42
1.5000
 43
1.0000
 50
270.0000
  0
INSERT
  8
31
  2
RECT
 10
19.9700
 20
64.9100
 30
0.0000
 41
1.3000
 42
1.5000
 43
1.0000
 50
90.0000
  0
INSERT
  8
31
  2
RECT
 10
19.9700
 20
66.8100
 30
0.0000
 41
1.3000
 42
1.5000
 43
1.0000
 50
90.0000
  0
INSERT
  8
31
  2
RECT
 10
58.1000
 20
118.5500
 30
0.0000
 41
1.6000
 42
1.8000
 43
1.0000
 50
270.0000
  0
INSERT
  8
31
  2
RECT
 10
58.1000
 20
115.7500
 30
0.0000
 41
1.6000
 42
1.8000
 43
1.0000
 50
270.0000
  0
INSERT
  8
31
  2
RECT
 10
26.6500
 20
16.3300
 30
0.0000
 41
1.6000
 42
1.8000
 43
1.0000
 50
90.0000
  0
INSERT
  8
31
  2
RECT
 10
26.6500
 20
19.1300
 30
0.0000
 41
1.6000
 42
1.8000
 43
1.0000
 50
90.0000
  0
INSERT
  8
31
  2
RECT
 10
46.7700
 20
16.4100
 30
0.0000
 41
1.6000
 42
1.8000
 43
1.0000
 50
90.0000
  0
INSERT
  8
31
  2
RECT
 10
46.7700
 20
19.2100
 30
0.0000
 41
1.6000
 42
1.8000
 43
1.0000
 50
90.0000
  0
INSERT
  8
31
  2
RECT
 10
66.7500
 20
16.4400
 30
0.0000
 41
1.6000
 42
1.8000
 43
1.0000
 50
90.0000
  0
INSERT
  8
31
  2
RECT
 10
66.7500
 20
19.2400
 30
0.0000
 41
1.6000
 42
1.8000
 43
1.0000
 50
90.0000
  0
INSERT
  8
31
  2
RECT
 10
86.5800
 20
16.4300
 30
0.0000
 41
1.6000
 42
1.8000
 43
1.0000
 50
90.0000
  0
INSERT
  8
31
  2
RECT
 10
86.5800
 20
19.2300
 30
0.0000
 41
1.6000
 42
1.8000
 43
1.0000
 50
90.0000
  0
INSERT
  8
31
  2
RECT
 10
22.6000
 20
108.3050
 30
0.0000
 41
1.5000
 42
0.9000
 43
1.0000
 50
90.0000
  0
INSERT
  8
31
  2
RECT
 10
25.9000
 20
108.3050
 30
0.0000
 41
1.5000
 42
0.9000
 43
1.0000
 50
90.0000
  0
INSERT
  8
31
  2
RECT
 10
25.9000
 20
113.2050
 30
0.0000
 41
1.5000
 42
0.9000
 43
1.0000
 50
90.0000
  0
INSERT
  8
31
  2
RECT
 10
22.6000
 20
113.2050
 30
0.0000
 41
1.5000
 42
0.9000
 43
1.0000
 50
90.0000
  0
INSERT
  8
31
  2
RECT
 10
31.2500
 20
108.3050
 30
0.0000
 41
1.5000
 42
0.9000
 43
1.0000
 50
90.0000
  0
INSERT
  8
31
  2
RECT
 10
34.5500
 20
108.3050
 30
0.0000
 41
1.5000
 42
0.9000
 43
1.0000
 50
90.0000
  0
INSERT
  8
31
  2
RECT
 10
34.5500
 20
113.2050
 30
0.0000
 41
1.5000
 42
0.9000
 43
1.0000
 50
90.0000
  0
INSERT
  8
31
  2
RECT
 10
31.2500
 20
113.2050
 30
0.0000
 41
1.5000
 42
0.9000
 43
1.0000
 50
90.0000
  0
INSERT
  8
31
  2
RECT
 10
39.9000
 20
108.3050
 30
0.0000
 41
1.5000
 42
0.9000
 43
1.0000
 50
90.0000
  0
INSERT
  8
31
  2
RECT
 10
43.2000
 20
108.3050
 30
0.0000
 41
1.5000
 42
0.9000
 43
1.0000
 50
90.0000
  0
INSERT
  8
31
  2
RECT
 10
43.2000
 20
113.2050
 30
0.0000
 41
1.5000
 42
0.9000
 43
1.0000
 50
90.0000
  0
INSERT
  8
31
  2
RECT
 10
39.9000
 20
113.2050
 30
0.0000
 41
1.5000
 42
0.9000
 43
1.0000
 50
90.0000
  0
INSERT
  8
31
  2
RECT
 10
48.5500
 20
108.3050
 30
0.0000
 41
1.5000
 42
0.9000
 43
1.0000
 50
90.0000
  0
INSERT
  8
31
  2
RECT
 10
51.8500
 20
108.3050
 30
0.0000
 41
1.5000
 42
0.9000
 43
1.0000
 50
90.0000
  0
INSERT
  8
31
  2
RECT
 10
51.8500
 20
113.2050
 30
0.0000
 41
1.5000
 42
0.9000
 43
1.0000
 50
90.0000
  0
INSERT
  8
31
  2
RECT
 10
48.5500
 20
113.2050
 30
0.0000
 41
1.5000
 42
0.9000
 43
1.0000
 50
90.0000
  0
INSERT
  8
31
  2
RECT
 10
57.2000
 20
108.3050
 30
0.0000
 41
1.5000
 42
0.9000
 43
1.0000
 50
90.0000
  0
INSERT
  8
31
  2
RECT
 10
60.5000
 20
108.3050
 30
0.0000
 41
1.5000
 42
0.9000
 43
1.0000
 50
90.0000
  0
INSERT
  8
31
  2
RECT
 10
60.5000
 20
113.2050
 30
0.0000
 41
1.5000
 42
0.9000
 43
1.0000
 50
90.0000
  0
INSERT
  8
31
  2
RECT
 10
57.2000
 20
113.2050
 30
0.0000
 41
1.5000
 42
0.9000
 43
1.0000
 50
90.0000
  0
INSERT
  8
31
  2
RECT
 10
65.8500
 20
108.3050
 30
0.0000
 41
1.5000
 42
0.9000
 43
1.0000
 50
90.0000
  0
INSERT
  8
31
  2
RECT
 10
69.1500
 20
108.3050
 30
0.0000
 41
1.5000
 42
0.9000
 43
1.0000
 50
90.0000
  0
INSERT
  8
31
  2
RECT
 10
69.1500
 20
113.2050
 30
0.0000
 41
1.5000
 42
0.9000
 43
1.0000
 50
90.0000
  0
INSERT
  8
31
  2
RECT
 10
65.8500
 20
113.2050
 30
0.0000
 41
1.5000
 42
0.9000
 43
1.0000
 50
90.0000
  0
INSERT
  8
31
  2
RECT
 10
74.5000
 20
108.3050
 30
0.0000
 41
1.5000
 42
0.9000
 43
1.0000
 50
90.0000
  0
INSERT
  8
31
  2
RECT
 10
77.8000
 20
108.3050
 30
0.0000
 41
1.5000
 42
0.9000
 43
1.0000
 50
90.0000
  0
INSERT
  8
31
  2
RECT
 10
77.8000
 20
113.2050
 30
0.0000
 41
1.5000
 42
0.9000
 43
1.0000
 50
90.0000
  0
INSERT
  8
31
  2
RECT
 10
74.5000
 20
113.2050
 30
0.0000
 41
1.5000
 42
0.9000
 43
1.0000
 50
90.0000
  0
INSERT
  8
31
  2
RECT
 10
83.1500
 20
108.3050
 30
0.0000
 41
1.5000
 42
0.9000
 43
1.0000
 50
90.0000
  0
INSERT
  8
31
  2
RECT
 10
86.4500
 20
108.3050
 30
0.0000
 41
1.5000
 42
0.9000
 43
1.0000
 50
90.0000
  0
INSERT
  8
31
  2
RECT
 10
86.4500
 20
113.2050
 30
0.0000
 41
1.5000
 42
0.9000
 43
1.0000
 50
90.0000
  0
INSERT
  8
31
  2
RECT
 10
83.1500
 20
113.2050
 30
0.0000
 41
1.5000
 42
0.9000
 43
1.0000
 50
90.0000
  0
INSERT
  8
31
  2
RECT
 10
91.8000
 20
108.3050
 30
0.0000
 41
1.5000
 42
0.9000
 43
1.0000
 50
90.0000
  0
INSERT
  8
31
  2
RECT
 10
95.1000
 20
108.3050
 30
0.0000
 41
1.5000
 42
0.9000
 43
1.0000
 50
90.0000
  0
INSERT
  8
31
  2
RECT
 10
95.1000
 20
113.2050
 30
0.0000
 41
1.5000
 42
0.9000
 43
1.0000
 50
90.0000
  0
INSERT
  8
31
  2
RECT
 10
91.8000
 20
113.2050
 30
0.0000
 41
1.5000
 42
0.9000
 43
1.0000
 50
90.0000
  0
INSERT
  8
31
  2
RECT
 10
100.4500
 20
108.3050
 30
0.0000
 41
1.5000
 42
0.9000
 43
1.0000
 50
90.0000
  0
INSERT
  8
31
  2
RECT
 10
103.7500
 20
108.3050
 30
0.0000
 41
1.5000
 42
0.9000
 43
1.0000
 50
90.0000
  0
INSERT
  8
31
  2
RECT
 10
103.7500
 20
113.2050
 30
0.0000
 41
1.5000
 42
0.9000
 43
1.0000
 50
90.0000
  0
INSERT
  8
31
  2
RECT
 10
100.4500
 20
113.2050
 30
0.0000
 41
1.5000
 42
0.9000
 43
1.0000
 50
90.0000
  0
INSERT
  8
31
  2
RECT
 10
109.1000
 20
108.3050
 30
0.0000
 41
1.5000
 42
0.9000
 43
1.0000
 50
90.0000
  0
INSERT
  8
31
  2
RECT
 10
112.4000
 20
108.3050
 30
0.0000
 41
1.5000
 42
0.9000
 43
1.0000
 50
90.0000
  0
INSERT
  8
31
  2
RECT
 10
112.4000
 20
113.2050
 30
0.0000
 41
1.5000
 42
0.9000
 43
1.0000
 50
90.0000
  0
INSERT
  8
31
  2
RECT
 10
109.1000
 20
113.2050
 30
0.0000
 41
1.5000
 42
0.9000
 43
1.0000
 50
90.0000
  0
INSERT
  8
31
  2
RECT
 10
22.6100
 20
98.6889
 30
0.0000
 41
1.5000
 42
0.9000
 43
1.0000
 50
90.0000
  0
INSERT
  8
31
  2
RECT
 10
25.9100
 20
98.6889
 30
0.0000
 41
1.5000
 42
0.9000
 43
1.0000
 50
90.0000
  0
INSERT
  8
31
  2
RECT
 10
25.9100
 20
103.5889
 30
0.0000
 41
1.5000
 42
0.9000
 43
1.0000
 50
90.0000
  0
INSERT
  8
31
  2
RECT
 10
22.6100
 20
103.5889
 30
0.0000
 41
1.5000
 42
0.9000
 43
1.0000
 50
90.0000
  0
INSERT
  8
31
  2
RECT
 10
31.2600
 20
98.6889
 30
0.0000
 41
1.5000
 42
0.9000
 43
1.0000
 50
90.0000
  0
INSERT
  8
31
  2
RECT
 10
34.5600
 20
98.6889
 30
0.0000
 41
1.5000
 42
0.9000
 43
1.0000
 50
90.0000
  0
INSERT
  8
31
  2
RECT
 10
34.5600
 20
103.5889
 30
0.0000
 41
1.5000
 42
0.9000
 43
1.0000
 50
90.0000
  0
INSERT
  8
31
  2
RECT
 10
31.2600
 20
103.5889
 30
0.0000
 41
1.5000
 42
0.9000
 43
1.0000
 50
90.0000
  0
INSERT
  8
31
  2
RECT
 10
39.9100
 20
98.6889
 30
0.0000
 41
1.5000
 42
0.9000
 43
1.0000
 50
90.0000
  0
INSERT
  8
31
  2
RECT
 10
43.2100
 20
98.6889
 30
0.0000
 41
1.5000
 42
0.9000
 43
1.0000
 50
90.0000
  0
INSERT
  8
31
  2
RECT
 10
43.2100
 20
103.5889
 30
0.0000
 41
1.5000
 42
0.9000
 43
1.0000
 50
90.0000
  0
INSERT
  8
31
  2
RECT
 10
39.9100
 20
103.5889
 30
0.0000
 41
1.5000
 42
0.9000
 43
1.0000
 50
90.0000
  0
INSERT
  8
31
  2
RECT
 10
48.5600
 20
98.6889
 30
0.0000
 41
1.5000
 42
0.9000
 43
1.0000
 50
90.0000
  0
INSERT
  8
31
  2
RECT
 10
51.8600
 20
98.6889
 30
0.0000
 41
1.5000
 42
0.9000
 43
1.0000
 50
90.0000
  0
INSERT
  8
31
  2
RECT
 10
51.8600
 20
103.5889
 30
0.0000
 41
1.5000
 42
0.9000
 43
1.0000
 50
90.0000
  0
INSERT
  8
31
  2
RECT
 10
48.5600
 20
103.5889
 30
0.0000
 41
1.5000
 42
0.9000
 43
1.0000
 50
90.0000
  0
INSERT
  8
31
  2
RECT
 10
57.2100
 20
98.6889
 30
0.0000
 41
1.5000
 42
0.9000
 43
1.0000
 50
90.0000
  0
INSERT
  8
31
  2
RECT
 10
60.5100
 20
98.6889
 30
0.0000
 41
1.5000
 42
0.9000
 43
1.0000
 50
90.0000
  0
INSERT
  8
31
  2
RECT
 10
60.5100
 20
103.5889
 30
0.0000
 41
1.5000
 42
0.9000
 43
1.0000
 50
90.0000
  0
INSERT
  8
31
  2
RECT
 10
57.2100
 20
103.5889
 30
0.0000
 41
1.5000
 42
0.9000
 43
1.0000
 50
90.0000
  0
INSERT
  8
31
  2
RECT
 10
65.8600
 20
98.6889
 30
0.0000
 41
1.5000
 42
0.9000
 43
1.0000
 50
90.0000
  0
INSERT
  8
31
  2
RECT
 10
69.1600
 20
98.6889
 30
0.0000
 41
1.5000
 42
0.9000
 43
1.0000
 50
90.0000
  0
INSERT
  8
31
  2
RECT
 10
69.1600
 20
103.5889
 30
0.0000
 41
1.5000
 42
0.9000
 43
1.0000
 50
90.0000
  0
INSERT
  8
31
  2
RECT
 10
65.8600
 20
103.5889
 30
0.0000
 41
1.5000
 42
0.9000
 43
1.0000
 50
90.0000
  0
INSERT
  8
31
  2
RECT
 10
74.5100
 20
98.6889
 30
0.0000
 41
1.5000
 42
0.9000
 43
1.0000
 50
90.0000
  0
INSERT
  8
31
  2
RECT
 10
77.8100
 20
98.6889
 30
0.0000
 41
1.5000
 42
0.9000
 43
1.0000
 50
90.0000
  0
INSERT
  8
31
  2
RECT
 10
77.8100
 20
103.5889
 30
0.0000
 41
1.5000
 42
0.9000
 43
1.0000
 50
90.0000
  0
INSERT
  8
31
  2
RECT
 10
74.5100
 20
103.5889
 30
0.0000
 41
1.5000
 42
0.9000
 43
1.0000
 50
90.0000
  0
INSERT
  8
31
  2
RECT
 10
83.1600
 20
98.6889
 30
0.0000
 41
1.5000
 42
0.9000
 43
1.0000
 50
90.0000
  0
INSERT
  8
31
  2
RECT
 10
86.4600
 20
98.6889
 30
0.0000
 41
1.5000
 42
0.9000
 43
1.0000
 50
90.0000
  0
INSERT
  8
31
  2
RECT
 10
86.4600
 20
103.5889
 30
0.0000
 41
1.5000
 42
0.9000
 43
1.0000
 50
90.0000
  0
INSERT
  8
31
  2
RECT
 10
83.1600
 20
103.5889
 30
0.0000
 41
1.5000
 42
0.9000
 43
1.0000
 50
90.0000
  0
INSERT
  8
31
  2
RECT
 10
91.8100
 20
98.6889
 30
0.0000
 41
1.5000
 42
0.9000
 43
1.0000
 50
90.0000
  0
INSERT
  8
31
  2
RECT
 10
95.1100
 20
98.6889
 30
0.0000
 41
1.5000
 42
0.9000
 43
1.0000
 50
90.0000
  0
INSERT
  8
31
  2
RECT
 10
95.1100
 20
103.5889
 30
0.0000
 41
1.5000
 42
0.9000
 43
1.0000
 50
90.0000
  0
INSERT
  8
31
  2
RECT
 10
91.8100
 20
103.5889
 30
0.0000
 41
1.5000
 42
0.9000
 43
1.0000
 50
90.0000
  0
INSERT
  8
31
  2
RECT
 10
100.4600
 20
98.6889
 30
0.0000
 41
1.5000
 42
0.9000
 43
1.0000
 50
90.0000
  0
INSERT
  8
31
  2
RECT
 10
103.7600
 20
98.6889
 30
0.0000
 41
1.5000
 42
0.9000
 43
1.0000
 50
90.0000
  0
INSERT
  8
31
  2
RECT
 10
103.7600
 20
103.5889
 30
0.0000
 41
1.5000
 42
0.9000
 43
1.0000
 50
90.0000
  0
INSERT
  8
31
  2
RECT
 10
100.4600
 20
103.5889
 30
0.0000
 41
1.5000
 42
0.9000
 43
1.0000
 50
90.0000
  0
INSERT
  8
31
  2
RECT
 10
109.1100
 20
98.6889
 30
0.0000
 41
1.5000
 42
0.9000
 43
1.0000
 50
90.0000
  0
INSERT
  8
31
  2
RECT
 10
112.4100
 20
98.6889
 30
0.0000
 41
1.5000
 42
0.9000
 43
1.0000
 50
90.0000
  0
INSERT
  8
31
  2
RECT
 10
112.4100
 20
103.5889
 30
0.0000
 41
1.5000
 42
0.9000
 43
1.0000
 50
90.0000
  0
INSERT
  8
31
  2
RECT
 10
109.1100
 20
103.5889
 30
0.0000
 41
1.5000
 42
0.9000
 43
1.0000
 50
90.0000
  0
INSERT
  8
31
  2
RECT
 10
22.5900
 20
89.0828
 30
0.0000
 41
1.5000
 42
0.9000
 43
1.0000
 50
90.0000
  0
INSERT
  8
31
  2
RECT
 10
25.8900
 20
89.0828
 30
0.0000
 41
1.5000
 42
0.9000
 43
1.0000
 50
90.0000
  0
INSERT
  8
31
  2
RECT
 10
25.8900
 20
93.9828
 30
0.0000
 41
1.5000
 42
0.9000
 43
1.0000
 50
90.0000
  0
INSERT
  8
31
  2
RECT
 10
22.5900
 20
93.9828
 30
0.0000
 41
1.5000
 42
0.9000
 43
1.0000
 50
90.0000
  0
INSERT
  8
31
  2
RECT
 10
31.2400
 20
89.0828
 30
0.0000
 41
1.5000
 42
0.9000
 43
1.0000
 50
90.0000
  0
INSERT
  8
31
  2
RECT
 10
34.5400
 20
89.0828
 30
0.0000
 41
1.5000
 42
0.9000
 43
1.0000
 50
90.0000
  0
INSERT
  8
31
  2
RECT
 10
34.5400
 20
93.9828
 30
0.0000
 41
1.5000
 42
0.9000
 43
1.0000
 50
90.0000
  0
INSERT
  8
31
  2
RECT
 10
31.2400
 20
93.9828
 30
0.0000
 41
1.5000
 42
0.9000
 43
1.0000
 50
90.0000
  0
INSERT
  8
31
  2
RECT
 10
39.8900
 20
89.0828
 30
0.0000
 41
1.5000
 42
0.9000
 43
1.0000
 50
90.0000
  0
INSERT
  8
31
  2
RECT
 10
43.1900
 20
89.0828
 30
0.0000
 41
1.5000
 42
0.9000
 43
1.0000
 50
90.0000
  0
INSERT
  8
31
  2
RECT
 10
43.1900
 20
93.9828
 30
0.0000
 41
1.5000
 42
0.9000
 43
1.0000
 50
90.0000
  0
INSERT
  8
31
  2
RECT
 10
39.8900
 20
93.9828
 30
0.0000
 41
1.5000
 42
0.9000
 43
1.0000
 50
90.0000
  0
INSERT
  8
31
  2
RECT
 10
48.5400
 20
89.0828
 30
0.0000
 41
1.5000
 42
0.9000
 43
1.0000
 50
90.0000
  0
INSERT
  8
31
  2
RECT
 10
51.8400
 20
89.0828
 30
0.0000
 41
1.5000
 42
0.9000
 43
1.0000
 50
90.0000
  0
INSERT
  8
31
  2
RECT
 10
51.8400
 20
93.9828
 30
0.0000
 41
1.5000
 42
0.9000
 43
1.0000
 50
90.0000
  0
INSERT
  8
31
  2
RECT
 10
48.5400
 20
93.9828
 30
0.0000
 41
1.5000
 42
0.9000
 43
1.0000
 50
90.0000
  0
INSERT
  8
31
  2
RECT
 10
57.1900
 20
89.0828
 30
0.0000
 41
1.5000
 42
0.9000
 43
1.0000
 50
90.0000
  0
INSERT
  8
31
  2
RECT
 10
60.4900
 20
89.0828
 30
0.0000
 41
1.5000
 42
0.9000
 43
1.0000
 50
90.0000
  0
INSERT
  8
31
  2
RECT
 10
60.4900
 20
93.9828
 30
0.0000
 41
1.5000
 42
0.9000
 43
1.0000
 50
90.0000
  0
INSERT
  8
31
  2
RECT
 10
57.1900
 20
93.9828
 30
0.0000
 41
1.5000
 42
0.9000
 43
1.0000
 50
90.0000
  0
INSERT
  8
31
  2
RECT
 10
65.8400
 20
89.0828
 30
0.0000
 41
1.5000
 42
0.9000
 43
1.0000
 50
90.0000
  0
INSERT
  8
31
  2
RECT
 10
69.1400
 20
89.0828
 30
0.0000
 41
1.5000
 42
0.9000
 43
1.0000
 50
90.0000
  0
INSERT
  8
31
  2
RECT
 10
69.1400
 20
93.9828
 30
0.0000
 41
1.5000
 42
0.9000
 43
1.0000
 50
90.0000
  0
INSERT
  8
31
  2
RECT
 10
65.8400
 20
93.9828
 30
0.0000
 41
1.5000
 42
0.9000
 43
1.0000
 50
90.0000
  0
INSERT
  8
31
  2
RECT
 10
74.4900
 20
89.0828
 30
0.0000
 41
1.5000
 42
0.9000
 43
1.0000
 50
90.0000
  0
INSERT
  8
31
  2
RECT
 10
77.7900
 20
89.0828
 30
0.0000
 41
1.5000
 42
0.9000
 43
1.0000
 50
90.0000
  0
INSERT
  8
31
  2
RECT
 10
77.7900
 20
93.9828
 30
0.0000
 41
1.5000
 42
0.9000
 43
1.0000
 50
90.0000
  0
INSERT
  8
31
  2
RECT
 10
74.4900
 20
93.9828
 30
0.0000
 41
1.5000
 42
0.9000
 43
1.0000
 50
90.0000
  0
INSERT
  8
31
  2
RECT
 10
83.1400
 20
89.0828
 30
0.0000
 41
1.5000
 42
0.9000
 43
1.0000
 50
90.0000
  0
INSERT
  8
31
  2
RECT
 10
86.4400
 20
89.0828
 30
0.0000
 41
1.5000
 42
0.9000
 43
1.0000
 50
90.0000
  0
INSERT
  8
31
  2
RECT
 10
86.4400
 20
93.9828
 30
0.0000
 41
1.5000
 42
0.9000
 43
1.0000
 50
90.0000
  0
INSERT
  8
31
  2
RECT
 10
83.1400
 20
93.9828
 30
0.0000
 41
1.5000
 42
0.9000
 43
1.0000
 50
90.0000
  0
INSERT
  8
31
  2
RECT
 10
91.7900
 20
89.0828
 30
0.0000
 41
1.5000
 42
0.9000
 43
1.0000
 50
90.0000
  0
INSERT
  8
31
  2
RECT
 10
95.0900
 20
89.0828
 30
0.0000
 41
1.5000
 42
0.9000
 43
1.0000
 50
90.0000
  0
INSERT
  8
31
  2
RECT
 10
95.0900
 20
93.9828
 30
0.0000
 41
1.5000
 42
0.9000
 43
1.0000
 50
90.0000
  0
INSERT
  8
31
  2
RECT
 10
91.7900
 20
93.9828
 30
0.0000
 41
1.5000
 42
0.9000
 43
1.0000
 50
90.0000
  0
INSERT
  8
31
  2
RECT
 10
100.4400
 20
89.0828
 30
0.0000
 41
1.5000
 42
0.9000
 43
1.0000
 50
90.0000
  0
INSERT
  8
31
  2
RECT
 10
103.7400
 20
89.0828
 30
0.0000
 41
1.5000
 42
0.9000
 43
1.0000
 50
90.0000
  0
INSERT
  8
31
  2
RECT
 10
103.7400
 20
93.9828
 30
0.0000
 41
1.5000
 42
0.9000
 43
1.0000
 50
90.0000
  0
INSERT
  8
31
  2
RECT
 10
100.4400
 20
93.9828
 30
0.0000
 41
1.5000
 42
0.9000
 43
1.0000
 50
90.0000
  0
INSERT
  8
31
  2
RECT
 10
109.0900
 20
89.0828
 30
0.0000
 41
1.5000
 42
0.9000
 43
1.0000
 50
90.0000
  0
INSERT
  8
31
  2
RECT
 10
112.3900
 20
89.0828
 30
0.0000
 41
1.5000
 42
0.9000
 43
1.0000
 50
90.0000
  0
INSERT
  8
31
  2
RECT
 10
112.3900
 20
93.9828
 30
0.0000
 41
1.5000
 42
0.9000
 43
1.0000
 50
90.0000
  0
INSERT
  8
31
  2
RECT
 10
109.0900
 20
93.9828
 30
0.0000
 41
1.5000
 42
0.9000
 43
1.0000
 50
90.0000
  0
INSERT
  8
31
  2
RECT
 10
22.6000
 20
79.4667
 30
0.0000
 41
1.5000
 42
0.9000
 43
1.0000
 50
90.0000
  0
INSERT
  8
31
  2
RECT
 10
25.9000
 20
79.4667
 30
0.0000
 41
1.5000
 42
0.9000
 43
1.0000
 50
90.0000
  0
INSERT
  8
31
  2
RECT
 10
25.9000
 20
84.3667
 30
0.0000
 41
1.5000
 42
0.9000
 43
1.0000
 50
90.0000
  0
INSERT
  8
31
  2
RECT
 10
22.6000
 20
84.3667
 30
0.0000
 41
1.5000
 42
0.9000
 43
1.0000
 50
90.0000
  0
INSERT
  8
31
  2
RECT
 10
31.2500
 20
79.4667
 30
0.0000
 41
1.5000
 42
0.9000
 43
1.0000
 50
90.0000
  0
INSERT
  8
31
  2
RECT
 10
34.5500
 20
79.4667
 30
0.0000
 41
1.5000
 42
0.9000
 43
1.0000
 50
90.0000
  0
INSERT
  8
31
  2
RECT
 10
34.5500
 20
84.3667
 30
0.0000
 41
1.5000
 42
0.9000
 43
1.0000
 50
90.0000
  0
INSERT
  8
31
  2
RECT
 10
31.2500
 20
84.3667
 30
0.0000
 41
1.5000
 42
0.9000
 43
1.0000
 50
90.0000
  0
INSERT
  8
31
  2
RECT
 10
39.9000
 20
79.4667
 30
0.0000
 41
1.5000
 42
0.9000
 43
1.0000
 50
90.0000
  0
INSERT
  8
31
  2
RECT
 10
43.2000
 20
79.4667
 30
0.0000
 41
1.5000
 42
0.9000
 43
1.0000
 50
90.0000
  0
INSERT
  8
31
  2
RECT
 10
43.2000
 20
84.3667
 30
0.0000
 41
1.5000
 42
0.9000
 43
1.0000
 50
90.0000
  0
INSERT
  8
31
  2
RECT
 10
39.9000
 20
84.3667
 30
0.0000
 41
1.5000
 42
0.9000
 43
1.0000
 50
90.0000
  0
INSERT
  8
31
  2
RECT
 10
48.5500
 20
79.4667
 30
0.0000
 41
1.5000
 42
0.9000
 43
1.0000
 50
90.0000
  0
INSERT
  8
31
  2
RECT
 10
51.8500
 20
79.4667
 30
0.0000
 41
1.5000
 42
0.9000
 43
1.0000
 50
90.0000
  0
INSERT
  8
31
  2
RECT
 10
51.8500
 20
84.3667
 30
0.0000
 41
1.5000
 42
0.9000
 43
1.0000
 50
90.0000
  0
INSERT
  8
31
  2
RECT
 10
48.5500
 20
84.3667
 30
0.0000
 41
1.5000
 42
0.9000
 43
1.0000
 50
90.0000
  0
INSERT
  8
31
  2
RECT
 10
57.2000
 20
79.4667
 30
0.0000
 41
1.5000
 42
0.9000
 43
1.0000
 50
90.0000
  0
INSERT
  8
31
  2
RECT
 10
60.5000
 20
79.4667
 30
0.0000
 41
1.5000
 42
0.9000
 43
1.0000
 50
90.0000
  0
INSERT
  8
31
  2
RECT
 10
60.5000
 20
84.3667
 30
0.0000
 41
1.5000
 42
0.9000
 43
1.0000
 50
90.0000
  0
INSERT
  8
31
  2
RECT
 10
57.2000
 20
84.3667
 30
0.0000
 41
1.5000
 42
0.9000
 43
1.0000
 50
90.0000
  0
INSERT
  8
31
  2
RECT
 10
65.8500
 20
79.4667
 30
0.0000
 41
1.5000
 42
0.9000
 43
1.0000
 50
90.0000
  0
INSERT
  8
31
  2
RECT
 10
69.1500
 20
79.4667
 30
0.0000
 41
1.5000
 42
0.9000
 43
1.0000
 50
90.0000
  0
INSERT
  8
31
  2
RECT
 10
69.1500
 20
84.3667
 30
0.0000
 41
1.5000
 42
0.9000
 43
1.0000
 50
90.0000
  0
INSERT
  8
31
  2
RECT
 10
65.8500
 20
84.3667
 30
0.0000
 41
1.5000
 42
0.9000
 43
1.0000
 50
90.0000
  0
INSERT
  8
31
  2
RECT
 10
74.5000
 20
79.4667
 30
0.0000
 41
1.5000
 42
0.9000
 43
1.0000
 50
90.0000
  0
INSERT
  8
31
  2
RECT
 10
77.8000
 20
79.4667
 30
0.0000
 41
1.5000
 42
0.9000
 43
1.0000
 50
90.0000
  0
INSERT
  8
31
  2
RECT
 10
77.8000
 20
84.3667
 30
0.0000
 41
1.5000
 42
0.9000
 43
1.0000
 50
90.0000
  0
INSERT
  8
31
  2
RECT
 10
74.5000
 20
84.3667
 30
0.0000
 41
1.5000
 42
0.9000
 43
1.0000
 50
90.0000
  0
INSERT
  8
31
  2
RECT
 10
83.1500
 20
79.4667
 30
0.0000
 41
1.5000
 42
0.9000
 43
1.0000
 50
90.0000
  0
INSERT
  8
31
  2
RECT
 10
86.4500
 20
79.4667
 30
0.0000
 41
1.5000
 42
0.9000
 43
1.0000
 50
90.0000
  0
INSERT
  8
31
  2
RECT
 10
86.4500
 20
84.3667
 30
0.0000
 41
1.5000
 42
0.9000
 43
1.0000
 50
90.0000
  0
INSERT
  8
31
  2
RECT
 10
83.1500
 20
84.3667
 30
0.0000
 41
1.5000
 42
0.9000
 43
1.0000
 50
90.0000
  0
INSERT
  8
31
  2
RECT
 10
91.8000
 20
79.4667
 30
0.0000
 41
1.5000
 42
0.9000
 43
1.0000
 50
90.0000
  0
INSERT
  8
31
  2
RECT
 10
95.1000
 20
79.4667
 30
0.0000
 41
1.5000
 42
0.9000
 43
1.0000
 50
90.0000
  0
INSERT
  8
31
  2
RECT
 10
95.1000
 20
84.3667
 30
0.0000
 41
1.5000
 42
0.9000
 43
1.0000
 50
90.0000
  0
INSERT
  8
31
  2
RECT
 10
91.8000
 20
84.3667
 30
0.0000
 41
1.5000
 42
0.9000
 43
1.0000
 50
90.0000
  0
INSERT
  8
31
  2
RECT
 10
100.4500
 20
79.4667
 30
0.0000
 41
1.5000
 42
0.9000
 43
1.0000
 50
90.0000
  0
INSERT
  8
31
  2
RECT
 10
103.7500
 20
79.4667
 30
0.0000
 41
1.5000
 42
0.9000
 43
1.0000
 50
90.0000
  0
INSERT
  8
31
  2
RECT
 10
103.7500
 20
84.3667
 30
0.0000
 41
1.5000
 42
0.9000
 43
1.0000
 50
90.0000
  0
INSERT
  8
31
  2
RECT
 10
100.4500
 20
84.3667
 30
0.0000
 41
1.5000
 42
0.9000
 43
1.0000
 50
90.0000
  0
INSERT
  8
31
  2
RECT
 10
109.1000
 20
79.4667
 30
0.0000
 41
1.5000
 42
0.9000
 43
1.0000
 50
90.0000
  0
INSERT
  8
31
  2
RECT
 10
112.4000
 20
79.4667
 30
0.0000
 41
1.5000
 42
0.9000
 43
1.0000
 50
90.0000
  0
INSERT
  8
31
  2
RECT
 10
112.4000
 20
84.3667
 30
0.0000
 41
1.5000
 42
0.9000
 43
1.0000
 50
90.0000
  0
INSERT
  8
31
  2
RECT
 10
109.1000
 20
84.3667
 30
0.0000
 41
1.5000
 42
0.9000
 43
1.0000
 50
90.0000
  0
INSERT
  8
31
  2
RECT
 10
22.6000
 20
69.8606
 30
0.0000
 41
1.5000
 42
0.9000
 43
1.0000
 50
90.0000
  0
INSERT
  8
31
  2
RECT
 10
25.9000
 20
69.8606
 30
0.0000
 41
1.5000
 42
0.9000
 43
1.0000
 50
90.0000
  0
INSERT
  8
31
  2
RECT
 10
25.9000
 20
74.7606
 30
0.0000
 41
1.5000
 42
0.9000
 43
1.0000
 50
90.0000
  0
INSERT
  8
31
  2
RECT
 10
22.6000
 20
74.7606
 30
0.0000
 41
1.5000
 42
0.9000
 43
1.0000
 50
90.0000
  0
INSERT
  8
31
  2
RECT
 10
31.2500
 20
69.8606
 30
0.0000
 41
1.5000
 42
0.9000
 43
1.0000
 50
90.0000
  0
INSERT
  8
31
  2
RECT
 10
34.5500
 20
69.8606
 30
0.0000
 41
1.5000
 42
0.9000
 43
1.0000
 50
90.0000
  0
INSERT
  8
31
  2
RECT
 10
34.5500
 20
74.7606
 30
0.0000
 41
1.5000
 42
0.9000
 43
1.0000
 50
90.0000
  0
INSERT
  8
31
  2
RECT
 10
31.2500
 20
74.7606
 30
0.0000
 41
1.5000
 42
0.9000
 43
1.0000
 50
90.0000
  0
INSERT
  8
31
  2
RECT
 10
39.9000
 20
69.8606
 30
0.0000
 41
1.5000
 42
0.9000
 43
1.0000
 50
90.0000
  0
INSERT
  8
31
  2
RECT
 10
43.2000
 20
69.8606
 30
0.0000
 41
1.5000
 42
0.9000
 43
1.0000
 50
90.0000
  0
INSERT
  8
31
  2
RECT
 10
43.2000
 20
74.7606
 30
0.0000
 41
1.5000
 42
0.9000
 43
1.0000
 50
90.0000
  0
INSERT
  8
31
  2
RECT
 10
39.9000
 20
74.7606
 30
0.0000
 41
1.5000
 42
0.9000
 43
1.0000
 50
90.0000
  0
INSERT
  8
31
  2
RECT
 10
48.5500
 20
69.8606
 30
0.0000
 41
1.5000
 42
0.9000
 43
1.0000
 50
90.0000
  0
INSERT
  8
31
  2
RECT
 10
51.8500
 20
69.8606
 30
0.0000
 41
1.5000
 42
0.9000
 43
1.0000
 50
90.0000
  0
INSERT
  8
31
  2
RECT
 10
51.8500
 20
74.7606
 30
0.0000
 41
1.5000
 42
0.9000
 43
1.0000
 50
90.0000
  0
INSERT
  8
31
  2
RECT
 10
48.5500
 20
74.7606
 30
0.0000
 41
1.5000
 42
0.9000
 43
1.0000
 50
90.0000
  0
INSERT
  8
31
  2
RECT
 10
57.2000
 20
69.8606
 30
0.0000
 41
1.5000
 42
0.9000
 43
1.0000
 50
90.0000
  0
INSERT
  8
31
  2
RECT
 10
60.5000
 20
69.8606
 30
0.0000
 41
1.5000
 42
0.9000
 43
1.0000
 50
90.0000
  0
INSERT
  8
31
  2
RECT
 10
60.5000
 20
74.7606
 30
0.0000
 41
1.5000
 42
0.9000
 43
1.0000
 50
90.0000
  0
INSERT
  8
31
  2
RECT
 10
57.2000
 20
74.7606
 30
0.0000
 41
1.5000
 42
0.9000
 43
1.0000
 50
90.0000
  0
INSERT
  8
31
  2
RECT
 10
65.8500
 20
69.8606
 30
0.0000
 41
1.5000
 42
0.9000
 43
1.0000
 50
90.0000
  0
INSERT
  8
31
  2
RECT
 10
69.1500
 20
69.8606
 30
0.0000
 41
1.5000
 42
0.9000
 43
1.0000
 50
90.0000
  0
INSERT
  8
31
  2
RECT
 10
69.1500
 20
74.7606
 30
0.0000
 41
1.5000
 42
0.9000
 43
1.0000
 50
90.0000
  0
INSERT
  8
31
  2
RECT
 10
65.8500
 20
74.7606
 30
0.0000
 41
1.5000
 42
0.9000
 43
1.0000
 50
90.0000
  0
INSERT
  8
31
  2
RECT
 10
74.5000
 20
69.8606
 30
0.0000
 41
1.5000
 42
0.9000
 43
1.0000
 50
90.0000
  0
INSERT
  8
31
  2
RECT
 10
77.8000
 20
69.8606
 30
0.0000
 41
1.5000
 42
0.9000
 43
1.0000
 50
90.0000
  0
INSERT
  8
31
  2
RECT
 10
77.8000
 20
74.7606
 30
0.0000
 41
1.5000
 42
0.9000
 43
1.0000
 50
90.0000
  0
INSERT
  8
31
  2
RECT
 10
74.5000
 20
74.7606
 30
0.0000
 41
1.5000
 42
0.9000
 43
1.0000
 50
90.0000
  0
INSERT
  8
31
  2
RECT
 10
83.1500
 20
69.8606
 30
0.0000
 41
1.5000
 42
0.9000
 43
1.0000
 50
90.0000
  0
INSERT
  8
31
  2
RECT
 10
86.4500
 20
69.8606
 30
0.0000
 41
1.5000
 42
0.9000
 43
1.0000
 50
90.0000
  0
INSERT
  8
31
  2
RECT
 10
86.4500
 20
74.7606
 30
0.0000
 41
1.5000
 42
0.9000
 43
1.0000
 50
90.0000
  0
INSERT
  8
31
  2
RECT
 10
83.1500
 20
74.7606
 30
0.0000
 41
1.5000
 42
0.9000
 43
1.0000
 50
90.0000
  0
INSERT
  8
31
  2
RECT
 10
91.8000
 20
69.8606
 30
0.0000
 41
1.5000
 42
0.9000
 43
1.0000
 50
90.0000
  0
INSERT
  8
31
  2
RECT
 10
95.1000
 20
69.8606
 30
0.0000
 41
1.5000
 42
0.9000
 43
1.0000
 50
90.0000
  0
INSERT
  8
31
  2
RECT
 10
95.1000
 20
74.7606
 30
0.0000
 41
1.5000
 42
0.9000
 43
1.0000
 50
90.0000
  0
INSERT
  8
31
  2
RECT
 10
91.8000
 20
74.7606
 30
0.0000
 41
1.5000
 42
0.9000
 43
1.0000
 50
90.0000
  0
INSERT
  8
31
  2
RECT
 10
100.4500
 20
69.8606
 30
0.0000
 41
1.5000
 42
0.9000
 43
1.0000
 50
90.0000
  0
INSERT
  8
31
  2
RECT
 10
103.7500
 20
69.8606
 30
0.0000
 41
1.5000
 42
0.9000
 43
1.0000
 50
90.0000
  0
INSERT
  8
31
  2
RECT
 10
103.7500
 20
74.7606
 30
0.0000
 41
1.5000
 42
0.9000
 43
1.0000
 50
90.0000
  0
INSERT
  8
31
  2
RECT
 10
100.4500
 20
74.7606
 30
0.0000
 41
1.5000
 42
0.9000
 43
1.0000
 50
90.0000
  0
INSERT
  8
31
  2
RECT
 10
109.1000
 20
69.8606
 30
0.0000
 41
1.5000
 42
0.9000
 43
1.0000
 50
90.0000
  0
INSERT
  8
31
  2
RECT
 10
112.4000
 20
69.8606
 30
0.0000
 41
1.5000
 42
0.9000
 43
1.0000
 50
90.0000
  0
INSERT
  8
31
  2
RECT
 10
112.4000
 20
74.7606
 30
0.0000
 41
1.5000
 42
0.9000
 43
1.0000
 50
90.0000
  0
INSERT
  8
31
  2
RECT
 10
109.1000
 20
74.7606
 30
0.0000
 41
1.5000
 42
0.9000
 43
1.0000
 50
90.0000
  0
INSERT
  8
31
  2
RECT
 10
22.6100
 20
60.2445
 30
0.0000
 41
1.5000
 42
0.9000
 43
1.0000
 50
90.0000
  0
INSERT
  8
31
  2
RECT
 10
25.9100
 20
60.2445
 30
0.0000
 41
1.5000
 42
0.9000
 43
1.0000
 50
90.0000
  0
INSERT
  8
31
  2
RECT
 10
25.9100
 20
65.1445
 30
0.0000
 41
1.5000
 42
0.9000
 43
1.0000
 50
90.0000
  0
INSERT
  8
31
  2
RECT
 10
22.6100
 20
65.1445
 30
0.0000
 41
1.5000
 42
0.9000
 43
1.0000
 50
90.0000
  0
INSERT
  8
31
  2
RECT
 10
31.2600
 20
60.2445
 30
0.0000
 41
1.5000
 42
0.9000
 43
1.0000
 50
90.0000
  0
INSERT
  8
31
  2
RECT
 10
34.5600
 20
60.2445
 30
0.0000
 41
1.5000
 42
0.9000
 43
1.0000
 50
90.0000
  0
INSERT
  8
31
  2
RECT
 10
34.5600
 20
65.1445
 30
0.0000
 41
1.5000
 42
0.9000
 43
1.0000
 50
90.0000
  0
INSERT
  8
31
  2
RECT
 10
31.2600
 20
65.1445
 30
0.0000
 41
1.5000
 42
0.9000
 43
1.0000
 50
90.0000
  0
INSERT
  8
31
  2
RECT
 10
39.9100
 20
60.2445
 30
0.0000
 41
1.5000
 42
0.9000
 43
1.0000
 50
90.0000
  0
INSERT
  8
31
  2
RECT
 10
43.2100
 20
60.2445
 30
0.0000
 41
1.5000
 42
0.9000
 43
1.0000
 50
90.0000
  0
INSERT
  8
31
  2
RECT
 10
43.2100
 20
65.1445
 30
0.0000
 41
1.5000
 42
0.9000
 43
1.0000
 50
90.0000
  0
INSERT
  8
31
  2
RECT
 10
39.9100
 20
65.1445
 30
0.0000
 41
1.5000
 42
0.9000
 43
1.0000
 50
90.0000
  0
INSERT
  8
31
  2
RECT
 10
48.5600
 20
60.2445
 30
0.0000
 41
1.5000
 42
0.9000
 43
1.0000
 50
90.0000
  0
INSERT
  8
31
  2
RECT
 10
51.8600
 20
60.2445
 30
0.0000
 41
1.5000
 42
0.9000
 43
1.0000
 50
90.0000
  0
INSERT
  8
31
  2
RECT
 10
51.8600
 20
65.1445
 30
0.0000
 41
1.5000
 42
0.9000
 43
1.0000
 50
90.0000
  0
INSERT
  8
31
  2
RECT
 10
48.5600
 20
65.1445
 30
0.0000
 41
1.5000
 42
0.9000
 43
1.0000
 50
90.0000
  0
INSERT
  8
31
  2
RECT
 10
57.2100
 20
60.2445
 30
0.0000
 41
1.5000
 42
0.9000
 43
1.0000
 50
90.0000
  0
INSERT
  8
31
  2
RECT
 10
60.5100
 20
60.2445
 30
0.0000
 41
1.5000
 42
0.9000
 43
1.0000
 50
90.0000
  0
INSERT
  8
31
  2
RECT
 10
60.5100
 20
65.1445
 30
0.0000
 41
1.5000
 42
0.9000
 43
1.0000
 50
90.0000
  0
INSERT
  8
31
  2
RECT
 10
57.2100
 20
65.1445
 30
0.0000
 41
1.5000
 42
0.9000
 43
1.0000
 50
90.0000
  0
INSERT
  8
31
  2
RECT
 10
65.8600
 20
60.2445
 30
0.0000
 41
1.5000
 42
0.9000
 43
1.0000
 50
90.0000
  0
INSERT
  8
31
  2
RECT
 10
69.1600
 20
60.2445
 30
0.0000
 41
1.5000
 42
0.9000
 43
1.0000
 50
90.0000
  0
INSERT
  8
31
  2
RECT
 10
69.1600
 20
65.1445
 30
0.0000
 41
1.5000
 42
0.9000
 43
1.0000
 50
90.0000
  0
INSERT
  8
31
  2
RECT
 10
65.8600
 20
65.1445
 30
0.0000
 41
1.5000
 42
0.9000
 43
1.0000
 50
90.0000
  0
INSERT
  8
31
  2
RECT
 10
74.5100
 20
60.2445
 30
0.0000
 41
1.5000
 42
0.9000
 43
1.0000
 50
90.0000
  0
INSERT
  8
31
  2
RECT
 10
77.8100
 20
60.2445
 30
0.0000
 41
1.5000
 42
0.9000
 43
1.0000
 50
90.0000
  0
INSERT
  8
31
  2
RECT
 10
77.8100
 20
65.1445
 30
0.0000
 41
1.5000
 42
0.9000
 43
1.0000
 50
90.0000
  0
INSERT
  8
31
  2
RECT
 10
74.5100
 20
65.1445
 30
0.0000
 41
1.5000
 42
0.9000
 43
1.0000
 50
90.0000
  0
INSERT
  8
31
  2
RECT
 10
83.1600
 20
60.2445
 30
0.0000
 41
1.5000
 42
0.9000
 43
1.0000
 50
90.0000
  0
INSERT
  8
31
  2
RECT
 10
86.4600
 20
60.2445
 30
0.0000
 41
1.5000
 42
0.9000
 43
1.0000
 50
90.0000
  0
INSERT
  8
31
  2
RECT
 10
86.4600
 20
65.1445
 30
0.0000
 41
1.5000
 42
0.9000
 43
1.0000
 50
90.0000
  0
INSERT
  8
31
  2
RECT
 10
83.1600
 20
65.1445
 30
0.0000
 41
1.5000
 42
0.9000
 43
1.0000
 50
90.0000
  0
INSERT
  8
31
  2
RECT
 10
91.8100
 20
60.2445
 30
0.0000
 41
1.5000
 42
0.9000
 43
1.0000
 50
90.0000
  0
INSERT
  8
31
  2
RECT
 10
95.1100
 20
60.2445
 30
0.0000
 41
1.5000
 42
0.9000
 43
1.0000
 50
90.0000
  0
INSERT
  8
31
  2
RECT
 10
95.1100
 20
65.1445
 30
0.0000
 41
1.5000
 42
0.9000
 43
1.0000
 50
90.0000
  0
INSERT
  8
31
  2
RECT
 10
91.8100
 20
65.1445
 30
0.0000
 41
1.5000
 42
0.9000
 43
1.0000
 50
90.0000
  0
INSERT
  8
31
  2
RECT
 10
100.4600
 20
60.2445
 30
0.0000
 41
1.5000
 42
0.9000
 43
1.0000
 50
90.0000
  0
INSERT
  8
31
  2
RECT
 10
103.7600
 20
60.2445
 30
0.0000
 41
1.5000
 42
0.9000
 43
1.0000
 50
90.0000
  0
INSERT
  8
31
  2
RECT
 10
103.7600
 20
65.1445
 30
0.0000
 41
1.5000
 42
0.9000
 43
1.0000
 50
90.0000
  0
INSERT
  8
31
  2
RECT
 10
100.4600
 20
65.1445
 30
0.0000
 41
1.5000
 42
0.9000
 43
1.0000
 50
90.0000
  0
INSERT
  8
31
  2
RECT
 10
109.1100
 20
60.2445
 30
0.0000
 41
1.5000
 42
0.9000
 43
1.0000
 50
90.0000
  0
INSERT
  8
31
  2
RECT
 10
112.4100
 20
60.2445
 30
0.0000
 41
1.5000
 42
0.9000
 43
1.0000
 50
90.0000
  0
INSERT
  8
31
  2
RECT
 10
112.4100
 20
65.1445
 30
0.0000
 41
1.5000
 42
0.9000
 43
1.0000
 50
90.0000
  0
INSERT
  8
31
  2
RECT
 10
109.1100
 20
65.1445
 30
0.0000
 41
1.5000
 42
0.9000
 43
1.0000
 50
90.0000
  0
INSERT
  8
31
  2
RECT
 10
22.5900
 20
50.6383
 30
0.0000
 41
1.5000
 42
0.9000
 43
1.0000
 50
90.0000
  0
INSERT
  8
31
  2
RECT
 10
25.8900
 20
50.6383
 30
0.0000
 41
1.5000
 42
0.9000
 43
1.0000
 50
90.0000
  0
INSERT
  8
31
  2
RECT
 10
25.8900
 20
55.5383
 30
0.0000
 41
1.5000
 42
0.9000
 43
1.0000
 50
90.0000
  0
INSERT
  8
31
  2
RECT
 10
22.5900
 20
55.5383
 30
0.0000
 41
1.5000
 42
0.9000
 43
1.0000
 50
90.0000
  0
INSERT
  8
31
  2
RECT
 10
31.2400
 20
50.6383
 30
0.0000
 41
1.5000
 42
0.9000
 43
1.0000
 50
90.0000
  0
INSERT
  8
31
  2
RECT
 10
34.5400
 20
50.6383
 30
0.0000
 41
1.5000
 42
0.9000
 43
1.0000
 50
90.0000
  0
INSERT
  8
31
  2
RECT
 10
34.5400
 20
55.5383
 30
0.0000
 41
1.5000
 42
0.9000
 43
1.0000
 50
90.0000
  0
INSERT
  8
31
  2
RECT
 10
31.2400
 20
55.5383
 30
0.0000
 41
1.5000
 42
0.9000
 43
1.0000
 50
90.0000
  0
INSERT
  8
31
  2
RECT
 10
39.8900
 20
50.6383
 30
0.0000
 41
1.5000
 42
0.9000
 43
1.0000
 50
90.0000
  0
INSERT
  8
31
  2
RECT
 10
43.1900
 20
50.6383
 30
0.0000
 41
1.5000
 42
0.9000
 43
1.0000
 50
90.0000
  0
INSERT
  8
31
  2
RECT
 10
43.1900
 20
55.5383
 30
0.0000
 41
1.5000
 42
0.9000
 43
1.0000
 50
90.0000
  0
INSERT
  8
31
  2
RECT
 10
39.8900
 20
55.5383
 30
0.0000
 41
1.5000
 42
0.9000
 43
1.0000
 50
90.0000
  0
INSERT
  8
31
  2
RECT
 10
48.5400
 20
50.6383
 30
0.0000
 41
1.5000
 42
0.9000
 43
1.0000
 50
90.0000
  0
INSERT
  8
31
  2
RECT
 10
51.8400
 20
50.6383
 30
0.0000
 41
1.5000
 42
0.9000
 43
1.0000
 50
90.0000
  0
INSERT
  8
31
  2
RECT
 10
51.8400
 20
55.5383
 30
0.0000
 41
1.5000
 42
0.9000
 43
1.0000
 50
90.0000
  0
INSERT
  8
31
  2
RECT
 10
48.5400
 20
55.5383
 30
0.0000
 41
1.5000
 42
0.9000
 43
1.0000
 50
90.0000
  0
INSERT
  8
31
  2
RECT
 10
57.1900
 20
50.6383
 30
0.0000
 41
1.5000
 42
0.9000
 43
1.0000
 50
90.0000
  0
INSERT
  8
31
  2
RECT
 10
60.4900
 20
50.6383
 30
0.0000
 41
1.5000
 42
0.9000
 43
1.0000
 50
90.0000
  0
INSERT
  8
31
  2
RECT
 10
60.4900
 20
55.5383
 30
0.0000
 41
1.5000
 42
0.9000
 43
1.0000
 50
90.0000
  0
INSERT
  8
31
  2
RECT
 10
57.1900
 20
55.5383
 30
0.0000
 41
1.5000
 42
0.9000
 43
1.0000
 50
90.0000
  0
INSERT
  8
31
  2
RECT
 10
65.8400
 20
50.6383
 30
0.0000
 41
1.5000
 42
0.9000
 43
1.0000
 50
90.0000
  0
INSERT
  8
31
  2
RECT
 10
69.1400
 20
50.6383
 30
0.0000
 41
1.5000
 42
0.9000
 43
1.0000
 50
90.0000
  0
INSERT
  8
31
  2
RECT
 10
69.1400
 20
55.5383
 30
0.0000
 41
1.5000
 42
0.9000
 43
1.0000
 50
90.0000
  0
INSERT
  8
31
  2
RECT
 10
65.8400
 20
55.5383
 30
0.0000
 41
1.5000
 42
0.9000
 43
1.0000
 50
90.0000
  0
INSERT
  8
31
  2
RECT
 10
74.4900
 20
50.6383
 30
0.0000
 41
1.5000
 42
0.9000
 43
1.0000
 50
90.0000
  0
INSERT
  8
31
  2
RECT
 10
77.7900
 20
50.6383
 30
0.0000
 41
1.5000
 42
0.9000
 43
1.0000
 50
90.0000
  0
INSERT
  8
31
  2
RECT
 10
77.7900
 20
55.5383
 30
0.0000
 41
1.5000
 42
0.9000
 43
1.0000
 50
90.0000
  0
INSERT
  8
31
  2
RECT
 10
74.4900
 20
55.5383
 30
0.0000
 41
1.5000
 42
0.9000
 43
1.0000
 50
90.0000
  0
INSERT
  8
31
  2
RECT
 10
83.1400
 20
50.6383
 30
0.0000
 41
1.5000
 42
0.9000
 43
1.0000
 50
90.0000
  0
INSERT
  8
31
  2
RECT
 10
86.4400
 20
50.6383
 30
0.0000
 41
1.5000
 42
0.9000
 43
1.0000
 50
90.0000
  0
INSERT
  8
31
  2
RECT
 10
86.4400
 20
55.5383
 30
0.0000
 41
1.5000
 42
0.9000
 43
1.0000
 50
90.0000
  0
INSERT
  8
31
  2
RECT
 10
83.1400
 20
55.5383
 30
0.0000
 41
1.5000
 42
0.9000
 43
1.0000
 50
90.0000
  0
INSERT
  8
31
  2
RECT
 10
91.7900
 20
50.6383
 30
0.0000
 41
1.5000
 42
0.9000
 43
1.0000
 50
90.0000
  0
INSERT
  8
31
  2
RECT
 10
95.0900
 20
50.6383
 30
0.0000
 41
1.5000
 42
0.9000
 43
1.0000
 50
90.0000
  0
INSERT
  8
31
  2
RECT
 10
95.0900
 20
55.5383
 30
0.0000
 41
1.5000
 42
0.9000
 43
1.0000
 50
90.0000
  0
INSERT
  8
31
  2
RECT
 10
91.7900
 20
55.5383
 30
0.0000
 41
1.5000
 42
0.9000
 43
1.0000
 50
90.0000
  0
INSERT
  8
31
  2
RECT
 10
100.4400
 20
50.6383
 30
0.0000
 41
1.5000
 42
0.9000
 43
1.0000
 50
90.0000
  0
INSERT
  8
31
  2
RECT
 10
103.7400
 20
50.6383
 30
0.0000
 41
1.5000
 42
0.9000
 43
1.0000
 50
90.0000
  0
INSERT
  8
31
  2
RECT
 10
103.7400
 20
55.5383
 30
0.0000
 41
1.5000
 42
0.9000
 43
1.0000
 50
90.0000
  0
INSERT
  8
31
  2
RECT
 10
100.4400
 20
55.5383
 30
0.0000
 41
1.5000
 42
0.9000
 43
1.0000
 50
90.0000
  0
INSERT
  8
31
  2
RECT
 10
109.0900
 20
50.6383
 30
0.0000
 41
1.5000
 42
0.9000
 43
1.0000
 50
90.0000
  0
INSERT
  8
31
  2
RECT
 10
112.3900
 20
50.6383
 30
0.0000
 41
1.5000
 42
0.9000
 43
1.0000
 50
90.0000
  0
INSERT
  8
31
  2
RECT
 10
112.3900
 20
55.5383
 30
0.0000
 41
1.5000
 42
0.9000
 43
1.0000
 50
90.0000
  0
INSERT
  8
31
  2
RECT
 10
109.0900
 20
55.5383
 30
0.0000
 41
1.5000
 42
0.9000
 43
1.0000
 50
90.0000
  0
INSERT
  8
31
  2
RECT
 10
22.6000
 20
41.0222
 30
0.0000
 41
1.5000
 42
0.9000
 43
1.0000
 50
90.0000
  0
INSERT
  8
31
  2
RECT
 10
25.9000
 20
41.0222
 30
0.0000
 41
1.5000
 42
0.9000
 43
1.0000
 50
90.0000
  0
INSERT
  8
31
  2
RECT
 10
25.9000
 20
45.9222
 30
0.0000
 41
1.5000
 42
0.9000
 43
1.0000
 50
90.0000
  0
INSERT
  8
31
  2
RECT
 10
22.6000
 20
45.9222
 30
0.0000
 41
1.5000
 42
0.9000
 43
1.0000
 50
90.0000
  0
INSERT
  8
31
  2
RECT
 10
31.2500
 20
41.0222
 30
0.0000
 41
1.5000
 42
0.9000
 43
1.0000
 50
90.0000
  0
INSERT
  8
31
  2
RECT
 10
34.5500
 20
41.0222
 30
0.0000
 41
1.5000
 42
0.9000
 43
1.0000
 50
90.0000
  0
INSERT
  8
31
  2
RECT
 10
34.5500
 20
45.9222
 30
0.0000
 41
1.5000
 42
0.9000
 43
1.0000
 50
90.0000
  0
INSERT
  8
31
  2
RECT
 10
31.2500
 20
45.9222
 30
0.0000
 41
1.5000
 42
0.9000
 43
1.0000
 50
90.0000
  0
INSERT
  8
31
  2
RECT
 10
39.9000
 20
41.0222
 30
0.0000
 41
1.5000
 42
0.9000
 43
1.0000
 50
90.0000
  0
INSERT
  8
31
  2
RECT
 10
43.2000
 20
41.0222
 30
0.0000
 41
1.5000
 42
0.9000
 43
1.0000
 50
90.0000
  0
INSERT
  8
31
  2
RECT
 10
43.2000
 20
45.9222
 30
0.0000
 41
1.5000
 42
0.9000
 43
1.0000
 50
90.0000
  0
INSERT
  8
31
  2
RECT
 10
39.9000
 20
45.9222
 30
0.0000
 41
1.5000
 42
0.9000
 43
1.0000
 50
90.0000
  0
INSERT
  8
31
  2
RECT
 10
48.5500
 20
41.0222
 30
0.0000
 41
1.5000
 42
0.9000
 43
1.0000
 50
90.0000
  0
INSERT
  8
31
  2
RECT
 10
51.8500
 20
41.0222
 30
0.0000
 41
1.5000
 42
0.9000
 43
1.0000
 50
90.0000
  0
INSERT
  8
31
  2
RECT
 10
51.8500
 20
45.9222
 30
0.0000
 41
1.5000
 42
0.9000
 43
1.0000
 50
90.0000
  0
INSERT
  8
31
  2
RECT
 10
48.5500
 20
45.9222
 30
0.0000
 41
1.5000
 42
0.9000
 43
1.0000
 50
90.0000
  0
INSERT
  8
31
  2
RECT
 10
57.2000
 20
41.0222
 30
0.0000
 41
1.5000
 42
0.9000
 43
1.0000
 50
90.0000
  0
INSERT
  8
31
  2
RECT
 10
60.5000
 20
41.0222
 30
0.0000
 41
1.5000
 42
0.9000
 43
1.0000
 50
90.0000
  0
INSERT
  8
31
  2
RECT
 10
60.5000
 20
45.9222
 30
0.0000
 41
1.5000
 42
0.9000
 43
1.0000
 50
90.0000
  0
INSERT
  8
31
  2
RECT
 10
57.2000
 20
45.9222
 30
0.0000
 41
1.5000
 42
0.9000
 43
1.0000
 50
90.0000
  0
INSERT
  8
31
  2
RECT
 10
65.8500
 20
41.0222
 30
0.0000
 41
1.5000
 42
0.9000
 43
1.0000
 50
90.0000
  0
INSERT
  8
31
  2
RECT
 10
69.1500
 20
41.0222
 30
0.0000
 41
1.5000
 42
0.9000
 43
1.0000
 50
90.0000
  0
INSERT
  8
31
  2
RECT
 10
69.1500
 20
45.9222
 30
0.0000
 41
1.5000
 42
0.9000
 43
1.0000
 50
90.0000
  0
INSERT
  8
31
  2
RECT
 10
65.8500
 20
45.9222
 30
0.0000
 41
1.5000
 42
0.9000
 43
1.0000
 50
90.0000
  0
INSERT
  8
31
  2
RECT
 10
74.5000
 20
41.0222
 30
0.0000
 41
1.5000
 42
0.9000
 43
1.0000
 50
90.0000
  0
INSERT
  8
31
  2
RECT
 10
77.8000
 20
41.0222
 30
0.0000
 41
1.5000
 42
0.9000
 43
1.0000
 50
90.0000
  0
INSERT
  8
31
  2
RECT
 10
77.8000
 20
45.9222
 30
0.0000
 41
1.5000
 42
0.9000
 43
1.0000
 50
90.0000
  0
INSERT
  8
31
  2
RECT
 10
74.5000
 20
45.9222
 30
0.0000
 41
1.5000
 42
0.9000
 43
1.0000
 50
90.0000
  0
INSERT
  8
31
  2
RECT
 10
83.1500
 20
41.0222
 30
0.0000
 41
1.5000
 42
0.9000
 43
1.0000
 50
90.0000
  0
INSERT
  8
31
  2
RECT
 10
86.4500
 20
41.0222
 30
0.0000
 41
1.5000
 42
0.9000
 43
1.0000
 50
90.0000
  0
INSERT
  8
31
  2
RECT
 10
86.4500
 20
45.9222
 30
0.0000
 41
1.5000
 42
0.9000
 43
1.0000
 50
90.0000
  0
INSERT
  8
31
  2
RECT
 10
83.1500
 20
45.9222
 30
0.0000
 41
1.5000
 42
0.9000
 43
1.0000
 50
90.0000
  0
INSERT
  8
31
  2
RECT
 10
91.8000
 20
41.0222
 30
0.0000
 41
1.5000
 42
0.9000
 43
1.0000
 50
90.0000
  0
INSERT
  8
31
  2
RECT
 10
95.1000
 20
41.0222
 30
0.0000
 41
1.5000
 42
0.9000
 43
1.0000
 50
90.0000
  0
INSERT
  8
31
  2
RECT
 10
95.1000
 20
45.9222
 30
0.0000
 41
1.5000
 42
0.9000
 43
1.0000
 50
90.0000
  0
INSERT
  8
31
  2
RECT
 10
91.8000
 20
45.9222
 30
0.0000
 41
1.5000
 42
0.9000
 43
1.0000
 50
90.0000
  0
INSERT
  8
31
  2
RECT
 10
100.4500
 20
41.0222
 30
0.0000
 41
1.5000
 42
0.9000
 43
1.0000
 50
90.0000
  0
INSERT
  8
31
  2
RECT
 10
103.7500
 20
41.0222
 30
0.0000
 41
1.5000
 42
0.9000
 43
1.0000
 50
90.0000
  0
INSERT
  8
31
  2
RECT
 10
103.7500
 20
45.9222
 30
0.0000
 41
1.5000
 42
0.9000
 43
1.0000
 50
90.0000
  0
INSERT
  8
31
  2
RECT
 10
100.4500
 20
45.9222
 30
0.0000
 41
1.5000
 42
0.9000
 43
1.0000
 50
90.0000
  0
INSERT
  8
31
  2
RECT
 10
109.1000
 20
41.0222
 30
0.0000
 41
1.5000
 42
0.9000
 43
1.0000
 50
90.0000
  0
INSERT
  8
31
  2
RECT
 10
112.4000
 20
41.0222
 30
0.0000
 41
1.5000
 42
0.9000
 43
1.0000
 50
90.0000
  0
INSERT
  8
31
  2
RECT
 10
112.4000
 20
45.9222
 30
0.0000
 41
1.5000
 42
0.9000
 43
1.0000
 50
90.0000
  0
INSERT
  8
31
  2
RECT
 10
109.1000
 20
45.9222
 30
0.0000
 41
1.5000
 42
0.9000
 43
1.0000
 50
90.0000
  0
INSERT
  8
31
  2
RECT
 10
22.6100
 20
31.4150
 30
0.0000
 41
1.5000
 42
0.9000
 43
1.0000
 50
90.0000
  0
INSERT
  8
31
  2
RECT
 10
25.9100
 20
31.4150
 30
0.0000
 41
1.5000
 42
0.9000
 43
1.0000
 50
90.0000
  0
INSERT
  8
31
  2
RECT
 10
25.9100
 20
36.3150
 30
0.0000
 41
1.5000
 42
0.9000
 43
1.0000
 50
90.0000
  0
INSERT
  8
31
  2
RECT
 10
22.6100
 20
36.3150
 30
0.0000
 41
1.5000
 42
0.9000
 43
1.0000
 50
90.0000
  0
INSERT
  8
31
  2
RECT
 10
31.2600
 20
31.4150
 30
0.0000
 41
1.5000
 42
0.9000
 43
1.0000
 50
90.0000
  0
INSERT
  8
31
  2
RECT
 10
34.5600
 20
31.4150
 30
0.0000
 41
1.5000
 42
0.9000
 43
1.0000
 50
90.0000
  0
INSERT
  8
31
  2
RECT
 10
34.5600
 20
36.3150
 30
0.0000
 41
1.5000
 42
0.9000
 43
1.0000
 50
90.0000
  0
INSERT
  8
31
  2
RECT
 10
31.2600
 20
36.3150
 30
0.0000
 41
1.5000
 42
0.9000
 43
1.0000
 50
90.0000
  0
INSERT
  8
31
  2
RECT
 10
39.9100
 20
31.4150
 30
0.0000
 41
1.5000
 42
0.9000
 43
1.0000
 50
90.0000
  0
INSERT
  8
31
  2
RECT
 10
43.2100
 20
31.4150
 30
0.0000
 41
1.5000
 42
0.9000
 43
1.0000
 50
90.0000
  0
INSERT
  8
31
  2
RECT
 10
43.2100
 20
36.3150
 30
0.0000
 41
1.5000
 42
0.9000
 43
1.0000
 50
90.0000
  0
INSERT
  8
31
  2
RECT
 10
39.9100
 20
36.3150
 30
0.0000
 41
1.5000
 42
0.9000
 43
1.0000
 50
90.0000
  0
INSERT
  8
31
  2
RECT
 10
48.5600
 20
31.4150
 30
0.0000
 41
1.5000
 42
0.9000
 43
1.0000
 50
90.0000
  0
INSERT
  8
31
  2
RECT
 10
51.8600
 20
31.4150
 30
0.0000
 41
1.5000
 42
0.9000
 43
1.0000
 50
90.0000
  0
INSERT
  8
31
  2
RECT
 10
51.8600
 20
36.3150
 30
0.0000
 41
1.5000
 42
0.9000
 43
1.0000
 50
90.0000
  0
INSERT
  8
31
  2
RECT
 10
48.5600
 20
36.3150
 30
0.0000
 41
1.5000
 42
0.9000
 43
1.0000
 50
90.0000
  0
INSERT
  8
31
  2
RECT
 10
57.2100
 20
31.4150
 30
0.0000
 41
1.5000
 42
0.9000
 43
1.0000
 50
90.0000
  0
INSERT
  8
31
  2
RECT
 10
60.5100
 20
31.4150
 30
0.0000
 41
1.5000
 42
0.9000
 43
1.0000
 50
90.0000
  0
INSERT
  8
31
  2
RECT
 10
60.5100
 20
36.3150
 30
0.0000
 41
1.5000
 42
0.9000
 43
1.0000
 50
90.0000
  0
INSERT
  8
31
  2
RECT
 10
57.2100
 20
36.3150
 30
0.0000
 41
1.5000
 42
0.9000
 43
1.0000
 50
90.0000
  0
INSERT
  8
31
  2
RECT
 10
65.8600
 20
31.4150
 30
0.0000
 41
1.5000
 42
0.9000
 43
1.0000
 50
90.0000
  0
INSERT
  8
31
  2
RECT
 10
69.1600
 20
31.4150
 30
0.0000
 41
1.5000
 42
0.9000
 43
1.0000
 50
90.0000
  0
INSERT
  8
31
  2
RECT
 10
69.1600
 20
36.3150
 30
0.0000
 41
1.5000
 42
0.9000
 43
1.0000
 50
90.0000
  0
INSERT
  8
31
  2
RECT
 10
65.8600
 20
36.3150
 30
0.0000
 41
1.5000
 42
0.9000
 43
1.0000
 50
90.0000
  0
INSERT
  8
31
  2
RECT
 10
74.5100
 20
31.4150
 30
0.0000
 41
1.5000
 42
0.9000
 43
1.0000
 50
90.0000
  0
INSERT
  8
31
  2
RECT
 10
77.8100
 20
31.4150
 30
0.0000
 41
1.5000
 42
0.9000
 43
1.0000
 50
90.0000
  0
INSERT
  8
31
  2
RECT
 10
77.8100
 20
36.3150
 30
0.0000
 41
1.5000
 42
0.9000
 43
1.0000
 50
90.0000
  0
INSERT
  8
31
  2
RECT
 10
74.5100
 20
36.3150
 30
0.0000
 41
1.5000
 42
0.9000
 43
1.0000
 50
90.0000
  0
INSERT
  8
31
  2
RECT
 10
83.1600
 20
31.4150
 30
0.0000
 41
1.5000
 42
0.9000
 43
1.0000
 50
90.0000
  0
INSERT
  8
31
  2
RECT
 10
86.4600
 20
31.4150
 30
0.0000
 41
1.5000
 42
0.9000
 43
1.0000
 50
90.0000
  0
INSERT
  8
31
  2
RECT
 10
86.4600
 20
36.3150
 30
0.0000
 41
1.5000
 42
0.9000
 43
1.0000
 50
90.0000
  0
INSERT
  8
31
  2
RECT
 10
83.1600
 20
36.3150
 30
0.0000
 41
1.5000
 42
0.9000
 43
1.0000
 50
90.0000
  0
INSERT
  8
31
  2
RECT
 10
91.8100
 20
31.4150
 30
0.0000
 41
1.5000
 42
0.9000
 43
1.0000
 50
90.0000
  0
INSERT
  8
31
  2
RECT
 10
95.1100
 20
31.4150
 30
0.0000
 41
1.5000
 42
0.9000
 43
1.0000
 50
90.0000
  0
INSERT
  8
31
  2
RECT
 10
95.1100
 20
36.3150
 30
0.0000
 41
1.5000
 42
0.9000
 43
1.0000
 50
90.0000
  0
INSERT
  8
31
  2
RECT
 10
91.8100
 20
36.3150
 30
0.0000
 41
1.5000
 42
0.9000
 43
1.0000
 50
90.0000
  0
INSERT
  8
31
  2
RECT
 10
100.4600
 20
31.4150
 30
0.0000
 41
1.5000
 42
0.9000
 43
1.0000
 50
90.0000
  0
INSERT
  8
31
  2
RECT
 10
103.7600
 20
31.4150
 30
0.0000
 41
1.5000
 42
0.9000
 43
1.0000
 50
90.0000
  0
INSERT
  8
31
  2
RECT
 10
103.7600
 20
36.3150
 30
0.0000
 41
1.5000
 42
0.9000
 43
1.0000
 50
90.0000
  0
INSERT
  8
31
  2
RECT
 10
100.4600
 20
36.3150
 30
0.0000
 41
1.5000
 42
0.9000
 43
1.0000
 50
90.0000
  0
INSERT
  8
31
  2
RECT
 10
109.1100
 20
31.4150
 30
0.0000
 41
1.5000
 42
0.9000
 43
1.0000
 50
90.0000
  0
INSERT
  8
31
  2
RECT
 10
112.4100
 20
31.4150
 30
0.0000
 41
1.5000
 42
0.9000
 43
1.0000
 50
90.0000
  0
INSERT
  8
31
  2
RECT
 10
112.4100
 20
36.3150
 30
0.0000
 41
1.5000
 42
0.9000
 43
1.0000
 50
90.0000
  0
INSERT
  8
31
  2
RECT
 10
109.1100
 20
36.3150
 30
0.0000
 41
1.5000
 42
0.9000
 43
1.0000
 50
90.0000
  0
INSERT
  8
31
  2
RECT
 10
22.6200
 20
21.7989
 30
0.0000
 41
1.5000
 42
0.9000
 43
1.0000
 50
90.0000
  0
INSERT
  8
31
  2
RECT
 10
25.9200
 20
21.7989
 30
0.0000
 41
1.5000
 42
0.9000
 43
1.0000
 50
90.0000
  0
INSERT
  8
31
  2
RECT
 10
25.9200
 20
26.6989
 30
0.0000
 41
1.5000
 42
0.9000
 43
1.0000
 50
90.0000
  0
INSERT
  8
31
  2
RECT
 10
22.6200
 20
26.6989
 30
0.0000
 41
1.5000
 42
0.9000
 43
1.0000
 50
90.0000
  0
INSERT
  8
31
  2
RECT
 10
31.2700
 20
21.7989
 30
0.0000
 41
1.5000
 42
0.9000
 43
1.0000
 50
90.0000
  0
INSERT
  8
31
  2
RECT
 10
34.5700
 20
21.7989
 30
0.0000
 41
1.5000
 42
0.9000
 43
1.0000
 50
90.0000
  0
INSERT
  8
31
  2
RECT
 10
34.5700
 20
26.6989
 30
0.0000
 41
1.5000
 42
0.9000
 43
1.0000
 50
90.0000
  0
INSERT
  8
31
  2
RECT
 10
31.2700
 20
26.6989
 30
0.0000
 41
1.5000
 42
0.9000
 43
1.0000
 50
90.0000
  0
INSERT
  8
31
  2
RECT
 10
39.9200
 20
21.7989
 30
0.0000
 41
1.5000
 42
0.9000
 43
1.0000
 50
90.0000
  0
INSERT
  8
31
  2
RECT
 10
43.2200
 20
21.7989
 30
0.0000
 41
1.5000
 42
0.9000
 43
1.0000
 50
90.0000
  0
INSERT
  8
31
  2
RECT
 10
43.2200
 20
26.6989
 30
0.0000
 41
1.5000
 42
0.9000
 43
1.0000
 50
90.0000
  0
INSERT
  8
31
  2
RECT
 10
39.9200
 20
26.6989
 30
0.0000
 41
1.5000
 42
0.9000
 43
1.0000
 50
90.0000
  0
INSERT
  8
31
  2
RECT
 10
48.5700
 20
21.7989
 30
0.0000
 41
1.5000
 42
0.9000
 43
1.0000
 50
90.0000
  0
INSERT
  8
31
  2
RECT
 10
51.8700
 20
21.7989
 30
0.0000
 41
1.5000
 42
0.9000
 43
1.0000
 50
90.0000
  0
INSERT
  8
31
  2
RECT
 10
51.8700
 20
26.6989
 30
0.0000
 41
1.5000
 42
0.9000
 43
1.0000
 50
90.0000
  0
INSERT
  8
31
  2
RECT
 10
48.5700
 20
26.6989
 30
0.0000
 41
1.5000
 42
0.9000
 43
1.0000
 50
90.0000
  0
INSERT
  8
31
  2
RECT
 10
57.2200
 20
21.7989
 30
0.0000
 41
1.5000
 42
0.9000
 43
1.0000
 50
90.0000
  0
INSERT
  8
31
  2
RECT
 10
60.5200
 20
21.7989
 30
0.0000
 41
1.5000
 42
0.9000
 43
1.0000
 50
90.0000
  0
INSERT
  8
31
  2
RECT
 10
60.5200
 20
26.6989
 30
0.0000
 41
1.5000
 42
0.9000
 43
1.0000
 50
90.0000
  0
INSERT
  8
31
  2
RECT
 10
57.2200
 20
26.6989
 30
0.0000
 41
1.5000
 42
0.9000
 43
1.0000
 50
90.0000
  0
INSERT
  8
31
  2
RECT
 10
65.8700
 20
21.7989
 30
0.0000
 41
1.5000
 42
0.9000
 43
1.0000
 50
90.0000
  0
INSERT
  8
31
  2
RECT
 10
69.1700
 20
21.7989
 30
0.0000
 41
1.5000
 42
0.9000
 43
1.0000
 50
90.0000
  0
INSERT
  8
31
  2
RECT
 10
69.1700
 20
26.6989
 30
0.0000
 41
1.5000
 42
0.9000
 43
1.0000
 50
90.0000
  0
INSERT
  8
31
  2
RECT
 10
65.8700
 20
26.6989
 30
0.0000
 41
1.5000
 42
0.9000
 43
1.0000
 50
90.0000
  0
INSERT
  8
31
  2
RECT
 10
74.5200
 20
21.7989
 30
0.0000
 41
1.5000
 42
0.9000
 43
1.0000
 50
90.0000
  0
INSERT
  8
31
  2
RECT
 10
77.8200
 20
21.7989
 30
0.0000
 41
1.5000
 42
0.9000
 43
1.0000
 50
90.0000
  0
INSERT
  8
31
  2
RECT
 10
77.8200
 20
26.6989
 30
0.0000
 41
1.5000
 42
0.9000
 43
1.0000
 50
90.0000
  0
INSERT
  8
31
  2
RECT
 10
74.5200
 20
26.6989
 30
0.0000
 41
1.5000
 42
0.9000
 43
1.0000
 50
90.0000
  0
INSERT
  8
31
  2
RECT
 10
83.1700
 20
21.7989
 30
0.0000
 41
1.5000
 42
0.9000
 43
1.0000
 50
90.0000
  0
INSERT
  8
31
  2
RECT
 10
86.4700
 20
21.7989
 30
0.0000
 41
1.5000
 42
0.9000
 43
1.0000
 50
90.0000
  0
INSERT
  8
31
  2
RECT
 10
86.4700
 20
26.6989
 30
0.0000
 41
1.5000
 42
0.9000
 43
1.0000
 50
90.0000
  0
INSERT
  8
31
  2
RECT
 10
83.1700
 20
26.6989
 30
0.0000
 41
1.5000
 42
0.9000
 43
1.0000
 50
90.0000
  0
INSERT
  8
31
  2
RECT
 10
91.8200
 20
21.7989
 30
0.0000
 41
1.5000
 42
0.9000
 43
1.0000
 50
90.0000
  0
INSERT
  8
31
  2
RECT
 10
95.1200
 20
21.7989
 30
0.0000
 41
1.5000
 42
0.9000
 43
1.0000
 50
90.0000
  0
INSERT
  8
31
  2
RECT
 10
95.1200
 20
26.6989
 30
0.0000
 41
1.5000
 42
0.9000
 43
1.0000
 50
90.0000
  0
INSERT
  8
31
  2
RECT
 10
91.8200
 20
26.6989
 30
0.0000
 41
1.5000
 42
0.9000
 43
1.0000
 50
90.0000
  0
INSERT
  8
31
  2
RECT
 10
100.4700
 20
21.7989
 30
0.0000
 41
1.5000
 42
0.9000
 43
1.0000
 50
90.0000
  0
INSERT
  8
31
  2
RECT
 10
103.7700
 20
21.7989
 30
0.0000
 41
1.5000
 42
0.9000
 43
1.0000
 50
90.0000
  0
INSERT
  8
31
  2
RECT
 10
103.7700
 20
26.6989
 30
0.0000
 41
1.5000
 42
0.9000
 43
1.0000
 50
90.0000
  0
INSERT
  8
31
  2
RECT
 10
100.4700
 20
26.6989
 30
0.0000
 41
1.5000
 42
0.9000
 43
1.0000
 50
90.0000
  0
INSERT
  8
31
  2
RECT
 10
109.1200
 20
21.7989
 30
0.0000
 41
1.5000
 42
0.9000
 43
1.0000
 50
90.0000
  0
INSERT
  8
31
  2
RECT
 10
112.4200
 20
21.7989
 30
0.0000
 41
1.5000
 42
0.9000
 43
1.0000
 50
90.0000
  0
INSERT
  8
31
  2
RECT
 10
112.4200
 20
26.6989
 30
0.0000
 41
1.5000
 42
0.9000
 43
1.0000
 50
90.0000
  0
INSERT
  8
31
  2
RECT
 10
109.1200
 20
26.6989
 30
0.0000
 41
1.5000
 42
0.9000
 43
1.0000
 50
90.0000
  0
INSERT
  8
31
  2
RECT
 10
12.0200
 20
56.0600
 30
0.0000
 41
1.0000
 42
1.0000
 43
1.0000
 50
90.0000
  0
INSERT
  8
31
  2
RECT
 10
12.0200
 20
58.0600
 30
0.0000
 41
1.0000
 42
1.0000
 43
1.0000
 50
90.0000
  0
INSERT
  8
31
  2
RECT
 10
123.5000
 20
121.7500
 30
0.0000
 41
1.5000
 42
1.5000
 43
1.0000
 50
0.0000
  0
INSERT
  8
31
  2
RECT
 10
123.5000
 20
125.2500
 30
0.0000
 41
1.5000
 42
1.5000
 43
1.0000
 50
0.0000
  0
INSERT
  8
31
  2
RECT
 10
123.5000
 20
13.2500
 30
0.0000
 41
1.5000
 42
1.5000
 43
1.0000
 50
180.0000
  0
INSERT
  8
31
  2
RECT
 10
123.5000
 20
9.7500
 30
0.0000
 41
1.5000
 42
1.5000
 43
1.0000
 50
180.0000
  0
INSERT
  8
31
  2
RECT
 10
11.5000
 20
9.7500
 30
0.0000
 41
1.5000
 42
1.5000
 43
1.0000
 50
0.0000
  0
INSERT
  8
31
  2
RECT
 10
11.5000
 20
13.2500
 30
0.0000
 41
1.5000
 42
1.5000
 43
1.0000
 50
0.0000
  0
INSERT
  8
31
  2
RECT
 10
11.5000
 20
125.2500
 30
0.0000
 41
1.5000
 42
1.5000
 43
1.0000
 50
180.0000
  0
INSERT
  8
31
  2
RECT
 10
11.5000
 20
121.7500
 30
0.0000
 41
1.5000
 42
1.5000
 43
1.0000
 50
180.0000
  0
INSERT
  8
31
  2
RECT
 10
67.5000
 20
121.7500
 30
0.0000
 41
1.5000
 42
1.5000
 43
1.0000
 50
0.0000
  0
INSERT
  8
31
  2
RECT
 10
67.5000
 20
125.2500
 30
0.0000
 41
1.5000
 42
1.5000
 43
1.0000
 50
0.0000
  0
INSERT
  8
31
  2
RECT
 10
19.8050
 20
71.7920
 30
0.0000
 41
1.6000
 42
1.8030
 43
1.0000
 50
270.0000
  0
INSERT
  8
31
  2
RECT
 10
19.8050
 20
68.9480
 30
0.0000
 41
1.6000
 42
1.8030
 43
1.0000
 50
270.0000
  0
INSERT
  8
31
  2
RECT
 10
41.5580
 20
121.5350
 30
0.0000
 41
1.6000
 42
1.8030
 43
1.0000
 50
0.0000
  0
INSERT
  8
31
  2
RECT
 10
44.4020
 20
121.5350
 30
0.0000
 41
1.6000
 42
1.8030
 43
1.0000
 50
0.0000
  0
INSERT
  8
31
  2
RECT
 10
27.4800
 20
119.5280
 30
0.0000
 41
1.6000
 42
1.8030
 43
1.0000
 50
90.0000
  0
INSERT
  8
31
  2
RECT
 10
27.4800
 20
122.3720
 30
0.0000
 41
1.6000
 42
1.8030
 43
1.0000
 50
90.0000
  0
INSERT
  8
31
  2
RECT
 10
35.0220
 20
122.2800
 30
0.0000
 41
1.6000
 42
1.8030
 43
1.0000
 50
180.0000
  0
INSERT
  8
31
  2
RECT
 10
32.1780
 20
122.2800
 30
0.0000
 41
1.6000
 42
1.8030
 43
1.0000
 50
180.0000
  0
CIRCLE
  8
20
 10
124.1700
 20
97.0940
 30
0.0000
 40
1.6510
  0
INSERT
  8
31
  2
RECT
 10
126.2700
 20
119.3300
 30
0.0000
 41
1.6000
 42
2.0000
 43
1.0000
 50
180.0000
  0
INSERT
  8
31
  2
RECT
 10
123.4700
 20
119.3300
 30
0.0000
 41
1.6000
 42
2.0000
 43
1.0000
 50
180.0000
  0
INSERT
  8
31
  2
RECT
 10
120.1600
 20
25.1000
 30
0.0000
 41
1.6000
 42
2.0000
 43
1.0000
 50
270.0000
  0
INSERT
  8
31
  2
RECT
 10
120.1600
 20
22.3000
 30
0.0000
 41
1.6000
 42
2.0000
 43
1.0000
 50
270.0000
  0
INSERT
  8
31
  2
RECT
 10
13.9500
 20
12.8500
 30
0.0000
 41
1.6000
 42
2.0000
 43
1.0000
 50
270.0000
  0
INSERT
  8
31
  2
RECT
 10
13.9500
 20
10.0500
 30
0.0000
 41
1.6000
 42
2.0000
 43
1.0000
 50
270.0000
  0
INSERT
  8
31
  2
RECT
 10
34.4700
 20
125.3100
 30
0.0000
 41
1.6000
 42
2.0000
 43
1.0000
 50
180.0000
  0
INSERT
  8
31
  2
RECT
 10
31.6700
 20
125.3100
 30
0.0000
 41
1.6000
 42
2.0000
 43
1.0000
 50
180.0000
  0
INSERT
  8
31
  2
RECT
 10
72.2200
 20
121.8100
 30
0.0000
 41
1.6000
 42
2.0000
 43
1.0000
 50
180.0000
  0
INSERT
  8
31
  2
RECT
 10
69.4200
 20
121.8100
 30
0.0000
 41
1.6000
 42
2.0000
 43
1.0000
 50
180.0000
  0
INSERT
  8
31
  2
RECT
 10
17.0980
 20
112.6400
 30
0.0000
 41
1.6000
 42
1.8030
 43
1.0000
 50
0.0000
  0
INSERT
  8
31
  2
RECT
 10
19.9420
 20
112.6400
 30
0.0000
 41
1.6000
 42
1.8030
 43
1.0000
 50
0.0000
  0
INSERT
  8
31
  2
RECT
 10
19.6580
 20
115.6200
 30
0.0000
 41
1.6000
 42
1.8030
 43
1.0000
 50
0.0000
  0
INSERT
  8
31
  2
RECT
 10
22.5020
 20
115.6200
 30
0.0000
 41
1.6000
 42
1.8030
 43
1.0000
 50
0.0000
  0
INSERT
  8
31
  2
RECT
 10
60.6800
 20
127.8900
 30
0.0000
 41
1.6000
 42
2.0000
 43
1.0000
 50
270.0000
  0
INSERT
  8
31
  2
RECT
 10
60.6800
 20
125.0900
 30
0.0000
 41
1.6000
 42
2.0000
 43
1.0000
 50
270.0000
  0
INSERT
  8
31
  2
RECT
 10
17.6000
 20
107.7700
 30
0.0000
 41
1.6000
 42
2.0000
 43
1.0000
 50
180.0000
  0
INSERT
  8
31
  2
RECT
 10
14.8000
 20
107.7700
 30
0.0000
 41
1.6000
 42
2.0000
 43
1.0000
 50
180.0000
  0
INSERT
  8
31
  2
RECT
 10
61.0700
 20
120.6100
 30
0.0000
 41
1.6000
 42
2.0000
 43
1.0000
 50
270.0000
  0
INSERT
  8
31
  2
RECT
 10
61.0700
 20
117.8100
 30
0.0000
 41
1.6000
 42
2.0000
 43
1.0000
 50
270.0000
  0
INSERT
  8
31
  2
RECT
 10
31.6000
 20
15.9100
 30
0.0000
 41
1.6000
 42
2.0000
 43
1.0000
 50
180.0000
  0
INSERT
  8
31
  2
RECT
 10
28.8000
 20
15.9100
 30
0.0000
 41
1.6000
 42
2.0000
 43
1.0000
 50
180.0000
  0
INSERT
  8
31
  2
RECT
 10
51.7200
 20
15.3100
 30
0.0000
 41
1.6000
 42
2.0000
 43
1.0000
 50
180.0000
  0
INSERT
  8
31
  2
RECT
 10
48.9200
 20
15.3100
 30
0.0000
 41
1.6000
 42
2.0000
 43
1.0000
 50
180.0000
  0
INSERT
  8
31
  2
RECT
 10
71.7000
 20
15.1400
 30
0.0000
 41
1.6000
 42
2.0000
 43
1.0000
 50
180.0000
  0
INSERT
  8
31
  2
RECT
 10
68.9000
 20
15.1400
 30
0.0000
 41
1.6000
 42
2.0000
 43
1.0000
 50
180.0000
  0
INSERT
  8
31
  2
RECT
 10
91.5900
 20
15.3800
 30
0.0000
 41
1.6000
 42
2.0000
 43
1.0000
 50
180.0000
  0
INSERT
  8
31
  2
RECT
 10
88.7900
 20
15.3800
 30
0.0000
 41
1.6000
 42
2.0000
 43
1.0000
 50
180.0000
  0
INSERT
  8
31
  2
RECT
 10
20.7880
 20
118.4100
 30
0.0000
 41
1.6000
 42
1.8030
 43
1.0000
 50
0.0000
  0
INSERT
  8
31
  2
RECT
 10
23.6320
 20
118.4100
 30
0.0000
 41
1.6000
 42
1.8030
 43
1.0000
 50
0.0000
  0
INSERT
  8
31
  2
RECT
 10
20.7780
 20
120.4700
 30
0.0000
 41
1.6000
 42
1.8030
 43
1.0000
 50
0.0000
  0
INSERT
  8
31
  2
RECT
 10
23.6220
 20
120.4700
 30
0.0000
 41
1.6000
 42
1.8030
 43
1.0000
 50
0.0000
  0
INSERT
  8
31
  2
RECT
 10
123.7500
 20
28.4000
 30
0.0000
 41
2.0000
 42
0.5000
 43
1.0000
 50
180.0000
  0
INSERT
  8
31
  2
RECT
 10
123.7500
 20
29.2000
 30
0.0000
 41
2.0000
 42
0.5000
 43
1.0000
 50
180.0000
  0
INSERT
  8
31
  2
RECT
 10
123.7500
 20
30.0000
 30
0.0000
 41
2.0000
 42
0.5000
 43
1.0000
 50
180.0000
  0
INSERT
  8
31
  2
RECT
 10
123.7500
 20
30.8000
 30
0.0000
 41
2.0000
 42
0.5000
 43
1.0000
 50
180.0000
  0
INSERT
  8
31
  2
RECT
 10
123.7500
 20
31.6000
 30
0.0000
 41
2.0000
 42
0.5000
 43
1.0000
 50
180.0000
  0
INSERT
  8
31
  2
RECT
 10
127.9500
 20
34.2000
 30
0.0000
 41
2.2000
 42
2.5000
 43
1.0000
 50
180.0000
  0
INSERT
  8
31
  2
RECT
 10
127.9500
 20
25.8000
 30
0.0000
 41
2.2000
 42
2.5000
 43
1.0000
 50
180.0000
  0
INSERT
  8
31
  2
RECT
 10
124.0000
 20
25.8000
 30
0.0000
 41
2.0000
 42
2.5000
 43
1.0000
 50
180.0000
  0
INSERT
  8
31
  2
RECT
 10
124.0000
 20
34.2000
 30
0.0000
 41
2.0000
 42
2.5000
 43
1.0000
 50
180.0000
  0
ENDSEC
  0
EOF
